<?xml version="1.0" encoding="utf-8" standalone="no"?>
<!DOCTYPE svg PUBLIC "-//W3C//DTD SVG 1.1//EN"
  "http://www.w3.org/Graphics/SVG/1.1/DTD/svg11.dtd">
<svg xmlns:xlink="http://www.w3.org/1999/xlink" width="561.438522pt" height="417.658962pt" viewBox="0 0 561.438522 417.658962" xmlns="http://www.w3.org/2000/svg" version="1.1">
 <metadata>
  <rdf:RDF xmlns:dc="http://purl.org/dc/elements/1.1/" xmlns:cc="http://creativecommons.org/ns#" xmlns:rdf="http://www.w3.org/1999/02/22-rdf-syntax-ns#">
   <cc:Work>
    <dc:type rdf:resource="http://purl.org/dc/dcmitype/StillImage"/>
    <dc:date>2023-12-03T21:33:33.237011</dc:date>
    <dc:format>image/svg+xml</dc:format>
    <dc:creator>
     <cc:Agent>
      <dc:title>Matplotlib v3.7.1, https://matplotlib.org/</dc:title>
     </cc:Agent>
    </dc:creator>
   </cc:Work>
  </rdf:RDF>
 </metadata>
 <defs>
  <style type="text/css">*{stroke-linejoin: round; stroke-linecap: butt}</style>
 </defs>
 <g id="figure_1">
  <g id="patch_1">
   <path d="M 0 417.658962 
L 561.438522 417.658962 
L 561.438522 0 
L 0 0 
z
" style="fill: #ffffff"/>
  </g>
  <g id="axes_1">
   <g id="patch_2">
    <path d="M 43.1 379.733462 
L 557.838522 379.733462 
L 557.838522 20.8825 
L 43.1 20.8825 
z
" style="fill: #ffffff"/>
   </g>
   <g id="matplotlib.axis_1">
    <g id="xtick_1">
     <g id="line2d_1">
      <defs>
       <path id="m7c22004993" d="M 0 0 
L 0 -6 
" style="stroke: #000000"/>
      </defs>
      <g>
       <use xlink:href="#m7c22004993" x="107.442315" y="379.733462" style="stroke: #000000"/>
      </g>
     </g>
     <g id="line2d_2">
      <defs>
       <path id="m699fe515f4" d="M 0 0 
L 0 6 
" style="stroke: #000000"/>
      </defs>
      <g>
       <use xlink:href="#m699fe515f4" x="107.442315" y="20.8825" style="stroke: #000000"/>
      </g>
     </g>
     <g id="text_1">
      <!-- Tree -->
      <g transform="translate(91.433565 394.335962) scale(0.16 -0.16)">
       <defs>
        <path id="Cmr10-54" d="M 1081 0 
L 1081 225 
Q 1403 225 1706 261 
Q 2009 297 2009 428 
L 2009 3944 
Q 2009 4081 1932 4114 
Q 1856 4147 1684 4147 
L 1416 4147 
Q 888 4147 666 3916 
Q 550 3800 500 3545 
Q 450 3291 416 2906 
L 231 2906 
L 353 4372 
L 4263 4372 
L 4384 2906 
L 4197 2906 
Q 4159 3319 4114 3561 
Q 4069 3803 3950 3916 
Q 3725 4147 3200 4147 
L 2931 4147 
Q 2816 4147 2752 4137 
Q 2688 4128 2647 4083 
Q 2606 4038 2606 3944 
L 2606 428 
Q 2606 297 2909 261 
Q 3213 225 3531 225 
L 3531 0 
L 1081 0 
z
" transform="scale(0.015625)"/>
        <path id="Cmr10-72" d="M 166 0 
L 166 225 
Q 384 225 525 259 
Q 666 294 666 428 
L 666 2175 
Q 666 2347 614 2423 
Q 563 2500 466 2517 
Q 369 2534 166 2534 
L 166 2759 
L 1081 2828 
L 1081 2203 
Q 1184 2481 1375 2654 
Q 1566 2828 1838 2828 
Q 2028 2828 2178 2715 
Q 2328 2603 2328 2419 
Q 2328 2303 2245 2217 
Q 2163 2131 2041 2131 
Q 1922 2131 1837 2215 
Q 1753 2300 1753 2419 
Q 1753 2591 1875 2663 
L 1838 2663 
Q 1578 2663 1414 2475 
Q 1250 2288 1181 2009 
Q 1113 1731 1113 1478 
L 1113 428 
Q 1113 225 1734 225 
L 1734 0 
L 166 0 
z
" transform="scale(0.015625)"/>
        <path id="Cmr10-65" d="M 1594 -72 
Q 1203 -72 876 133 
Q 550 338 364 680 
Q 178 1022 178 1403 
Q 178 1778 348 2115 
Q 519 2453 823 2661 
Q 1128 2869 1503 2869 
Q 1797 2869 2014 2770 
Q 2231 2672 2372 2497 
Q 2513 2322 2584 2084 
Q 2656 1847 2656 1563 
Q 2656 1478 2591 1478 
L 738 1478 
L 738 1409 
Q 738 878 952 497 
Q 1166 116 1650 116 
Q 1847 116 2014 203 
Q 2181 291 2304 447 
Q 2428 603 2472 781 
Q 2478 803 2495 820 
Q 2513 838 2534 838 
L 2591 838 
Q 2656 838 2656 756 
Q 2566 394 2266 161 
Q 1966 -72 1594 -72 
z
M 744 1638 
L 2203 1638 
Q 2203 1878 2136 2125 
Q 2069 2372 1912 2536 
Q 1756 2700 1503 2700 
Q 1141 2700 942 2361 
Q 744 2022 744 1638 
z
" transform="scale(0.015625)"/>
       </defs>
       <use xlink:href="#Cmr10-54"/>
       <use xlink:href="#Cmr10-72" x="72.216797"/>
       <use xlink:href="#Cmr10-65" x="111.328125"/>
       <use xlink:href="#Cmr10-65" x="155.712891"/>
      </g>
      <!-- Interface -->
      <g transform="translate(76.786065 410.761462) scale(0.16 -0.16)">
       <defs>
        <path id="Cmr10-49" d="M 166 0 
L 166 225 
Q 856 225 856 428 
L 856 3944 
Q 856 4147 166 4147 
L 166 4372 
L 2144 4372 
L 2144 4147 
Q 1453 4147 1453 3944 
L 1453 428 
Q 1453 225 2144 225 
L 2144 0 
L 166 0 
z
" transform="scale(0.015625)"/>
        <path id="Cmr10-6e" d="M 191 0 
L 191 225 
Q 409 225 550 259 
Q 691 294 691 428 
L 691 2175 
Q 691 2347 639 2423 
Q 588 2500 491 2517 
Q 394 2534 191 2534 
L 191 2759 
L 1119 2828 
L 1119 2203 
Q 1247 2478 1498 2653 
Q 1750 2828 2047 2828 
Q 2491 2828 2714 2615 
Q 2938 2403 2938 1966 
L 2938 428 
Q 2938 294 3078 259 
Q 3219 225 3438 225 
L 3438 0 
L 1972 0 
L 1972 225 
Q 2191 225 2331 259 
Q 2472 294 2472 428 
L 2472 1947 
Q 2472 2259 2381 2461 
Q 2291 2663 2009 2663 
Q 1638 2663 1398 2366 
Q 1159 2069 1159 1691 
L 1159 428 
Q 1159 294 1300 259 
Q 1441 225 1656 225 
L 1656 0 
L 191 0 
z
" transform="scale(0.015625)"/>
        <path id="Cmr10-74" d="M 653 769 
L 653 2534 
L 122 2534 
L 122 2700 
Q 541 2700 737 3090 
Q 934 3481 934 3938 
L 1119 3938 
L 1119 2759 
L 2022 2759 
L 2022 2534 
L 1119 2534 
L 1119 781 
Q 1119 516 1208 316 
Q 1297 116 1528 116 
Q 1747 116 1844 327 
Q 1941 538 1941 781 
L 1941 1159 
L 2125 1159 
L 2125 769 
Q 2125 569 2051 373 
Q 1978 178 1834 53 
Q 1691 -72 1484 -72 
Q 1100 -72 876 158 
Q 653 388 653 769 
z
" transform="scale(0.015625)"/>
        <path id="Cmr10-66" d="M 206 0 
L 206 225 
Q 422 225 562 259 
Q 703 294 703 428 
L 703 2534 
L 213 2534 
L 213 2759 
L 703 2759 
L 703 3525 
Q 703 3731 789 3911 
Q 875 4091 1020 4225 
Q 1166 4359 1355 4436 
Q 1544 4513 1747 4513 
Q 1963 4513 2136 4384 
Q 2309 4256 2309 4044 
Q 2309 3922 2226 3839 
Q 2144 3756 2022 3756 
Q 1900 3756 1814 3839 
Q 1728 3922 1728 4044 
Q 1728 4244 1900 4313 
Q 1797 4347 1716 4347 
Q 1528 4347 1395 4214 
Q 1263 4081 1197 3890 
Q 1131 3700 1131 3513 
L 1131 2759 
L 1869 2759 
L 1869 2534 
L 1153 2534 
L 1153 428 
Q 1153 297 1340 261 
Q 1528 225 1772 225 
L 1772 0 
L 206 0 
z
" transform="scale(0.015625)"/>
        <path id="Cmr10-61" d="M 256 628 
Q 256 1009 556 1248 
Q 856 1488 1276 1586 
Q 1697 1684 2075 1684 
L 2075 1947 
Q 2075 2131 1994 2304 
Q 1913 2478 1759 2589 
Q 1606 2700 1422 2700 
Q 997 2700 775 2509 
Q 897 2509 976 2417 
Q 1056 2325 1056 2203 
Q 1056 2075 965 1984 
Q 875 1894 750 1894 
Q 622 1894 531 1984 
Q 441 2075 441 2203 
Q 441 2541 747 2705 
Q 1053 2869 1422 2869 
Q 1681 2869 1943 2758 
Q 2206 2647 2373 2440 
Q 2541 2234 2541 1959 
L 2541 519 
Q 2541 394 2594 289 
Q 2647 184 2759 184 
Q 2866 184 2917 290 
Q 2969 397 2969 519 
L 2969 928 
L 3156 928 
L 3156 519 
Q 3156 375 3081 245 
Q 3006 116 2879 39 
Q 2753 -38 2606 -38 
Q 2419 -38 2283 107 
Q 2147 253 2131 453 
Q 2013 213 1781 70 
Q 1550 -72 1288 -72 
Q 1044 -72 808 0 
Q 572 72 414 226 
Q 256 381 256 628 
z
M 775 628 
Q 775 403 940 250 
Q 1106 97 1331 97 
Q 1538 97 1706 200 
Q 1875 303 1975 481 
Q 2075 659 2075 856 
L 2075 1522 
Q 1784 1522 1479 1426 
Q 1175 1331 975 1128 
Q 775 925 775 628 
z
" transform="scale(0.015625)"/>
        <path id="Cmr10-63" d="M 1594 -72 
Q 1206 -72 890 129 
Q 575 331 394 667 
Q 213 1003 213 1381 
Q 213 1759 392 2106 
Q 572 2453 889 2661 
Q 1206 2869 1594 2869 
Q 1969 2869 2276 2722 
Q 2584 2575 2584 2241 
Q 2584 2116 2495 2023 
Q 2406 1931 2278 1931 
Q 2150 1931 2061 2023 
Q 1972 2116 1972 2241 
Q 1972 2353 2044 2436 
Q 2116 2519 2222 2541 
Q 2000 2681 1600 2681 
Q 1294 2681 1106 2478 
Q 919 2275 844 1975 
Q 769 1675 769 1381 
Q 769 1072 861 783 
Q 953 494 1158 305 
Q 1363 116 1672 116 
Q 1975 116 2187 302 
Q 2400 488 2478 788 
Q 2478 825 2528 825 
L 2606 825 
Q 2625 825 2640 808 
Q 2656 791 2656 769 
L 2656 750 
Q 2559 372 2271 150 
Q 1984 -72 1594 -72 
z
" transform="scale(0.015625)"/>
       </defs>
       <use xlink:href="#Cmr10-49"/>
       <use xlink:href="#Cmr10-6e" x="36.083984"/>
       <use xlink:href="#Cmr10-74" x="91.601562"/>
       <use xlink:href="#Cmr10-65" x="130.419922"/>
       <use xlink:href="#Cmr10-72" x="174.804688"/>
       <use xlink:href="#Cmr10-66" x="213.916016"/>
       <use xlink:href="#Cmr10-61" x="244.433594"/>
       <use xlink:href="#Cmr10-63" x="294.433594"/>
       <use xlink:href="#Cmr10-65" x="338.818359"/>
      </g>
     </g>
    </g>
    <g id="xtick_2">
     <g id="line2d_3">
      <g>
       <use xlink:href="#m7c22004993" x="236.126946" y="379.733462" style="stroke: #000000"/>
      </g>
     </g>
     <g id="line2d_4">
      <g>
       <use xlink:href="#m699fe515f4" x="236.126946" y="20.8825" style="stroke: #000000"/>
      </g>
     </g>
     <g id="text_2">
      <!-- Grid -->
      <g transform="translate(220.068196 394.335962) scale(0.16 -0.16)">
       <defs>
        <path id="Cmr10-47" d="M 1472 684 
Q 1703 403 2036 243 
Q 2369 84 2731 84 
Q 3088 84 3378 265 
Q 3669 447 3669 781 
L 3669 1319 
Q 3669 1522 2869 1522 
L 2869 1747 
L 4703 1747 
L 4703 1522 
Q 4500 1522 4381 1487 
Q 4263 1453 4263 1319 
L 4263 56 
Q 4263 34 4245 17 
Q 4228 0 4206 0 
Q 4147 0 4008 140 
Q 3869 281 3788 391 
Q 3631 122 3297 -9 
Q 2963 -141 2597 -141 
Q 1975 -141 1464 179 
Q 953 500 656 1036 
Q 359 1572 359 2188 
Q 359 2641 531 3069 
Q 703 3497 1011 3822 
Q 1319 4147 1728 4330 
Q 2138 4513 2597 4513 
Q 2928 4513 3223 4370 
Q 3519 4228 3750 3969 
L 4122 4494 
Q 4159 4513 4166 4513 
L 4213 4513 
Q 4231 4513 4247 4497 
Q 4263 4481 4263 4459 
L 4263 2731 
Q 4263 2675 4213 2675 
L 4097 2675 
Q 4038 2675 4038 2731 
Q 4038 2916 3964 3144 
Q 3891 3372 3777 3576 
Q 3663 3781 3513 3938 
Q 3153 4288 2688 4288 
Q 2331 4288 2006 4128 
Q 1681 3969 1459 3688 
Q 1225 3388 1134 3005 
Q 1044 2622 1044 2188 
Q 1044 1206 1472 684 
z
" transform="scale(0.015625)"/>
        <path id="Cmr10-69" d="M 197 0 
L 197 225 
Q 416 225 556 259 
Q 697 294 697 428 
L 697 2175 
Q 697 2422 601 2478 
Q 506 2534 225 2534 
L 225 2759 
L 1147 2828 
L 1147 428 
Q 1147 294 1269 259 
Q 1391 225 1594 225 
L 1594 0 
L 197 0 
z
M 469 3928 
Q 469 4069 575 4175 
Q 681 4281 819 4281 
Q 909 4281 993 4234 
Q 1078 4188 1125 4103 
Q 1172 4019 1172 3928 
Q 1172 3791 1065 3684 
Q 959 3578 819 3578 
Q 681 3578 575 3684 
Q 469 3791 469 3928 
z
" transform="scale(0.015625)"/>
        <path id="Cmr10-64" d="M 1563 -72 
Q 1184 -72 871 133 
Q 559 338 386 672 
Q 213 1006 213 1381 
Q 213 1769 402 2101 
Q 591 2434 916 2631 
Q 1241 2828 1631 2828 
Q 1866 2828 2075 2729 
Q 2284 2631 2438 2456 
L 2438 3788 
Q 2438 3959 2386 4036 
Q 2334 4113 2239 4130 
Q 2144 4147 1941 4147 
L 1941 4372 
L 2888 4441 
L 2888 581 
Q 2888 413 2939 336 
Q 2991 259 3086 242 
Q 3181 225 3384 225 
L 3384 0 
L 2419 -72 
L 2419 331 
Q 2253 141 2025 34 
Q 1797 -72 1563 -72 
z
M 909 556 
Q 1019 347 1201 222 
Q 1384 97 1600 97 
Q 1866 97 2087 250 
Q 2309 403 2419 647 
L 2419 2181 
Q 2344 2322 2230 2433 
Q 2116 2544 1973 2603 
Q 1831 2663 1672 2663 
Q 1338 2663 1134 2473 
Q 931 2284 850 1990 
Q 769 1697 769 1375 
Q 769 1119 795 928 
Q 822 738 909 556 
z
" transform="scale(0.015625)"/>
       </defs>
       <use xlink:href="#Cmr10-47"/>
       <use xlink:href="#Cmr10-72" x="78.417969"/>
       <use xlink:href="#Cmr10-69" x="117.529297"/>
       <use xlink:href="#Cmr10-64" x="145.214844"/>
      </g>
      <!-- Interface -->
      <g transform="translate(205.470696 410.761462) scale(0.16 -0.16)">
       <use xlink:href="#Cmr10-49"/>
       <use xlink:href="#Cmr10-6e" x="36.083984"/>
       <use xlink:href="#Cmr10-74" x="91.601562"/>
       <use xlink:href="#Cmr10-65" x="130.419922"/>
       <use xlink:href="#Cmr10-72" x="174.804688"/>
       <use xlink:href="#Cmr10-66" x="213.916016"/>
       <use xlink:href="#Cmr10-61" x="244.433594"/>
       <use xlink:href="#Cmr10-63" x="294.433594"/>
       <use xlink:href="#Cmr10-65" x="338.818359"/>
      </g>
     </g>
    </g>
    <g id="xtick_3">
     <g id="line2d_5">
      <g>
       <use xlink:href="#m7c22004993" x="364.811576" y="379.733462" style="stroke: #000000"/>
      </g>
     </g>
     <g id="line2d_6">
      <g>
       <use xlink:href="#m699fe515f4" x="364.811576" y="20.8825" style="stroke: #000000"/>
      </g>
     </g>
     <g id="text_3">
      <!-- Dominant -->
      <g transform="translate(329.840326 394.335962) scale(0.16 -0.16)">
       <defs>
        <path id="Cmr10-44" d="M 213 0 
L 213 225 
Q 872 225 872 428 
L 872 3944 
Q 872 4147 213 4147 
L 213 4372 
L 2572 4372 
Q 3009 4372 3371 4183 
Q 3734 3994 3990 3678 
Q 4247 3363 4386 2963 
Q 4525 2563 4525 2144 
Q 4525 1738 4384 1355 
Q 4244 972 3980 664 
Q 3716 356 3355 178 
Q 2994 0 2572 0 
L 213 0 
z
M 1447 428 
Q 1447 291 1525 258 
Q 1603 225 1772 225 
L 2406 225 
Q 2734 225 3029 367 
Q 3325 509 3519 763 
Q 3722 1031 3790 1364 
Q 3859 1697 3859 2144 
Q 3859 2609 3790 2959 
Q 3722 3309 3519 3584 
Q 3328 3856 3034 4001 
Q 2741 4147 2406 4147 
L 1772 4147 
Q 1656 4147 1592 4137 
Q 1528 4128 1487 4083 
Q 1447 4038 1447 3944 
L 1447 428 
z
" transform="scale(0.015625)"/>
        <path id="Cmr10-6f" d="M 1600 -72 
Q 1216 -72 887 123 
Q 559 319 368 647 
Q 178 975 178 1363 
Q 178 1656 283 1928 
Q 388 2200 583 2414 
Q 778 2628 1037 2748 
Q 1297 2869 1600 2869 
Q 1994 2869 2317 2661 
Q 2641 2453 2828 2104 
Q 3016 1756 3016 1363 
Q 3016 978 2825 648 
Q 2634 319 2307 123 
Q 1981 -72 1600 -72 
z
M 1600 116 
Q 2113 116 2284 487 
Q 2456 859 2456 1434 
Q 2456 1756 2422 1967 
Q 2388 2178 2272 2350 
Q 2200 2456 2089 2536 
Q 1978 2616 1854 2658 
Q 1731 2700 1600 2700 
Q 1400 2700 1220 2609 
Q 1041 2519 922 2350 
Q 803 2169 770 1951 
Q 738 1734 738 1434 
Q 738 1075 800 789 
Q 863 503 1052 309 
Q 1241 116 1600 116 
z
" transform="scale(0.015625)"/>
        <path id="Cmr10-6d" d="M 191 0 
L 191 225 
Q 409 225 550 259 
Q 691 294 691 428 
L 691 2175 
Q 691 2347 639 2423 
Q 588 2500 491 2517 
Q 394 2534 191 2534 
L 191 2759 
L 1119 2828 
L 1119 2203 
Q 1247 2478 1498 2653 
Q 1750 2828 2047 2828 
Q 2784 2828 2913 2228 
Q 3041 2497 3287 2662 
Q 3534 2828 3828 2828 
Q 4119 2828 4317 2734 
Q 4516 2641 4616 2448 
Q 4716 2256 4716 1966 
L 4716 428 
Q 4716 294 4858 259 
Q 5000 225 5216 225 
L 5216 0 
L 3750 0 
L 3750 225 
Q 3969 225 4109 259 
Q 4250 294 4250 428 
L 4250 1947 
Q 4250 2269 4159 2466 
Q 4069 2663 3788 2663 
Q 3419 2663 3178 2366 
Q 2938 2069 2938 1691 
L 2938 428 
Q 2938 294 3078 259 
Q 3219 225 3438 225 
L 3438 0 
L 1972 0 
L 1972 225 
Q 2191 225 2331 259 
Q 2472 294 2472 428 
L 2472 1947 
Q 2472 2259 2381 2461 
Q 2291 2663 2009 2663 
Q 1638 2663 1398 2366 
Q 1159 2069 1159 1691 
L 1159 428 
Q 1159 294 1300 259 
Q 1441 225 1656 225 
L 1656 0 
L 191 0 
z
" transform="scale(0.015625)"/>
       </defs>
       <use xlink:href="#Cmr10-44"/>
       <use xlink:href="#Cmr10-6f" x="76.318359"/>
       <use xlink:href="#Cmr10-6d" x="126.318359"/>
       <use xlink:href="#Cmr10-69" x="209.619141"/>
       <use xlink:href="#Cmr10-6e" x="237.304688"/>
       <use xlink:href="#Cmr10-61" x="292.822266"/>
       <use xlink:href="#Cmr10-6e" x="342.822266"/>
       <use xlink:href="#Cmr10-74" x="398.339844"/>
      </g>
      <!-- Typing -->
      <g transform="translate(339.721576 410.761462) scale(0.16 -0.16)">
       <defs>
        <path id="Cmr10-79" d="M 441 -1050 
Q 563 -1147 709 -1147 
Q 1113 -1147 1369 -538 
L 1588 0 
L 628 2350 
Q 569 2469 447 2501 
Q 325 2534 122 2534 
L 122 2759 
L 1466 2759 
L 1466 2534 
Q 1113 2534 1113 2381 
Q 1113 2356 1119 2344 
L 1831 594 
L 2472 2169 
Q 2491 2219 2491 2278 
Q 2491 2356 2448 2414 
Q 2406 2472 2339 2503 
Q 2272 2534 2188 2534 
L 2188 2759 
L 3250 2759 
L 3250 2534 
Q 3053 2534 2904 2443 
Q 2756 2353 2675 2175 
L 1569 -538 
Q 1481 -744 1364 -917 
Q 1247 -1091 1078 -1202 
Q 909 -1313 709 -1313 
Q 475 -1313 298 -1158 
Q 122 -1003 122 -775 
Q 122 -656 203 -575 
Q 284 -494 403 -494 
Q 484 -494 548 -530 
Q 613 -566 648 -628 
Q 684 -691 684 -775 
Q 684 -878 615 -959 
Q 547 -1041 441 -1050 
z
" transform="scale(0.015625)"/>
        <path id="Cmr10-70" d="M 166 -1241 
L 166 -1019 
Q 384 -1019 525 -981 
Q 666 -944 666 -813 
L 666 2272 
Q 666 2447 541 2490 
Q 416 2534 166 2534 
L 166 2759 
L 1113 2828 
L 1113 2431 
Q 1288 2625 1520 2726 
Q 1753 2828 2016 2828 
Q 2394 2828 2697 2623 
Q 3000 2419 3170 2086 
Q 3341 1753 3341 1381 
Q 3341 994 3152 659 
Q 2963 325 2636 126 
Q 2309 -72 1919 -72 
Q 1453 -72 1131 306 
L 1131 -813 
Q 1131 -944 1273 -981 
Q 1416 -1019 1631 -1019 
L 1631 -1241 
L 166 -1241 
z
M 1131 622 
Q 1244 394 1444 245 
Q 1644 97 1881 97 
Q 2103 97 2273 215 
Q 2444 334 2559 534 
Q 2675 734 2729 954 
Q 2784 1175 2784 1381 
Q 2784 1638 2692 1936 
Q 2600 2234 2411 2439 
Q 2222 2644 1953 2644 
Q 1694 2644 1476 2511 
Q 1259 2378 1131 2150 
L 1131 622 
z
" transform="scale(0.015625)"/>
        <path id="Cmr10-67" d="M 178 -500 
Q 178 -272 343 -101 
Q 509 69 738 141 
Q 609 238 542 384 
Q 475 531 475 697 
Q 475 997 666 1228 
Q 372 1516 372 1888 
Q 372 2088 458 2263 
Q 544 2438 697 2566 
Q 850 2694 1037 2761 
Q 1225 2828 1422 2828 
Q 1803 2828 2106 2606 
Q 2238 2747 2417 2823 
Q 2597 2900 2791 2900 
Q 2928 2900 3015 2801 
Q 3103 2703 3103 2566 
Q 3103 2488 3043 2428 
Q 2984 2369 2906 2369 
Q 2825 2369 2765 2428 
Q 2706 2488 2706 2566 
Q 2706 2684 2784 2731 
Q 2453 2731 2216 2503 
Q 2331 2388 2401 2220 
Q 2472 2053 2472 1888 
Q 2472 1616 2322 1398 
Q 2172 1181 1926 1061 
Q 1681 941 1422 941 
Q 1072 941 781 1131 
Q 691 1006 691 850 
Q 691 681 802 554 
Q 913 428 1081 428 
L 1606 428 
Q 1988 428 2294 359 
Q 2600 291 2808 84 
Q 3016 -122 3016 -500 
Q 3016 -781 2778 -967 
Q 2541 -1153 2211 -1236 
Q 1881 -1319 1600 -1319 
Q 1316 -1319 984 -1236 
Q 653 -1153 415 -967 
Q 178 -781 178 -500 
z
M 538 -500 
Q 538 -716 713 -861 
Q 888 -1006 1134 -1076 
Q 1381 -1147 1600 -1147 
Q 1816 -1147 2062 -1076 
Q 2309 -1006 2482 -861 
Q 2656 -716 2656 -500 
Q 2656 -166 2350 -67 
Q 2044 31 1606 31 
L 1081 31 
Q 934 31 811 -39 
Q 688 -109 613 -236 
Q 538 -363 538 -500 
z
M 1422 1113 
Q 1966 1113 1966 1888 
Q 1966 2222 1850 2439 
Q 1734 2656 1422 2656 
Q 1109 2656 993 2439 
Q 878 2222 878 1888 
Q 878 1675 922 1503 
Q 966 1331 1084 1222 
Q 1203 1113 1422 1113 
z
" transform="scale(0.015625)"/>
       </defs>
       <use xlink:href="#Cmr10-54"/>
       <use xlink:href="#Cmr10-79" x="72.216797"/>
       <use xlink:href="#Cmr10-70" x="124.902344"/>
       <use xlink:href="#Cmr10-69" x="180.419922"/>
       <use xlink:href="#Cmr10-6e" x="208.105469"/>
       <use xlink:href="#Cmr10-67" x="263.623047"/>
      </g>
     </g>
    </g>
    <g id="xtick_4">
     <g id="line2d_7">
      <g>
       <use xlink:href="#m7c22004993" x="493.496206" y="379.733462" style="stroke: #000000"/>
      </g>
     </g>
     <g id="line2d_8">
      <g>
       <use xlink:href="#m699fe515f4" x="493.496206" y="20.8825" style="stroke: #000000"/>
      </g>
     </g>
     <g id="text_4">
      <!-- Non-Dominant -->
      <g transform="translate(441.419956 394.335962) scale(0.16 -0.16)">
       <defs>
        <path id="Cmr10-4e" d="M 197 0 
L 197 225 
Q 856 225 856 603 
L 856 4109 
Q 647 4147 197 4147 
L 197 4372 
L 1422 4372 
Q 1453 4372 1466 4347 
L 3731 1013 
L 3731 3769 
Q 3731 4147 3072 4147 
L 3072 4372 
L 4594 4372 
L 4594 4147 
Q 3938 4147 3938 3769 
L 3938 56 
Q 3938 38 3913 19 
Q 3888 0 3872 0 
L 3794 0 
Q 3763 0 3750 25 
L 1063 3981 
L 1063 603 
Q 1063 225 1722 225 
L 1722 0 
L 197 0 
z
" transform="scale(0.015625)"/>
        <path id="Cmr10-2d" d="M 72 1184 
L 72 1581 
L 1766 1581 
L 1766 1184 
L 72 1184 
z
" transform="scale(0.015625)"/>
       </defs>
       <use xlink:href="#Cmr10-4e"/>
       <use xlink:href="#Cmr10-6f" x="75"/>
       <use xlink:href="#Cmr10-6e" x="125"/>
       <use xlink:href="#Cmr10-2d" x="180.517578"/>
       <use xlink:href="#Cmr10-44" x="213.818359"/>
       <use xlink:href="#Cmr10-6f" x="290.136719"/>
       <use xlink:href="#Cmr10-6d" x="340.136719"/>
       <use xlink:href="#Cmr10-69" x="423.4375"/>
       <use xlink:href="#Cmr10-6e" x="451.123047"/>
       <use xlink:href="#Cmr10-61" x="506.640625"/>
       <use xlink:href="#Cmr10-6e" x="556.640625"/>
       <use xlink:href="#Cmr10-74" x="612.158203"/>
      </g>
      <!-- Typing -->
      <g transform="translate(468.406206 410.761462) scale(0.16 -0.16)">
       <use xlink:href="#Cmr10-54"/>
       <use xlink:href="#Cmr10-79" x="72.216797"/>
       <use xlink:href="#Cmr10-70" x="124.902344"/>
       <use xlink:href="#Cmr10-69" x="180.419922"/>
       <use xlink:href="#Cmr10-6e" x="208.105469"/>
       <use xlink:href="#Cmr10-67" x="263.623047"/>
      </g>
     </g>
    </g>
    <g id="xtick_5"/>
    <g id="xtick_6"/>
    <g id="xtick_7"/>
    <g id="xtick_8"/>
    <g id="xtick_9"/>
    <g id="xtick_10"/>
    <g id="xtick_11"/>
    <g id="xtick_12"/>
    <g id="xtick_13"/>
    <g id="xtick_14"/>
    <g id="xtick_15"/>
    <g id="xtick_16"/>
    <g id="xtick_17"/>
    <g id="xtick_18"/>
    <g id="xtick_19"/>
    <g id="xtick_20"/>
   </g>
   <g id="matplotlib.axis_2">
    <g id="ytick_1">
     <g id="line2d_9">
      <path d="M 43.1 361.462774 
L 557.838522 361.462774 
" clip-path="url(#p44ab5a6e86)" style="fill: none; stroke-dasharray: 3.7,1.6; stroke-dashoffset: 0; stroke: #000000; stroke-opacity: 0.5"/>
     </g>
     <g id="line2d_10">
      <defs>
       <path id="m93033b85ab" d="M 0 0 
L 6 0 
" style="stroke: #000000"/>
      </defs>
      <g>
       <use xlink:href="#m93033b85ab" x="43.1" y="361.462774" style="stroke: #000000"/>
      </g>
     </g>
     <g id="line2d_11">
      <defs>
       <path id="m6139170452" d="M 0 0 
L -6 0 
" style="stroke: #000000"/>
      </defs>
      <g>
       <use xlink:href="#m6139170452" x="557.838522" y="361.462774" style="stroke: #000000"/>
      </g>
     </g>
     <g id="text_5">
      <!-- $\mathdefault{0}$ -->
      <g transform="translate(31.6 367.014024) scale(0.16 -0.16)">
       <defs>
        <path id="Cmr10-30" d="M 1600 -141 
Q 816 -141 533 504 
Q 250 1150 250 2041 
Q 250 2597 351 3087 
Q 453 3578 754 3920 
Q 1056 4263 1600 4263 
Q 2022 4263 2290 4056 
Q 2559 3850 2700 3523 
Q 2841 3197 2892 2823 
Q 2944 2450 2944 2041 
Q 2944 1491 2842 1011 
Q 2741 531 2444 195 
Q 2147 -141 1600 -141 
z
M 1600 25 
Q 1956 25 2131 390 
Q 2306 756 2347 1200 
Q 2388 1644 2388 2144 
Q 2388 2625 2347 3031 
Q 2306 3438 2132 3767 
Q 1959 4097 1600 4097 
Q 1238 4097 1063 3765 
Q 888 3434 847 3029 
Q 806 2625 806 2144 
Q 806 1788 823 1472 
Q 841 1156 916 820 
Q 991 484 1158 254 
Q 1325 25 1600 25 
z
" transform="scale(0.015625)"/>
       </defs>
       <use xlink:href="#Cmr10-30" transform="translate(0 0.390625)"/>
      </g>
     </g>
    </g>
    <g id="ytick_2">
     <g id="line2d_12">
      <path d="M 43.1 313.414152 
L 557.838522 313.414152 
" clip-path="url(#p44ab5a6e86)" style="fill: none; stroke-dasharray: 3.7,1.6; stroke-dashoffset: 0; stroke: #000000; stroke-opacity: 0.5"/>
     </g>
     <g id="line2d_13">
      <g>
       <use xlink:href="#m93033b85ab" x="43.1" y="313.414152" style="stroke: #000000"/>
      </g>
     </g>
     <g id="line2d_14">
      <g>
       <use xlink:href="#m6139170452" x="557.838522" y="313.414152" style="stroke: #000000"/>
      </g>
     </g>
     <g id="text_6">
      <!-- $\mathdefault{2}$ -->
      <g transform="translate(31.6 318.965402) scale(0.16 -0.16)">
       <defs>
        <path id="Cmr10-32" d="M 319 0 
L 319 172 
Q 319 188 331 206 
L 1325 1306 
Q 1550 1550 1690 1715 
Q 1831 1881 1968 2097 
Q 2106 2313 2186 2536 
Q 2266 2759 2266 3009 
Q 2266 3272 2169 3511 
Q 2072 3750 1880 3894 
Q 1688 4038 1416 4038 
Q 1138 4038 916 3870 
Q 694 3703 603 3438 
Q 628 3444 672 3444 
Q 816 3444 917 3347 
Q 1019 3250 1019 3097 
Q 1019 2950 917 2848 
Q 816 2747 672 2747 
Q 522 2747 420 2851 
Q 319 2956 319 3097 
Q 319 3338 409 3548 
Q 500 3759 670 3923 
Q 841 4088 1055 4175 
Q 1269 4263 1509 4263 
Q 1875 4263 2190 4108 
Q 2506 3953 2690 3670 
Q 2875 3388 2875 3009 
Q 2875 2731 2753 2481 
Q 2631 2231 2440 2026 
Q 2250 1822 1953 1562 
Q 1656 1303 1563 1216 
L 838 519 
L 1453 519 
Q 1906 519 2211 526 
Q 2516 534 2534 550 
Q 2609 631 2688 1141 
L 2875 1141 
L 2694 0 
L 319 0 
z
" transform="scale(0.015625)"/>
       </defs>
       <use xlink:href="#Cmr10-32" transform="translate(0 0.390625)"/>
      </g>
     </g>
    </g>
    <g id="ytick_3">
     <g id="line2d_15">
      <path d="M 43.1 265.36553 
L 557.838522 265.36553 
" clip-path="url(#p44ab5a6e86)" style="fill: none; stroke-dasharray: 3.7,1.6; stroke-dashoffset: 0; stroke: #000000; stroke-opacity: 0.5"/>
     </g>
     <g id="line2d_16">
      <g>
       <use xlink:href="#m93033b85ab" x="43.1" y="265.36553" style="stroke: #000000"/>
      </g>
     </g>
     <g id="line2d_17">
      <g>
       <use xlink:href="#m6139170452" x="557.838522" y="265.36553" style="stroke: #000000"/>
      </g>
     </g>
     <g id="text_7">
      <!-- $\mathdefault{4}$ -->
      <g transform="translate(31.6 270.91678) scale(0.16 -0.16)">
       <defs>
        <path id="Cmr10-34" d="M 178 1056 
L 178 1281 
L 2156 4231 
Q 2178 4263 2222 4263 
L 2316 4263 
Q 2388 4263 2388 4191 
L 2388 1281 
L 3016 1281 
L 3016 1056 
L 2388 1056 
L 2388 428 
Q 2388 297 2575 261 
Q 2763 225 3009 225 
L 3009 0 
L 1247 0 
L 1247 225 
Q 1494 225 1681 261 
Q 1869 297 1869 428 
L 1869 1056 
L 178 1056 
z
M 391 1281 
L 1906 1281 
L 1906 3547 
L 391 1281 
z
" transform="scale(0.015625)"/>
       </defs>
       <use xlink:href="#Cmr10-34" transform="translate(0 0.390625)"/>
      </g>
     </g>
    </g>
    <g id="ytick_4">
     <g id="line2d_18">
      <path d="M 43.1 217.316908 
L 557.838522 217.316908 
" clip-path="url(#p44ab5a6e86)" style="fill: none; stroke-dasharray: 3.7,1.6; stroke-dashoffset: 0; stroke: #000000; stroke-opacity: 0.5"/>
     </g>
     <g id="line2d_19">
      <g>
       <use xlink:href="#m93033b85ab" x="43.1" y="217.316908" style="stroke: #000000"/>
      </g>
     </g>
     <g id="line2d_20">
      <g>
       <use xlink:href="#m6139170452" x="557.838522" y="217.316908" style="stroke: #000000"/>
      </g>
     </g>
     <g id="text_8">
      <!-- $\mathdefault{6}$ -->
      <g transform="translate(31.6 222.868158) scale(0.16 -0.16)">
       <defs>
        <path id="Cmr10-36" d="M 1600 -141 
Q 1203 -141 937 70 
Q 672 281 526 617 
Q 381 953 325 1322 
Q 269 1691 269 2069 
Q 269 2575 466 3084 
Q 663 3594 1045 3928 
Q 1428 4263 1953 4263 
Q 2172 4263 2361 4180 
Q 2550 4097 2658 3936 
Q 2766 3775 2766 3547 
Q 2766 3416 2677 3327 
Q 2588 3238 2456 3238 
Q 2331 3238 2240 3328 
Q 2150 3419 2150 3547 
Q 2150 3672 2240 3762 
Q 2331 3853 2456 3853 
L 2491 3853 
Q 2409 3969 2261 4023 
Q 2113 4078 1953 4078 
Q 1759 4078 1595 3993 
Q 1431 3909 1300 3765 
Q 1169 3622 1081 3448 
Q 994 3275 945 3053 
Q 897 2831 884 2637 
Q 872 2444 872 2150 
Q 984 2413 1190 2580 
Q 1397 2747 1656 2747 
Q 1941 2747 2175 2631 
Q 2409 2516 2578 2311 
Q 2747 2106 2836 1843 
Q 2925 1581 2925 1313 
Q 2925 938 2758 598 
Q 2591 259 2287 59 
Q 1984 -141 1600 -141 
z
M 1600 63 
Q 1847 63 1997 175 
Q 2147 288 2217 473 
Q 2288 659 2305 848 
Q 2322 1038 2322 1313 
Q 2322 1675 2287 1931 
Q 2253 2188 2100 2383 
Q 1947 2578 1631 2578 
Q 1372 2578 1205 2403 
Q 1038 2228 961 1961 
Q 884 1694 884 1447 
Q 884 1363 891 1319 
Q 891 1309 889 1303 
Q 888 1297 884 1288 
Q 884 1013 940 731 
Q 997 450 1156 256 
Q 1316 63 1600 63 
z
" transform="scale(0.015625)"/>
       </defs>
       <use xlink:href="#Cmr10-36" transform="translate(0 0.390625)"/>
      </g>
     </g>
    </g>
    <g id="ytick_5">
     <g id="line2d_21">
      <path d="M 43.1 169.268286 
L 557.838522 169.268286 
" clip-path="url(#p44ab5a6e86)" style="fill: none; stroke-dasharray: 3.7,1.6; stroke-dashoffset: 0; stroke: #000000; stroke-opacity: 0.5"/>
     </g>
     <g id="line2d_22">
      <g>
       <use xlink:href="#m93033b85ab" x="43.1" y="169.268286" style="stroke: #000000"/>
      </g>
     </g>
     <g id="line2d_23">
      <g>
       <use xlink:href="#m6139170452" x="557.838522" y="169.268286" style="stroke: #000000"/>
      </g>
     </g>
     <g id="text_9">
      <!-- $\mathdefault{8}$ -->
      <g transform="translate(31.6 174.819536) scale(0.16 -0.16)">
       <defs>
        <path id="Cmr10-38" d="M 269 972 
Q 269 1356 522 1651 
Q 775 1947 1172 2144 
L 934 2297 
Q 716 2441 578 2680 
Q 441 2919 441 3181 
Q 441 3488 602 3734 
Q 763 3981 1030 4122 
Q 1297 4263 1600 4263 
Q 1884 4263 2148 4147 
Q 2413 4031 2583 3815 
Q 2753 3600 2753 3303 
Q 2753 3088 2651 2903 
Q 2550 2719 2373 2572 
Q 2197 2425 1997 2322 
L 2363 2088 
Q 2616 1922 2770 1653 
Q 2925 1384 2925 1088 
Q 2925 741 2739 456 
Q 2553 172 2247 15 
Q 1941 -141 1600 -141 
Q 1269 -141 961 -6 
Q 653 128 461 383 
Q 269 638 269 972 
z
M 616 972 
Q 616 719 755 509 
Q 894 300 1122 181 
Q 1350 63 1600 63 
Q 1972 63 2275 280 
Q 2578 497 2578 856 
Q 2578 978 2529 1098 
Q 2481 1219 2395 1317 
Q 2309 1416 2203 1478 
L 1344 2034 
Q 1144 1928 976 1765 
Q 809 1603 712 1400 
Q 616 1197 616 972 
z
M 1056 2925 
L 1831 2425 
Q 2100 2581 2272 2803 
Q 2444 3025 2444 3303 
Q 2444 3519 2323 3698 
Q 2203 3878 2009 3978 
Q 1816 4078 1594 4078 
Q 1400 4078 1203 4003 
Q 1006 3928 878 3779 
Q 750 3631 750 3431 
Q 750 3131 1056 2925 
z
" transform="scale(0.015625)"/>
       </defs>
       <use xlink:href="#Cmr10-38" transform="translate(0 0.390625)"/>
      </g>
     </g>
    </g>
    <g id="ytick_6">
     <g id="line2d_24">
      <path d="M 43.1 121.219665 
L 557.838522 121.219665 
" clip-path="url(#p44ab5a6e86)" style="fill: none; stroke-dasharray: 3.7,1.6; stroke-dashoffset: 0; stroke: #000000; stroke-opacity: 0.5"/>
     </g>
     <g id="line2d_25">
      <g>
       <use xlink:href="#m93033b85ab" x="43.1" y="121.219665" style="stroke: #000000"/>
      </g>
     </g>
     <g id="line2d_26">
      <g>
       <use xlink:href="#m6139170452" x="557.838522" y="121.219665" style="stroke: #000000"/>
      </g>
     </g>
     <g id="text_10">
      <!-- $\mathdefault{10}$ -->
      <g transform="translate(23.6 126.770915) scale(0.16 -0.16)">
       <defs>
        <path id="Cmr10-31" d="M 594 0 
L 594 225 
Q 1394 225 1394 428 
L 1394 3788 
Q 1063 3628 556 3628 
L 556 3853 
Q 1341 3853 1741 4263 
L 1831 4263 
Q 1853 4263 1873 4245 
Q 1894 4228 1894 4206 
L 1894 428 
Q 1894 225 2694 225 
L 2694 0 
L 594 0 
z
" transform="scale(0.015625)"/>
       </defs>
       <use xlink:href="#Cmr10-31" transform="translate(0 0.390625)"/>
       <use xlink:href="#Cmr10-30" transform="translate(50 0.390625)"/>
      </g>
     </g>
    </g>
    <g id="ytick_7">
     <g id="line2d_27">
      <path d="M 43.1 73.171043 
L 557.838522 73.171043 
" clip-path="url(#p44ab5a6e86)" style="fill: none; stroke-dasharray: 3.7,1.6; stroke-dashoffset: 0; stroke: #000000; stroke-opacity: 0.5"/>
     </g>
     <g id="line2d_28">
      <g>
       <use xlink:href="#m93033b85ab" x="43.1" y="73.171043" style="stroke: #000000"/>
      </g>
     </g>
     <g id="line2d_29">
      <g>
       <use xlink:href="#m6139170452" x="557.838522" y="73.171043" style="stroke: #000000"/>
      </g>
     </g>
     <g id="text_11">
      <!-- $\mathdefault{12}$ -->
      <g transform="translate(23.6 78.722293) scale(0.16 -0.16)">
       <use xlink:href="#Cmr10-31" transform="translate(0 0.390625)"/>
       <use xlink:href="#Cmr10-32" transform="translate(50 0.390625)"/>
      </g>
     </g>
    </g>
    <g id="ytick_8">
     <g id="line2d_30">
      <path d="M 43.1 25.122421 
L 557.838522 25.122421 
" clip-path="url(#p44ab5a6e86)" style="fill: none; stroke-dasharray: 3.7,1.6; stroke-dashoffset: 0; stroke: #000000; stroke-opacity: 0.5"/>
     </g>
     <g id="line2d_31">
      <g>
       <use xlink:href="#m93033b85ab" x="43.1" y="25.122421" style="stroke: #000000"/>
      </g>
     </g>
     <g id="line2d_32">
      <g>
       <use xlink:href="#m6139170452" x="557.838522" y="25.122421" style="stroke: #000000"/>
      </g>
     </g>
     <g id="text_12">
      <!-- $\mathdefault{14}$ -->
      <g transform="translate(23.6 30.673671) scale(0.16 -0.16)">
       <use xlink:href="#Cmr10-31" transform="translate(0 0.390625)"/>
       <use xlink:href="#Cmr10-34" transform="translate(50 0.390625)"/>
      </g>
     </g>
    </g>
    <g id="ytick_9"/>
    <g id="ytick_10"/>
    <g id="ytick_11"/>
    <g id="ytick_12"/>
    <g id="ytick_13"/>
    <g id="ytick_14"/>
    <g id="ytick_15"/>
    <g id="ytick_16"/>
    <g id="ytick_17"/>
    <g id="ytick_18"/>
    <g id="ytick_19"/>
    <g id="ytick_20"/>
    <g id="ytick_21"/>
    <g id="ytick_22"/>
    <g id="ytick_23"/>
    <g id="ytick_24"/>
    <g id="ytick_25"/>
    <g id="ytick_26"/>
    <g id="ytick_27"/>
    <g id="ytick_28"/>
    <g id="ytick_29"/>
    <g id="ytick_30"/>
    <g id="text_13">
     <!-- Time to Select a Letter (in s) -->
     <g transform="translate(15.6 303.477981) rotate(-90) scale(0.16 -0.16)">
      <defs>
       <path id="Cmr10-20" transform="scale(0.015625)"/>
       <path id="Cmr10-53" d="M 359 -91 
L 359 1403 
Q 359 1453 416 1453 
L 494 1453 
Q 513 1453 528 1437 
Q 544 1422 544 1403 
Q 544 775 933 429 
Q 1322 84 1953 84 
Q 2175 84 2362 212 
Q 2550 341 2654 548 
Q 2759 756 2759 978 
Q 2759 1172 2681 1355 
Q 2603 1538 2456 1672 
Q 2309 1806 2125 1850 
L 1294 2053 
Q 881 2163 620 2502 
Q 359 2841 359 3263 
Q 359 3594 528 3884 
Q 697 4175 983 4344 
Q 1269 4513 1600 4513 
Q 2241 4513 2619 4078 
L 2881 4494 
Q 2900 4513 2925 4513 
L 2969 4513 
Q 2988 4513 3005 4498 
Q 3022 4484 3022 4459 
L 3022 2975 
Q 3022 2919 2969 2919 
L 2894 2919 
Q 2834 2919 2834 2975 
Q 2834 3138 2779 3331 
Q 2725 3525 2628 3703 
Q 2531 3881 2419 3994 
Q 2109 4306 1600 4306 
Q 1381 4306 1197 4195 
Q 1013 4084 903 3893 
Q 794 3703 794 3494 
Q 794 3219 964 2995 
Q 1134 2772 1409 2700 
L 2241 2497 
Q 2447 2447 2630 2317 
Q 2813 2188 2934 2016 
Q 3056 1844 3125 1633 
Q 3194 1422 3194 1197 
Q 3194 850 3034 542 
Q 2875 234 2586 46 
Q 2297 -141 1953 -141 
Q 1741 -141 1519 -94 
Q 1297 -47 1109 50 
Q 922 147 769 300 
L 500 -122 
Q 481 -141 453 -141 
L 416 -141 
Q 359 -141 359 -91 
z
" transform="scale(0.015625)"/>
       <path id="Cmr10-6c" d="M 197 0 
L 197 225 
Q 416 225 556 259 
Q 697 294 697 428 
L 697 3788 
Q 697 3959 645 4036 
Q 594 4113 497 4130 
Q 400 4147 197 4147 
L 197 4372 
L 1147 4441 
L 1147 428 
Q 1147 294 1287 259 
Q 1428 225 1644 225 
L 1644 0 
L 197 0 
z
" transform="scale(0.015625)"/>
       <path id="Cmr10-4c" d="M 197 0 
L 197 225 
Q 856 225 856 428 
L 856 3944 
Q 856 4147 197 4147 
L 197 4372 
L 2272 4372 
L 2272 4147 
Q 1453 4147 1453 3944 
L 1453 428 
Q 1453 291 1531 258 
Q 1609 225 1778 225 
L 2272 225 
Q 2750 225 3009 400 
Q 3269 575 3376 876 
Q 3484 1178 3541 1678 
L 3725 1678 
L 3547 0 
L 197 0 
z
" transform="scale(0.015625)"/>
       <path id="Cmr10-28" d="M 1984 -1588 
Q 1628 -1306 1370 -942 
Q 1113 -578 948 -165 
Q 784 247 703 697 
Q 622 1147 622 1600 
Q 622 2059 703 2509 
Q 784 2959 951 3375 
Q 1119 3791 1378 4153 
Q 1638 4516 1984 4788 
Q 1984 4800 2016 4800 
L 2075 4800 
Q 2094 4800 2109 4783 
Q 2125 4766 2125 4744 
Q 2125 4716 2113 4703 
Q 1800 4397 1592 4047 
Q 1384 3697 1257 3301 
Q 1131 2906 1075 2482 
Q 1019 2059 1019 1600 
Q 1019 -434 2106 -1491 
Q 2125 -1509 2125 -1544 
Q 2125 -1559 2108 -1579 
Q 2091 -1600 2075 -1600 
L 2016 -1600 
Q 1984 -1600 1984 -1588 
z
" transform="scale(0.015625)"/>
       <path id="Cmr10-73" d="M 213 -19 
L 213 1025 
Q 213 1075 269 1075 
L 347 1075 
Q 384 1075 397 1025 
Q 575 97 1259 97 
Q 1563 97 1767 234 
Q 1972 372 1972 659 
Q 1972 866 1812 1011 
Q 1653 1156 1434 1209 
L 1006 1294 
Q 791 1341 614 1437 
Q 438 1534 325 1695 
Q 213 1856 213 2069 
Q 213 2350 361 2529 
Q 509 2709 746 2789 
Q 984 2869 1259 2869 
Q 1588 2869 1831 2694 
L 2016 2853 
Q 2016 2869 2047 2869 
L 2094 2869 
Q 2113 2869 2128 2851 
Q 2144 2834 2144 2816 
L 2144 1978 
Q 2144 1919 2094 1919 
L 2016 1919 
Q 1959 1919 1959 1978 
Q 1959 2313 1773 2516 
Q 1588 2719 1253 2719 
Q 966 2719 755 2612 
Q 544 2506 544 2247 
Q 544 2069 695 1955 
Q 847 1841 1050 1791 
L 1484 1709 
Q 1703 1659 1892 1540 
Q 2081 1422 2192 1240 
Q 2303 1059 2303 831 
Q 2303 600 2223 429 
Q 2144 259 2001 146 
Q 1859 34 1665 -19 
Q 1472 -72 1259 -72 
Q 859 -72 575 197 
L 341 -56 
Q 341 -72 306 -72 
L 269 -72 
Q 213 -72 213 -19 
z
" transform="scale(0.015625)"/>
       <path id="Cmr10-29" d="M 416 -1600 
Q 359 -1600 359 -1544 
Q 359 -1516 372 -1503 
Q 1466 -434 1466 1600 
Q 1466 3634 384 4691 
Q 359 4706 359 4744 
Q 359 4766 376 4783 
Q 394 4800 416 4800 
L 475 4800 
Q 494 4800 506 4788 
Q 966 4425 1272 3906 
Q 1578 3388 1720 2800 
Q 1863 2213 1863 1600 
Q 1863 1147 1786 708 
Q 1709 269 1542 -157 
Q 1375 -584 1119 -945 
Q 863 -1306 506 -1588 
Q 494 -1600 475 -1600 
L 416 -1600 
z
" transform="scale(0.015625)"/>
      </defs>
      <use xlink:href="#Cmr10-54"/>
      <use xlink:href="#Cmr10-69" x="72.216797"/>
      <use xlink:href="#Cmr10-6d" x="99.902344"/>
      <use xlink:href="#Cmr10-65" x="183.203125"/>
      <use xlink:href="#Cmr10-20" x="227.587891"/>
      <use xlink:href="#Cmr10-74" x="260.888672"/>
      <use xlink:href="#Cmr10-6f" x="299.707031"/>
      <use xlink:href="#Cmr10-20" x="349.707031"/>
      <use xlink:href="#Cmr10-53" x="383.007812"/>
      <use xlink:href="#Cmr10-65" x="438.525391"/>
      <use xlink:href="#Cmr10-6c" x="482.910156"/>
      <use xlink:href="#Cmr10-65" x="510.595703"/>
      <use xlink:href="#Cmr10-63" x="554.980469"/>
      <use xlink:href="#Cmr10-74" x="599.365234"/>
      <use xlink:href="#Cmr10-20" x="638.183594"/>
      <use xlink:href="#Cmr10-61" x="671.484375"/>
      <use xlink:href="#Cmr10-20" x="721.484375"/>
      <use xlink:href="#Cmr10-4c" x="754.785156"/>
      <use xlink:href="#Cmr10-65" x="817.285156"/>
      <use xlink:href="#Cmr10-74" x="861.669922"/>
      <use xlink:href="#Cmr10-74" x="900.488281"/>
      <use xlink:href="#Cmr10-65" x="939.306641"/>
      <use xlink:href="#Cmr10-72" x="983.691406"/>
      <use xlink:href="#Cmr10-20" x="1022.802734"/>
      <use xlink:href="#Cmr10-28" x="1056.103516"/>
      <use xlink:href="#Cmr10-69" x="1094.921875"/>
      <use xlink:href="#Cmr10-6e" x="1122.607422"/>
      <use xlink:href="#Cmr10-20" x="1178.125"/>
      <use xlink:href="#Cmr10-73" x="1211.425781"/>
      <use xlink:href="#Cmr10-29" x="1250.830078"/>
     </g>
    </g>
   </g>
   <g id="PolyCollection_1">
    <defs>
     <path id="m2cbf597894" d="M 107.484286 -68.332251 
L 107.400344 -68.332251 
L 107.382501 -71.485108 
L 107.358856 -74.637965 
L 107.328277 -77.790821 
L 107.289686 -80.943678 
L 107.242162 -84.096534 
L 107.185059 -87.249391 
L 107.11811 -90.402248 
L 107.041516 -93.555104 
L 106.955989 -96.707961 
L 106.862739 -99.860817 
L 106.763403 -103.013674 
L 106.6599 -106.166531 
L 106.554248 -109.319387 
L 106.448347 -112.472244 
L 106.343771 -115.6251 
L 106.241602 -118.777957 
L 106.142331 -121.930813 
L 106.045849 -125.08367 
L 105.951539 -128.236527 
L 105.858439 -131.389383 
L 105.765471 -134.54224 
L 105.671679 -137.695096 
L 105.576451 -140.847953 
L 105.479678 -144.00081 
L 105.381829 -147.153666 
L 105.283935 -150.306523 
L 105.187487 -153.459379 
L 105.094269 -156.612236 
L 105.006145 -159.765093 
L 104.924848 -162.917949 
L 104.851781 -166.070806 
L 104.787865 -169.223662 
L 104.733454 -172.376519 
L 104.688311 -175.529376 
L 104.65166 -178.682232 
L 104.622309 -181.835089 
L 104.598821 -184.987945 
L 104.579729 -188.140802 
L 104.563751 -191.293659 
L 104.550002 -194.446515 
L 104.538147 -197.599372 
L 104.528491 -200.752228 
L 104.521988 -203.905085 
L 104.520157 -207.057942 
L 104.524935 -210.210798 
L 104.538478 -213.363655 
L 104.562943 -216.516511 
L 104.600283 -219.669368 
L 104.652074 -222.822224 
L 104.71939 -225.975081 
L 104.802724 -229.127938 
L 104.901955 -232.280794 
L 105.016349 -235.433651 
L 105.144585 -238.586507 
L 105.2848 -241.739364 
L 105.434653 -244.892221 
L 105.59141 -248.045077 
L 105.752051 -251.197934 
L 105.913407 -254.35079 
L 106.072305 -257.503647 
L 106.225726 -260.656504 
L 106.370956 -263.80936 
L 106.505706 -266.962217 
L 106.628205 -270.115073 
L 106.737242 -273.26793 
L 106.832166 -276.420787 
L 106.912847 -279.573643 
L 106.97961 -282.7265 
L 107.033157 -285.879356 
L 107.074481 -289.032213 
L 107.104791 -292.18507 
L 107.12545 -295.337926 
L 107.137923 -298.490783 
L 107.143739 -301.643639 
L 107.14446 -304.796496 
L 107.141651 -307.949353 
L 107.136844 -311.102209 
L 107.131501 -314.255066 
L 107.126968 -317.407922 
L 107.124423 -320.560779 
L 107.124826 -323.713636 
L 107.128874 -326.866492 
L 107.136967 -330.019349 
L 107.149197 -333.172205 
L 107.165351 -336.325062 
L 107.184948 -339.477918 
L 107.207286 -342.630775 
L 107.231513 -345.783632 
L 107.256708 -348.936488 
L 107.281954 -352.089345 
L 107.306413 -355.242201 
L 107.329378 -358.395058 
L 107.350313 -361.547915 
L 107.368864 -364.700771 
L 107.38486 -367.853628 
L 107.39829 -371.006484 
L 107.409278 -374.159341 
L 107.41804 -377.312198 
L 107.424853 -380.465054 
L 107.459777 -380.465054 
L 107.459777 -380.465054 
L 107.46659 -377.312198 
L 107.475353 -374.159341 
L 107.48634 -371.006484 
L 107.499771 -367.853628 
L 107.515767 -364.700771 
L 107.534317 -361.547915 
L 107.555252 -358.395058 
L 107.578217 -355.242201 
L 107.602677 -352.089345 
L 107.627923 -348.936488 
L 107.653117 -345.783632 
L 107.677345 -342.630775 
L 107.699682 -339.477918 
L 107.719279 -336.325062 
L 107.735434 -333.172205 
L 107.747664 -330.019349 
L 107.755757 -326.866492 
L 107.759804 -323.713636 
L 107.760207 -320.560779 
L 107.757662 -317.407922 
L 107.753129 -314.255066 
L 107.747787 -311.102209 
L 107.74298 -307.949353 
L 107.74017 -304.796496 
L 107.740892 -301.643639 
L 107.746708 -298.490783 
L 107.75918 -295.337926 
L 107.779839 -292.18507 
L 107.810149 -289.032213 
L 107.851473 -285.879356 
L 107.90502 -282.7265 
L 107.971784 -279.573643 
L 108.052464 -276.420787 
L 108.147388 -273.26793 
L 108.256425 -270.115073 
L 108.378925 -266.962217 
L 108.513675 -263.80936 
L 108.658905 -260.656504 
L 108.812326 -257.503647 
L 108.971224 -254.35079 
L 109.132579 -251.197934 
L 109.293221 -248.045077 
L 109.449977 -244.892221 
L 109.59983 -241.739364 
L 109.740045 -238.586507 
L 109.868282 -235.433651 
L 109.982676 -232.280794 
L 110.081906 -229.127938 
L 110.16524 -225.975081 
L 110.232556 -222.822224 
L 110.284348 -219.669368 
L 110.321688 -216.516511 
L 110.346152 -213.363655 
L 110.359695 -210.210798 
L 110.364473 -207.057942 
L 110.362642 -203.905085 
L 110.356139 -200.752228 
L 110.346484 -197.599372 
L 110.334628 -194.446515 
L 110.320879 -191.293659 
L 110.304901 -188.140802 
L 110.285809 -184.987945 
L 110.262322 -181.835089 
L 110.232971 -178.682232 
L 110.19632 -175.529376 
L 110.151176 -172.376519 
L 110.096765 -169.223662 
L 110.03285 -166.070806 
L 109.959782 -162.917949 
L 109.878485 -159.765093 
L 109.790362 -156.612236 
L 109.697143 -153.459379 
L 109.600696 -150.306523 
L 109.502801 -147.153666 
L 109.404952 -144.00081 
L 109.308179 -140.847953 
L 109.212952 -137.695096 
L 109.11916 -134.54224 
L 109.026191 -131.389383 
L 108.933091 -128.236527 
L 108.838781 -125.08367 
L 108.7423 -121.930813 
L 108.643028 -118.777957 
L 108.540859 -115.6251 
L 108.436283 -112.472244 
L 108.330382 -109.319387 
L 108.22473 -106.166531 
L 108.121228 -103.013674 
L 108.021891 -99.860817 
L 107.928642 -96.707961 
L 107.843114 -93.555104 
L 107.76652 -90.402248 
L 107.699572 -87.249391 
L 107.642469 -84.096534 
L 107.594945 -80.943678 
L 107.556353 -77.790821 
L 107.525774 -74.637965 
L 107.502129 -71.485108 
L 107.484286 -68.332251 
z
" style="stroke: #353535; stroke-width: 0.8"/>
    </defs>
    <g clip-path="url(#p44ab5a6e86)">
     <use xlink:href="#m2cbf597894" x="0" y="417.658962" style="fill: #1f5c92; stroke: #353535; stroke-width: 0.8"/>
    </g>
   </g>
   <g id="PolyCollection_2">
    <defs>
     <path id="m69b5f90302" d="M 236.193481 -65.651547 
L 236.06041 -65.651547 
L 236.029026 -68.226349 
L 235.986576 -70.801152 
L 235.930792 -73.375955 
L 235.859518 -75.950758 
L 235.770893 -78.525561 
L 235.663533 -81.100363 
L 235.536671 -83.675166 
L 235.39025 -86.249969 
L 235.224936 -88.824772 
L 235.042071 -91.399575 
L 234.843568 -93.974377 
L 234.631768 -96.54918 
L 234.409283 -99.123983 
L 234.178835 -101.698786 
L 233.943117 -104.273589 
L 233.704667 -106.848391 
L 233.465772 -109.423194 
L 233.228423 -111.997997 
L 232.99432 -114.5728 
L 232.764961 -117.147603 
L 232.541812 -119.722405 
L 232.326556 -122.297208 
L 232.121365 -124.872011 
L 231.929157 -127.446814 
L 231.753729 -130.021617 
L 231.599715 -132.596419 
L 231.472312 -135.171222 
L 231.376783 -137.746025 
L 231.317797 -140.320828 
L 231.29873 -142.89563 
L 231.32107 -145.470433 
L 231.384083 -148.045236 
L 231.484812 -150.620039 
L 231.618449 -153.194842 
L 231.779001 -155.769644 
L 231.960101 -158.344447 
L 232.155794 -160.91925 
L 232.361103 -163.494053 
L 232.572288 -166.068856 
L 232.78675 -168.643658 
L 233.002665 -171.218461 
L 233.218488 -173.793264 
L 233.43248 -176.368067 
L 233.642431 -178.94287 
L 233.845638 -181.517672 
L 234.039147 -184.092475 
L 234.220168 -186.667278 
L 234.386528 -189.242081 
L 234.537037 -191.816884 
L 234.671642 -194.391686 
L 234.79135 -196.966489 
L 234.897939 -199.541292 
L 234.993555 -202.116095 
L 235.080299 -204.690898 
L 235.159903 -207.2657 
L 235.233561 -209.840503 
L 235.301925 -212.415306 
L 235.365221 -214.990109 
L 235.423435 -217.564912 
L 235.476482 -220.139714 
L 235.524345 -222.714517 
L 235.567128 -225.28932 
L 235.60506 -227.864123 
L 235.638478 -230.438926 
L 235.667802 -233.013728 
L 235.693541 -235.588531 
L 235.716307 -238.163334 
L 235.736842 -240.738137 
L 235.756011 -243.31294 
L 235.774746 -245.887742 
L 235.793948 -248.462545 
L 235.814348 -251.037348 
L 235.836361 -253.612151 
L 235.859983 -256.186954 
L 235.884754 -258.761756 
L 235.909804 -261.336559 
L 235.933986 -263.911362 
L 235.956066 -266.486165 
L 235.974934 -269.060968 
L 235.98979 -271.63577 
L 236.00029 -274.210573 
L 236.006594 -276.785376 
L 236.009347 -279.360179 
L 236.009576 -281.934982 
L 236.008527 -284.509784 
L 236.007485 -287.084587 
L 236.007593 -289.65939 
L 236.009704 -292.234193 
L 236.014293 -294.808995 
L 236.021431 -297.383798 
L 236.030825 -299.958601 
L 236.041902 -302.533404 
L 236.053935 -305.108207 
L 236.066157 -307.683009 
L 236.077879 -310.257812 
L 236.088558 -312.832615 
L 236.09784 -315.407418 
L 236.105561 -317.982221 
L 236.111721 -320.557023 
L 236.14217 -320.557023 
L 236.14217 -320.557023 
L 236.14833 -317.982221 
L 236.156051 -315.407418 
L 236.165333 -312.832615 
L 236.176012 -310.257812 
L 236.187734 -307.683009 
L 236.199957 -305.108207 
L 236.211989 -302.533404 
L 236.223066 -299.958601 
L 236.23246 -297.383798 
L 236.239598 -294.808995 
L 236.244188 -292.234193 
L 236.246298 -289.65939 
L 236.246406 -287.084587 
L 236.245364 -284.509784 
L 236.244315 -281.934982 
L 236.244544 -279.360179 
L 236.247298 -276.785376 
L 236.253602 -274.210573 
L 236.264101 -271.63577 
L 236.278958 -269.060968 
L 236.297825 -266.486165 
L 236.319905 -263.911362 
L 236.344088 -261.336559 
L 236.369137 -258.761756 
L 236.393908 -256.186954 
L 236.41753 -253.612151 
L 236.439543 -251.037348 
L 236.459943 -248.462545 
L 236.479146 -245.887742 
L 236.497881 -243.31294 
L 236.517049 -240.738137 
L 236.537585 -238.163334 
L 236.560351 -235.588531 
L 236.586089 -233.013728 
L 236.615413 -230.438926 
L 236.648831 -227.864123 
L 236.686764 -225.28932 
L 236.729546 -222.714517 
L 236.777409 -220.139714 
L 236.830457 -217.564912 
L 236.88867 -214.990109 
L 236.951967 -212.415306 
L 237.020331 -209.840503 
L 237.093988 -207.2657 
L 237.173592 -204.690898 
L 237.260336 -202.116095 
L 237.355953 -199.541292 
L 237.462542 -196.966489 
L 237.582249 -194.391686 
L 237.716854 -191.816884 
L 237.867363 -189.242081 
L 238.033723 -186.667278 
L 238.214744 -184.092475 
L 238.408253 -181.517672 
L 238.611461 -178.94287 
L 238.821411 -176.368067 
L 239.035403 -173.793264 
L 239.251226 -171.218461 
L 239.467142 -168.643658 
L 239.681603 -166.068856 
L 239.892788 -163.494053 
L 240.098097 -160.91925 
L 240.29379 -158.344447 
L 240.474891 -155.769644 
L 240.635442 -153.194842 
L 240.769079 -150.620039 
L 240.869808 -148.045236 
L 240.932821 -145.470433 
L 240.955162 -142.89563 
L 240.936094 -140.320828 
L 240.877108 -137.746025 
L 240.781579 -135.171222 
L 240.654177 -132.596419 
L 240.500162 -130.021617 
L 240.324734 -127.446814 
L 240.132526 -124.872011 
L 239.927336 -122.297208 
L 239.712079 -119.722405 
L 239.48893 -117.147603 
L 239.259571 -114.5728 
L 239.025468 -111.997997 
L 238.788119 -109.423194 
L 238.549224 -106.848391 
L 238.310774 -104.273589 
L 238.075056 -101.698786 
L 237.844608 -99.123983 
L 237.622123 -96.54918 
L 237.410323 -93.974377 
L 237.211821 -91.399575 
L 237.028956 -88.824772 
L 236.863641 -86.249969 
L 236.71722 -83.675166 
L 236.590358 -81.100363 
L 236.482998 -78.525561 
L 236.394374 -75.950758 
L 236.323099 -73.375955 
L 236.267316 -70.801152 
L 236.224865 -68.226349 
L 236.193481 -65.651547 
z
" style="stroke: #353535; stroke-width: 0.8"/>
    </defs>
    <g clip-path="url(#p44ab5a6e86)">
     <use xlink:href="#m69b5f90302" x="0" y="417.658962" style="fill: #17a24b; stroke: #353535; stroke-width: 0.8"/>
    </g>
   </g>
   <g id="PolyCollection_3">
    <defs>
     <path id="m4319322e71" d="M 365.331254 -57.180322 
L 364.291898 -57.180322 
L 364.055562 -57.445919 
L 363.732048 -57.711517 
L 363.298111 -57.977114 
L 362.727697 -58.242712 
L 361.992766 -58.508309 
L 361.064544 -58.773907 
L 359.915172 -59.039504 
L 358.519699 -59.305101 
L 356.858269 -59.570699 
L 354.918346 -59.836296 
L 352.696732 -60.101894 
L 350.20118 -60.367491 
L 347.451388 -60.633089 
L 344.479245 -60.898686 
L 341.328288 -61.164283 
L 338.052423 -61.429881 
L 334.714086 -61.695478 
L 331.382038 -61.961076 
L 328.129054 -62.226673 
L 325.029685 -62.492271 
L 322.158195 -62.757868 
L 319.586648 -63.023466 
L 317.383017 -63.289063 
L 315.609113 -63.55466 
L 314.318168 -63.820258 
L 313.551978 -64.085855 
L 313.337724 -64.351453 
L 313.684788 -64.61705 
L 314.582052 -64.882648 
L 315.996301 -65.148245 
L 317.872287 -65.413843 
L 320.134869 -65.67944 
L 322.693309 -65.945037 
L 325.447465 -66.210635 
L 328.295241 -66.476232 
L 331.140374 -66.74183 
L 333.899553 -67.007427 
L 336.507899 -67.273025 
L 338.922104 -67.538622 
L 341.120885 -67.804219 
L 343.102875 -68.069817 
L 344.882414 -68.335414 
L 346.484063 -68.601012 
L 347.936753 -68.866609 
L 349.268464 -69.132207 
L 350.502154 -69.397804 
L 351.653366 -69.663402 
L 352.729592 -69.928999 
L 353.731205 -70.194596 
L 354.653501 -70.460194 
L 355.489322 -70.725791 
L 356.231665 -70.991389 
L 356.875841 -71.256986 
L 357.420863 -71.522584 
L 357.869959 -71.788181 
L 358.230282 -72.053779 
L 358.512012 -72.319376 
L 358.727141 -72.584973 
L 358.888225 -72.850571 
L 359.007326 -73.116168 
L 359.095299 -73.381766 
L 359.161461 -73.647363 
L 359.213581 -73.912961 
L 359.258092 -74.178558 
L 359.300372 -74.444155 
L 359.344987 -74.709753 
L 359.395815 -74.97535 
L 359.456052 -75.240948 
L 359.528115 -75.506545 
L 359.613532 -75.772143 
L 359.712887 -76.03774 
L 359.82586 -76.303338 
L 359.951408 -76.568935 
L 360.088045 -76.834532 
L 360.234179 -77.10013 
L 360.388435 -77.365727 
L 360.549908 -77.631325 
L 360.718293 -77.896922 
L 360.893876 -78.16252 
L 361.077398 -78.428117 
L 361.269813 -78.693715 
L 361.471994 -78.959312 
L 361.68443 -79.224909 
L 361.906965 -79.490507 
L 362.138604 -79.756104 
L 362.377429 -80.021702 
L 362.620625 -80.287299 
L 362.864618 -80.552897 
L 363.105309 -80.818494 
L 363.338382 -81.084092 
L 363.559642 -81.349689 
L 363.765339 -81.615286 
L 363.952452 -81.880884 
L 364.118881 -82.146481 
L 364.263551 -82.412079 
L 364.386394 -82.677676 
L 364.488255 -82.943274 
L 364.57071 -83.208871 
L 364.635858 -83.474468 
L 364.987294 -83.474468 
L 364.987294 -83.474468 
L 365.052442 -83.208871 
L 365.134897 -82.943274 
L 365.236758 -82.677676 
L 365.359601 -82.412079 
L 365.504271 -82.146481 
L 365.6707 -81.880884 
L 365.857813 -81.615286 
L 366.06351 -81.349689 
L 366.28477 -81.084092 
L 366.517843 -80.818494 
L 366.758534 -80.552897 
L 367.002527 -80.287299 
L 367.245723 -80.021702 
L 367.484548 -79.756104 
L 367.716187 -79.490507 
L 367.938722 -79.224909 
L 368.151158 -78.959312 
L 368.353339 -78.693715 
L 368.545754 -78.428117 
L 368.729276 -78.16252 
L 368.904859 -77.896922 
L 369.073244 -77.631325 
L 369.234717 -77.365727 
L 369.388973 -77.10013 
L 369.535107 -76.834532 
L 369.671744 -76.568935 
L 369.797293 -76.303338 
L 369.910265 -76.03774 
L 370.00962 -75.772143 
L 370.095038 -75.506545 
L 370.1671 -75.240948 
L 370.227337 -74.97535 
L 370.278165 -74.709753 
L 370.32278 -74.444155 
L 370.36506 -74.178558 
L 370.409571 -73.912961 
L 370.461691 -73.647363 
L 370.527853 -73.381766 
L 370.615826 -73.116168 
L 370.734927 -72.850571 
L 370.896011 -72.584973 
L 371.11114 -72.319376 
L 371.39287 -72.053779 
L 371.753193 -71.788181 
L 372.202289 -71.522584 
L 372.747311 -71.256986 
L 373.391487 -70.991389 
L 374.13383 -70.725791 
L 374.969651 -70.460194 
L 375.891947 -70.194596 
L 376.89356 -69.928999 
L 377.969786 -69.663402 
L 379.120998 -69.397804 
L 380.354689 -69.132207 
L 381.686399 -68.866609 
L 383.139089 -68.601012 
L 384.740738 -68.335414 
L 386.520277 -68.069817 
L 388.502267 -67.804219 
L 390.701048 -67.538622 
L 393.115253 -67.273025 
L 395.723599 -67.007427 
L 398.482778 -66.74183 
L 401.327911 -66.476232 
L 404.175687 -66.210635 
L 406.929843 -65.945037 
L 409.488283 -65.67944 
L 411.750865 -65.413843 
L 413.626851 -65.148245 
L 415.0411 -64.882648 
L 415.938364 -64.61705 
L 416.285428 -64.351453 
L 416.071174 -64.085855 
L 415.304984 -63.820258 
L 414.014039 -63.55466 
L 412.240136 -63.289063 
L 410.036504 -63.023466 
L 407.464957 -62.757868 
L 404.593467 -62.492271 
L 401.494098 -62.226673 
L 398.241114 -61.961076 
L 394.909066 -61.695478 
L 391.570729 -61.429881 
L 388.294864 -61.164283 
L 385.143907 -60.898686 
L 382.171764 -60.633089 
L 379.421972 -60.367491 
L 376.926421 -60.101894 
L 374.704806 -59.836296 
L 372.764883 -59.570699 
L 371.103453 -59.305101 
L 369.70798 -59.039504 
L 368.558608 -58.773907 
L 367.630386 -58.508309 
L 366.895455 -58.242712 
L 366.325041 -57.977114 
L 365.891104 -57.711517 
L 365.56759 -57.445919 
L 365.331254 -57.180322 
z
" style="stroke: #353535; stroke-width: 0.8"/>
    </defs>
    <g clip-path="url(#p44ab5a6e86)">
     <use xlink:href="#m4319322e71" x="0" y="417.658962" style="fill: #df9020; stroke: #353535; stroke-width: 0.8"/>
    </g>
   </g>
   <g id="PolyCollection_4">
    <defs>
     <path id="mceeb18293b" d="M 493.82264 -54.236907 
L 493.169773 -54.236907 
L 492.997027 -54.790805 
L 492.749905 -55.344702 
L 492.404898 -55.8986 
L 491.934763 -56.452497 
L 491.309414 -57.006395 
L 490.497512 -57.560292 
L 489.468827 -58.11419 
L 488.197337 -58.668087 
L 486.664946 -59.221985 
L 484.865501 -59.775882 
L 482.808668 -60.32978 
L 480.523088 -60.883677 
L 478.058191 -61.437575 
L 475.484075 -61.991472 
L 472.889073 -62.54537 
L 470.374887 -63.099267 
L 468.04957 -63.653165 
L 466.019012 -64.207062 
L 464.377905 -64.76096 
L 463.201324 -65.314857 
L 462.53803 -65.868755 
L 462.406401 -66.422652 
L 462.793476 -66.97655 
L 463.657187 -67.530447 
L 464.931362 -68.084345 
L 466.532748 -68.638242 
L 468.369092 -69.19214 
L 470.347231 -69.746037 
L 472.380302 -70.299935 
L 474.393347 -70.853832 
L 476.326922 -71.40773 
L 478.138605 -71.961627 
L 479.80259 -72.515525 
L 481.307763 -73.069422 
L 482.654777 -73.62332 
L 483.852675 -74.177217 
L 484.915528 -74.731115 
L 485.859454 -75.285012 
L 486.700242 -75.83891 
L 487.451657 -76.392807 
L 488.124416 -76.946705 
L 488.725794 -77.500602 
L 489.259743 -78.0545 
L 489.727453 -78.608397 
L 490.12824 -79.162295 
L 490.460661 -79.716193 
L 490.723705 -80.27009 
L 490.917933 -80.823988 
L 491.046399 -81.377885 
L 491.115218 -81.931783 
L 491.1337 -82.48568 
L 491.113985 -83.039578 
L 491.070244 -83.593475 
L 491.017519 -84.147373 
L 490.970387 -84.70127 
L 490.94163 -85.255168 
L 490.941105 -85.809065 
L 490.975001 -86.362963 
L 491.045547 -86.91686 
L 491.151217 -87.470758 
L 491.287332 -88.024655 
L 491.446931 -88.578553 
L 491.621744 -89.13245 
L 491.803103 -89.686348 
L 491.982684 -90.240245 
L 492.153045 -90.794143 
L 492.307961 -91.34804 
L 492.442617 -91.901938 
L 492.553718 -92.455835 
L 492.639554 -93.009733 
L 492.700019 -93.56363 
L 492.736557 -94.117528 
L 492.752002 -94.671425 
L 492.750282 -95.225323 
L 492.735989 -95.77922 
L 492.713879 -96.333118 
L 492.68837 -96.887015 
L 492.663149 -97.440913 
L 492.640952 -97.99481 
L 492.623562 -98.548708 
L 492.612007 -99.102605 
L 492.606869 -99.656503 
L 492.608616 -100.2104 
L 492.617843 -100.764298 
L 492.635344 -101.318195 
L 492.662016 -101.872093 
L 492.698599 -102.42599 
L 492.745374 -102.979888 
L 492.801891 -103.533785 
L 492.866822 -104.087683 
L 492.937993 -104.64158 
L 493.012589 -105.195478 
L 493.087484 -105.749375 
L 493.159619 -106.303273 
L 493.226356 -106.85717 
L 493.285732 -107.411068 
L 493.336587 -107.964965 
L 493.378554 -108.518863 
L 493.41195 -109.07276 
L 493.580463 -109.07276 
L 493.580463 -109.07276 
L 493.613859 -108.518863 
L 493.655826 -107.964965 
L 493.706681 -107.411068 
L 493.766057 -106.85717 
L 493.832794 -106.303273 
L 493.904929 -105.749375 
L 493.979824 -105.195478 
L 494.05442 -104.64158 
L 494.125591 -104.087683 
L 494.190522 -103.533785 
L 494.247038 -102.979888 
L 494.293814 -102.42599 
L 494.330397 -101.872093 
L 494.357068 -101.318195 
L 494.37457 -100.764298 
L 494.383797 -100.2104 
L 494.385544 -99.656503 
L 494.380406 -99.102605 
L 494.368851 -98.548708 
L 494.351461 -97.99481 
L 494.329264 -97.440913 
L 494.304043 -96.887015 
L 494.278534 -96.333118 
L 494.256424 -95.77922 
L 494.242131 -95.225323 
L 494.240411 -94.671425 
L 494.255856 -94.117528 
L 494.292394 -93.56363 
L 494.352859 -93.009733 
L 494.438695 -92.455835 
L 494.549796 -91.901938 
L 494.684452 -91.34804 
L 494.839368 -90.794143 
L 495.009729 -90.240245 
L 495.18931 -89.686348 
L 495.370669 -89.13245 
L 495.545482 -88.578553 
L 495.705081 -88.024655 
L 495.841196 -87.470758 
L 495.946866 -86.91686 
L 496.017412 -86.362963 
L 496.051308 -85.809065 
L 496.050783 -85.255168 
L 496.022025 -84.70127 
L 495.974894 -84.147373 
L 495.922169 -83.593475 
L 495.878428 -83.039578 
L 495.858713 -82.48568 
L 495.877195 -81.931783 
L 495.946014 -81.377885 
L 496.07448 -80.823988 
L 496.268708 -80.27009 
L 496.531752 -79.716193 
L 496.864173 -79.162295 
L 497.26496 -78.608397 
L 497.73267 -78.0545 
L 498.266619 -77.500602 
L 498.867997 -76.946705 
L 499.540756 -76.392807 
L 500.292171 -75.83891 
L 501.132959 -75.285012 
L 502.076885 -74.731115 
L 503.139737 -74.177217 
L 504.337636 -73.62332 
L 505.68465 -73.069422 
L 507.189823 -72.515525 
L 508.853808 -71.961627 
L 510.665491 -71.40773 
L 512.599066 -70.853832 
L 514.612111 -70.299935 
L 516.645182 -69.746037 
L 518.623321 -69.19214 
L 520.459665 -68.638242 
L 522.061051 -68.084345 
L 523.335225 -67.530447 
L 524.198937 -66.97655 
L 524.586012 -66.422652 
L 524.454383 -65.868755 
L 523.791089 -65.314857 
L 522.614508 -64.76096 
L 520.973401 -64.207062 
L 518.942843 -63.653165 
L 516.617526 -63.099267 
L 514.10334 -62.54537 
L 511.508338 -61.991472 
L 508.934222 -61.437575 
L 506.469325 -60.883677 
L 504.183745 -60.32978 
L 502.126912 -59.775882 
L 500.327467 -59.221985 
L 498.795076 -58.668087 
L 497.523586 -58.11419 
L 496.494901 -57.560292 
L 495.682999 -57.006395 
L 495.05765 -56.452497 
L 494.587514 -55.8986 
L 494.242508 -55.344702 
L 493.995386 -54.790805 
L 493.82264 -54.236907 
z
" style="stroke: #353535; stroke-width: 0.8"/>
    </defs>
    <g clip-path="url(#p44ab5a6e86)">
     <use xlink:href="#mceeb18293b" x="0" y="417.658962" style="fill: #df4120; stroke: #353535; stroke-width: 0.8"/>
    </g>
   </g>
   <g id="PolyCollection_5">
    <g clip-path="url(#p44ab5a6e86)">
     <use xlink:href="#m2cbf597894" x="0" y="417.658962" style="fill: #1f5c92; stroke: #353535; stroke-width: 0.8"/>
    </g>
   </g>
   <g id="PolyCollection_6">
    <g clip-path="url(#p44ab5a6e86)">
     <use xlink:href="#m69b5f90302" x="0" y="417.658962" style="fill: #17a24b; stroke: #353535; stroke-width: 0.8"/>
    </g>
   </g>
   <g id="PolyCollection_7">
    <g clip-path="url(#p44ab5a6e86)">
     <use xlink:href="#m4319322e71" x="0" y="417.658962" style="fill: #df9020; stroke: #353535; stroke-width: 0.8"/>
    </g>
   </g>
   <g id="PolyCollection_8">
    <g clip-path="url(#p44ab5a6e86)">
     <use xlink:href="#mceeb18293b" x="0" y="417.658962" style="fill: #df4120; stroke: #353535; stroke-width: 0.8"/>
    </g>
   </g>
   <g id="line2d_33">
    <path d="M 107.442315 308.610587 
L 107.442315 94.865188 
" clip-path="url(#p44ab5a6e86)" style="fill: none; stroke: #353535; stroke-width: 0.8; stroke-linecap: square"/>
   </g>
   <g id="line2d_34">
    <path d="M 107.442315 256.354738 
L 107.442315 190.891115 
" clip-path="url(#p44ab5a6e86)" style="fill: none; stroke: #353535; stroke-width: 2.4; stroke-linecap: square"/>
   </g>
   <g id="line2d_35">
    <path d="M 236.126946 323.028177 
L 236.126946 186.15065 
" clip-path="url(#p44ab5a6e86)" style="fill: none; stroke: #353535; stroke-width: 0.8; stroke-linecap: square"/>
   </g>
   <g id="line2d_36">
    <path d="M 236.126946 291.800945 
L 236.126946 248.490374 
" clip-path="url(#p44ab5a6e86)" style="fill: none; stroke: #353535; stroke-width: 2.4; stroke-linecap: square"/>
   </g>
   <g id="line2d_37">
    <path d="M 364.811576 357.034829 
L 364.811576 345.464865 
" clip-path="url(#p44ab5a6e86)" style="fill: none; stroke: #353535; stroke-width: 0.8; stroke-linecap: square"/>
   </g>
   <g id="line2d_38">
    <path d="M 364.811576 354.305848 
L 364.811576 350.616218 
" clip-path="url(#p44ab5a6e86)" style="fill: none; stroke: #353535; stroke-width: 2.4; stroke-linecap: square"/>
   </g>
   <g id="line2d_39">
    <path d="M 493.496206 357.010589 
L 493.496206 341.372252 
" clip-path="url(#p44ab5a6e86)" style="fill: none; stroke: #353535; stroke-width: 0.8; stroke-linecap: square"/>
   </g>
   <g id="line2d_40">
    <path d="M 493.496206 352.722117 
L 493.496206 347.767794 
" clip-path="url(#p44ab5a6e86)" style="fill: none; stroke: #353535; stroke-width: 2.4; stroke-linecap: square"/>
   </g>
   <g id="line2d_41">
    <path d="M 107.442315 308.610587 
L 107.442315 94.865188 
" clip-path="url(#p44ab5a6e86)" style="fill: none; stroke: #353535; stroke-width: 0.8; stroke-linecap: square"/>
   </g>
   <g id="line2d_42">
    <path d="M 107.442315 256.354738 
L 107.442315 190.891115 
" clip-path="url(#p44ab5a6e86)" style="fill: none; stroke: #353535; stroke-width: 2.4; stroke-linecap: square"/>
   </g>
   <g id="line2d_43">
    <path d="M 236.126946 323.028177 
L 236.126946 186.15065 
" clip-path="url(#p44ab5a6e86)" style="fill: none; stroke: #353535; stroke-width: 0.8; stroke-linecap: square"/>
   </g>
   <g id="line2d_44">
    <path d="M 236.126946 291.800945 
L 236.126946 248.490374 
" clip-path="url(#p44ab5a6e86)" style="fill: none; stroke: #353535; stroke-width: 2.4; stroke-linecap: square"/>
   </g>
   <g id="line2d_45">
    <path d="M 364.811576 357.034829 
L 364.811576 345.464865 
" clip-path="url(#p44ab5a6e86)" style="fill: none; stroke: #353535; stroke-width: 0.8; stroke-linecap: square"/>
   </g>
   <g id="line2d_46">
    <path d="M 364.811576 354.305848 
L 364.811576 350.616218 
" clip-path="url(#p44ab5a6e86)" style="fill: none; stroke: #353535; stroke-width: 2.4; stroke-linecap: square"/>
   </g>
   <g id="line2d_47">
    <path d="M 493.496206 357.010589 
L 493.496206 341.372252 
" clip-path="url(#p44ab5a6e86)" style="fill: none; stroke: #353535; stroke-width: 0.8; stroke-linecap: square"/>
   </g>
   <g id="line2d_48">
    <path d="M 493.496206 352.722117 
L 493.496206 347.767794 
" clip-path="url(#p44ab5a6e86)" style="fill: none; stroke: #353535; stroke-width: 2.4; stroke-linecap: square"/>
   </g>
   <g id="patch_3">
    <path d="M 43.1 379.733462 
L 43.1 20.8825 
" style="fill: none; stroke: #000000; stroke-linejoin: miter; stroke-linecap: square"/>
   </g>
   <g id="patch_4">
    <path d="M 557.838522 379.733462 
L 557.838522 20.8825 
" style="fill: none; stroke: #000000; stroke-linejoin: miter; stroke-linecap: square"/>
   </g>
   <g id="patch_5">
    <path d="M 43.1 379.733462 
L 557.838522 379.733462 
" style="fill: none; stroke: #000000; stroke-linejoin: miter; stroke-linecap: square"/>
   </g>
   <g id="patch_6">
    <path d="M 43.1 20.8825 
L 557.838522 20.8825 
" style="fill: none; stroke: #000000; stroke-linejoin: miter; stroke-linecap: square"/>
   </g>
   <g id="PathCollection_1">
    <defs>
     <path id="m48fb51b93e" d="M 0 0.8 
C 0.212162 0.8 0.415664 0.715707 0.565685 0.565685 
C 0.715707 0.415664 0.8 0.212162 0.8 0 
C 0.8 -0.212162 0.715707 -0.415664 0.565685 -0.565685 
C 0.415664 -0.715707 0.212162 -0.8 0 -0.8 
C -0.212162 -0.8 -0.415664 -0.715707 -0.565685 -0.565685 
C -0.715707 -0.415664 -0.8 -0.212162 -0.8 0 
C -0.8 0.212162 -0.715707 0.415664 -0.565685 0.565685 
C -0.415664 0.715707 -0.212162 0.8 0 0.8 
z
" style="stroke: #353535"/>
    </defs>
    <g clip-path="url(#p44ab5a6e86)">
     <use xlink:href="#m48fb51b93e" x="107.442315" y="223.290373" style="fill: #ffffff; stroke: #353535"/>
    </g>
   </g>
   <g id="PathCollection_2">
    <g clip-path="url(#p44ab5a6e86)">
     <use xlink:href="#m48fb51b93e" x="236.126946" y="272.504619" style="fill: #ffffff; stroke: #353535"/>
    </g>
   </g>
   <g id="PathCollection_3">
    <g clip-path="url(#p44ab5a6e86)">
     <use xlink:href="#m48fb51b93e" x="364.811576" y="352.624098" style="fill: #ffffff; stroke: #353535"/>
    </g>
   </g>
   <g id="PathCollection_4">
    <g clip-path="url(#p44ab5a6e86)">
     <use xlink:href="#m48fb51b93e" x="493.496206" y="350.780809" style="fill: #ffffff; stroke: #353535"/>
    </g>
   </g>
   <g id="PathCollection_5">
    <g clip-path="url(#p44ab5a6e86)">
     <use xlink:href="#m48fb51b93e" x="107.442315" y="223.290373" style="fill: #ffffff; stroke: #353535"/>
    </g>
   </g>
   <g id="PathCollection_6">
    <g clip-path="url(#p44ab5a6e86)">
     <use xlink:href="#m48fb51b93e" x="236.126946" y="272.504619" style="fill: #ffffff; stroke: #353535"/>
    </g>
   </g>
   <g id="PathCollection_7">
    <g clip-path="url(#p44ab5a6e86)">
     <use xlink:href="#m48fb51b93e" x="364.811576" y="352.624098" style="fill: #ffffff; stroke: #353535"/>
    </g>
   </g>
   <g id="PathCollection_8">
    <g clip-path="url(#p44ab5a6e86)">
     <use xlink:href="#m48fb51b93e" x="493.496206" y="350.780809" style="fill: #ffffff; stroke: #353535"/>
    </g>
   </g>
   <g id="text_14">
    <!-- Sender Interface Comparison -->
    <g transform="translate(199.110511 14.8825) scale(0.16 -0.16)">
     <defs>
      <path id="Cmr10-43" d="M 1459 684 
Q 1678 406 2006 245 
Q 2334 84 2688 84 
Q 2984 84 3237 201 
Q 3491 319 3680 528 
Q 3869 738 3970 1003 
Q 4072 1269 4072 1563 
Q 4072 1613 4128 1613 
L 4206 1613 
Q 4256 1613 4256 1550 
Q 4256 1216 4128 905 
Q 4000 594 3765 358 
Q 3531 122 3226 -9 
Q 2922 -141 2591 -141 
Q 2131 -141 1720 45 
Q 1309 231 1004 554 
Q 700 878 529 1303 
Q 359 1728 359 2188 
Q 359 2647 529 3072 
Q 700 3497 1004 3822 
Q 1309 4147 1720 4330 
Q 2131 4513 2591 4513 
Q 2919 4513 3219 4370 
Q 3519 4228 3744 3969 
L 4116 4494 
Q 4153 4513 4159 4513 
L 4206 4513 
Q 4225 4513 4240 4497 
Q 4256 4481 4256 4459 
L 4256 2731 
Q 4256 2675 4206 2675 
L 4091 2675 
Q 4031 2675 4031 2731 
Q 4031 2916 3957 3144 
Q 3884 3372 3770 3576 
Q 3656 3781 3506 3938 
Q 3147 4288 2681 4288 
Q 2328 4288 2004 4128 
Q 1681 3969 1459 3688 
Q 1225 3388 1134 3005 
Q 1044 2622 1044 2188 
Q 1044 1753 1134 1368 
Q 1225 984 1459 684 
z
" transform="scale(0.015625)"/>
     </defs>
     <use xlink:href="#Cmr10-53"/>
     <use xlink:href="#Cmr10-65" x="55.517578"/>
     <use xlink:href="#Cmr10-6e" x="99.902344"/>
     <use xlink:href="#Cmr10-64" x="155.419922"/>
     <use xlink:href="#Cmr10-65" x="210.9375"/>
     <use xlink:href="#Cmr10-72" x="255.322266"/>
     <use xlink:href="#Cmr10-20" x="294.433594"/>
     <use xlink:href="#Cmr10-49" x="327.734375"/>
     <use xlink:href="#Cmr10-6e" x="363.818359"/>
     <use xlink:href="#Cmr10-74" x="419.335938"/>
     <use xlink:href="#Cmr10-65" x="458.154297"/>
     <use xlink:href="#Cmr10-72" x="502.539062"/>
     <use xlink:href="#Cmr10-66" x="541.650391"/>
     <use xlink:href="#Cmr10-61" x="572.167969"/>
     <use xlink:href="#Cmr10-63" x="622.167969"/>
     <use xlink:href="#Cmr10-65" x="666.552734"/>
     <use xlink:href="#Cmr10-20" x="710.9375"/>
     <use xlink:href="#Cmr10-43" x="744.238281"/>
     <use xlink:href="#Cmr10-6f" x="816.455078"/>
     <use xlink:href="#Cmr10-6d" x="866.455078"/>
     <use xlink:href="#Cmr10-70" x="949.755859"/>
     <use xlink:href="#Cmr10-61" x="1005.273438"/>
     <use xlink:href="#Cmr10-72" x="1055.273438"/>
     <use xlink:href="#Cmr10-69" x="1094.384766"/>
     <use xlink:href="#Cmr10-73" x="1122.070312"/>
     <use xlink:href="#Cmr10-6f" x="1161.474609"/>
     <use xlink:href="#Cmr10-6e" x="1211.474609"/>
    </g>
   </g>
  </g>
 </g>
 <defs>
  <clipPath id="p44ab5a6e86">
   <rect x="43.1" y="20.8825" width="514.738522" height="358.850962"/>
  </clipPath>
 </defs>
</svg>
