<?xml version="1.0" encoding="utf-8" standalone="no"?>
<!DOCTYPE svg PUBLIC "-//W3C//DTD SVG 1.1//EN"
  "http://www.w3.org/Graphics/SVG/1.1/DTD/svg11.dtd">
<svg xmlns:xlink="http://www.w3.org/1999/xlink" width="549.896406pt" height="412.432004pt" viewBox="0 0 549.896406 412.432004" xmlns="http://www.w3.org/2000/svg" version="1.1">
 <metadata>
  <rdf:RDF xmlns:dc="http://purl.org/dc/elements/1.1/" xmlns:cc="http://creativecommons.org/ns#" xmlns:rdf="http://www.w3.org/1999/02/22-rdf-syntax-ns#">
   <cc:Work>
    <dc:type rdf:resource="http://purl.org/dc/dcmitype/StillImage"/>
    <dc:date>2023-12-03T19:59:53.293611</dc:date>
    <dc:format>image/svg+xml</dc:format>
    <dc:creator>
     <cc:Agent>
      <dc:title>Matplotlib v3.7.1, https://matplotlib.org/</dc:title>
     </cc:Agent>
    </dc:creator>
   </cc:Work>
  </rdf:RDF>
 </metadata>
 <defs>
  <style type="text/css">*{stroke-linejoin: round; stroke-linecap: butt}</style>
 </defs>
 <g id="figure_1">
  <g id="patch_1">
   <path d="M 0 412.432004 
L 549.896406 412.432004 
L 549.896406 0 
L 0 0 
z
" style="fill: #ffffff"/>
  </g>
  <g id="axes_1">
   <g id="patch_2">
    <path d="M 41.305 300.595231 
L 546.296406 300.595231 
L 546.296406 20.7025 
L 41.305 20.7025 
z
" style="fill: #ffffff"/>
   </g>
   <g id="matplotlib.axis_1">
    <g id="xtick_1">
     <g id="line2d_1">
      <defs>
       <path id="m3a3d885f07" d="M 0 0 
L 0 -6 
" style="stroke: #000000"/>
      </defs>
      <g>
       <use xlink:href="#m3a3d885f07" x="64.259155" y="300.595231" style="stroke: #000000"/>
      </g>
     </g>
     <g id="line2d_2">
      <defs>
       <path id="m20568f3e7b" d="M 0 0 
L 0 6 
" style="stroke: #000000"/>
      </defs>
      <g>
       <use xlink:href="#m20568f3e7b" x="64.259155" y="20.7025" style="stroke: #000000"/>
      </g>
     </g>
     <g id="text_1">
      <!-- $\mathdefault{1}$ -->
      <g transform="translate(60.259155 315.197731) scale(0.16 -0.16)">
       <defs>
        <path id="Cmr10-31" d="M 594 0 
L 594 225 
Q 1394 225 1394 428 
L 1394 3788 
Q 1063 3628 556 3628 
L 556 3853 
Q 1341 3853 1741 4263 
L 1831 4263 
Q 1853 4263 1873 4245 
Q 1894 4228 1894 4206 
L 1894 428 
Q 1894 225 2694 225 
L 2694 0 
L 594 0 
z
" transform="scale(0.015625)"/>
       </defs>
       <use xlink:href="#Cmr10-31" transform="translate(0 0.390625)"/>
      </g>
     </g>
    </g>
    <g id="xtick_2">
     <g id="line2d_3">
      <g>
       <use xlink:href="#m3a3d885f07" x="88.421423" y="300.595231" style="stroke: #000000"/>
      </g>
     </g>
     <g id="line2d_4">
      <g>
       <use xlink:href="#m20568f3e7b" x="88.421423" y="20.7025" style="stroke: #000000"/>
      </g>
     </g>
     <g id="text_2">
      <!-- $\mathdefault{2}$ -->
      <g transform="translate(84.421423 315.197731) scale(0.16 -0.16)">
       <defs>
        <path id="Cmr10-32" d="M 319 0 
L 319 172 
Q 319 188 331 206 
L 1325 1306 
Q 1550 1550 1690 1715 
Q 1831 1881 1968 2097 
Q 2106 2313 2186 2536 
Q 2266 2759 2266 3009 
Q 2266 3272 2169 3511 
Q 2072 3750 1880 3894 
Q 1688 4038 1416 4038 
Q 1138 4038 916 3870 
Q 694 3703 603 3438 
Q 628 3444 672 3444 
Q 816 3444 917 3347 
Q 1019 3250 1019 3097 
Q 1019 2950 917 2848 
Q 816 2747 672 2747 
Q 522 2747 420 2851 
Q 319 2956 319 3097 
Q 319 3338 409 3548 
Q 500 3759 670 3923 
Q 841 4088 1055 4175 
Q 1269 4263 1509 4263 
Q 1875 4263 2190 4108 
Q 2506 3953 2690 3670 
Q 2875 3388 2875 3009 
Q 2875 2731 2753 2481 
Q 2631 2231 2440 2026 
Q 2250 1822 1953 1562 
Q 1656 1303 1563 1216 
L 838 519 
L 1453 519 
Q 1906 519 2211 526 
Q 2516 534 2534 550 
Q 2609 631 2688 1141 
L 2875 1141 
L 2694 0 
L 319 0 
z
" transform="scale(0.015625)"/>
       </defs>
       <use xlink:href="#Cmr10-32" transform="translate(0 0.390625)"/>
      </g>
     </g>
    </g>
    <g id="xtick_3">
     <g id="line2d_5">
      <g>
       <use xlink:href="#m3a3d885f07" x="112.583691" y="300.595231" style="stroke: #000000"/>
      </g>
     </g>
     <g id="line2d_6">
      <g>
       <use xlink:href="#m20568f3e7b" x="112.583691" y="20.7025" style="stroke: #000000"/>
      </g>
     </g>
     <g id="text_3">
      <!-- $\mathdefault{3}$ -->
      <g transform="translate(108.583691 315.197731) scale(0.16 -0.16)">
       <defs>
        <path id="Cmr10-33" d="M 609 494 
Q 759 275 1012 169 
Q 1266 63 1556 63 
Q 1928 63 2084 380 
Q 2241 697 2241 1100 
Q 2241 1281 2208 1462 
Q 2175 1644 2097 1800 
Q 2019 1956 1883 2050 
Q 1747 2144 1550 2144 
L 1125 2144 
Q 1069 2144 1069 2203 
L 1069 2259 
Q 1069 2309 1125 2309 
L 1478 2338 
Q 1703 2338 1851 2506 
Q 2000 2675 2069 2917 
Q 2138 3159 2138 3378 
Q 2138 3684 1994 3881 
Q 1850 4078 1556 4078 
Q 1313 4078 1091 3986 
Q 869 3894 738 3706 
Q 750 3709 759 3711 
Q 769 3713 781 3713 
Q 925 3713 1022 3613 
Q 1119 3513 1119 3372 
Q 1119 3234 1022 3134 
Q 925 3034 781 3034 
Q 641 3034 541 3134 
Q 441 3234 441 3372 
Q 441 3647 606 3850 
Q 772 4053 1033 4158 
Q 1294 4263 1556 4263 
Q 1750 4263 1965 4205 
Q 2181 4147 2356 4039 
Q 2531 3931 2642 3762 
Q 2753 3594 2753 3378 
Q 2753 3109 2633 2881 
Q 2513 2653 2303 2487 
Q 2094 2322 1844 2241 
Q 2122 2188 2372 2031 
Q 2622 1875 2773 1631 
Q 2925 1388 2925 1106 
Q 2925 753 2731 467 
Q 2538 181 2222 20 
Q 1906 -141 1556 -141 
Q 1256 -141 954 -26 
Q 653 88 461 316 
Q 269 544 269 863 
Q 269 1022 375 1128 
Q 481 1234 641 1234 
Q 744 1234 830 1186 
Q 916 1138 964 1050 
Q 1013 963 1013 863 
Q 1013 706 903 600 
Q 794 494 641 494 
L 609 494 
z
" transform="scale(0.015625)"/>
       </defs>
       <use xlink:href="#Cmr10-33" transform="translate(0 0.390625)"/>
      </g>
     </g>
    </g>
    <g id="xtick_4">
     <g id="line2d_7">
      <g>
       <use xlink:href="#m3a3d885f07" x="136.74596" y="300.595231" style="stroke: #000000"/>
      </g>
     </g>
     <g id="line2d_8">
      <g>
       <use xlink:href="#m20568f3e7b" x="136.74596" y="20.7025" style="stroke: #000000"/>
      </g>
     </g>
     <g id="text_4">
      <!-- $\mathdefault{4}$ -->
      <g transform="translate(132.74596 315.197731) scale(0.16 -0.16)">
       <defs>
        <path id="Cmr10-34" d="M 178 1056 
L 178 1281 
L 2156 4231 
Q 2178 4263 2222 4263 
L 2316 4263 
Q 2388 4263 2388 4191 
L 2388 1281 
L 3016 1281 
L 3016 1056 
L 2388 1056 
L 2388 428 
Q 2388 297 2575 261 
Q 2763 225 3009 225 
L 3009 0 
L 1247 0 
L 1247 225 
Q 1494 225 1681 261 
Q 1869 297 1869 428 
L 1869 1056 
L 178 1056 
z
M 391 1281 
L 1906 1281 
L 1906 3547 
L 391 1281 
z
" transform="scale(0.015625)"/>
       </defs>
       <use xlink:href="#Cmr10-34" transform="translate(0 0.390625)"/>
      </g>
     </g>
    </g>
    <g id="xtick_5">
     <g id="line2d_9">
      <g>
       <use xlink:href="#m3a3d885f07" x="160.908228" y="300.595231" style="stroke: #000000"/>
      </g>
     </g>
     <g id="line2d_10">
      <g>
       <use xlink:href="#m20568f3e7b" x="160.908228" y="20.7025" style="stroke: #000000"/>
      </g>
     </g>
     <g id="text_5">
      <!-- $\mathdefault{5}$ -->
      <g transform="translate(156.908228 315.197731) scale(0.16 -0.16)">
       <defs>
        <path id="Cmr10-35" d="M 556 728 
Q 622 541 758 387 
Q 894 234 1080 148 
Q 1266 63 1466 63 
Q 1928 63 2103 422 
Q 2278 781 2278 1294 
Q 2278 1516 2270 1667 
Q 2263 1819 2228 1959 
Q 2169 2184 2020 2353 
Q 1872 2522 1656 2522 
Q 1441 2522 1286 2456 
Q 1131 2391 1034 2303 
Q 938 2216 863 2119 
Q 788 2022 769 2016 
L 697 2016 
Q 681 2016 657 2036 
Q 634 2056 634 2075 
L 634 4213 
Q 634 4228 654 4245 
Q 675 4263 697 4263 
L 716 4263 
Q 1147 4056 1631 4056 
Q 2106 4056 2547 4263 
L 2566 4263 
Q 2588 4263 2606 4247 
Q 2625 4231 2625 4213 
L 2625 4153 
Q 2625 4122 2613 4122 
Q 2394 3831 2064 3668 
Q 1734 3506 1381 3506 
Q 1125 3506 856 3578 
L 856 2369 
Q 1069 2541 1236 2614 
Q 1403 2688 1663 2688 
Q 2016 2688 2295 2484 
Q 2575 2281 2725 1954 
Q 2875 1628 2875 1288 
Q 2875 903 2686 575 
Q 2497 247 2172 53 
Q 1847 -141 1466 -141 
Q 1150 -141 886 21 
Q 622 184 470 459 
Q 319 734 319 1044 
Q 319 1188 412 1278 
Q 506 1369 647 1369 
Q 788 1369 883 1276 
Q 978 1184 978 1044 
Q 978 906 883 811 
Q 788 716 647 716 
Q 625 716 597 720 
Q 569 725 556 728 
z
" transform="scale(0.015625)"/>
       </defs>
       <use xlink:href="#Cmr10-35" transform="translate(0 0.390625)"/>
      </g>
     </g>
    </g>
    <g id="xtick_6">
     <g id="line2d_11">
      <g>
       <use xlink:href="#m3a3d885f07" x="185.070496" y="300.595231" style="stroke: #000000"/>
      </g>
     </g>
     <g id="line2d_12">
      <g>
       <use xlink:href="#m20568f3e7b" x="185.070496" y="20.7025" style="stroke: #000000"/>
      </g>
     </g>
     <g id="text_6">
      <!-- $\mathdefault{6}$ -->
      <g transform="translate(181.070496 315.197731) scale(0.16 -0.16)">
       <defs>
        <path id="Cmr10-36" d="M 1600 -141 
Q 1203 -141 937 70 
Q 672 281 526 617 
Q 381 953 325 1322 
Q 269 1691 269 2069 
Q 269 2575 466 3084 
Q 663 3594 1045 3928 
Q 1428 4263 1953 4263 
Q 2172 4263 2361 4180 
Q 2550 4097 2658 3936 
Q 2766 3775 2766 3547 
Q 2766 3416 2677 3327 
Q 2588 3238 2456 3238 
Q 2331 3238 2240 3328 
Q 2150 3419 2150 3547 
Q 2150 3672 2240 3762 
Q 2331 3853 2456 3853 
L 2491 3853 
Q 2409 3969 2261 4023 
Q 2113 4078 1953 4078 
Q 1759 4078 1595 3993 
Q 1431 3909 1300 3765 
Q 1169 3622 1081 3448 
Q 994 3275 945 3053 
Q 897 2831 884 2637 
Q 872 2444 872 2150 
Q 984 2413 1190 2580 
Q 1397 2747 1656 2747 
Q 1941 2747 2175 2631 
Q 2409 2516 2578 2311 
Q 2747 2106 2836 1843 
Q 2925 1581 2925 1313 
Q 2925 938 2758 598 
Q 2591 259 2287 59 
Q 1984 -141 1600 -141 
z
M 1600 63 
Q 1847 63 1997 175 
Q 2147 288 2217 473 
Q 2288 659 2305 848 
Q 2322 1038 2322 1313 
Q 2322 1675 2287 1931 
Q 2253 2188 2100 2383 
Q 1947 2578 1631 2578 
Q 1372 2578 1205 2403 
Q 1038 2228 961 1961 
Q 884 1694 884 1447 
Q 884 1363 891 1319 
Q 891 1309 889 1303 
Q 888 1297 884 1288 
Q 884 1013 940 731 
Q 997 450 1156 256 
Q 1316 63 1600 63 
z
" transform="scale(0.015625)"/>
       </defs>
       <use xlink:href="#Cmr10-36" transform="translate(0 0.390625)"/>
      </g>
     </g>
    </g>
    <g id="xtick_7">
     <g id="line2d_13">
      <g>
       <use xlink:href="#m3a3d885f07" x="209.232764" y="300.595231" style="stroke: #000000"/>
      </g>
     </g>
     <g id="line2d_14">
      <g>
       <use xlink:href="#m20568f3e7b" x="209.232764" y="20.7025" style="stroke: #000000"/>
      </g>
     </g>
     <g id="text_7">
      <!-- $\mathdefault{7}$ -->
      <g transform="translate(205.232764 315.197731) scale(0.16 -0.16)">
       <defs>
        <path id="Cmr10-37" d="M 1113 166 
Q 1113 522 1175 862 
Q 1238 1203 1358 1536 
Q 1478 1869 1648 2189 
Q 1819 2509 2022 2791 
L 2606 3603 
L 1875 3603 
Q 738 3603 703 3572 
Q 619 3469 544 2981 
L 359 2981 
L 569 4325 
L 756 4325 
L 756 4306 
Q 756 4191 1147 4156 
Q 1538 4122 1913 4122 
L 3103 4122 
L 3103 3956 
Q 3103 3950 3101 3947 
Q 3100 3944 3097 3938 
L 2216 2700 
Q 1891 2219 1809 1631 
Q 1728 1044 1728 166 
Q 1728 41 1637 -50 
Q 1547 -141 1422 -141 
Q 1294 -141 1203 -50 
Q 1113 41 1113 166 
z
" transform="scale(0.015625)"/>
       </defs>
       <use xlink:href="#Cmr10-37" transform="translate(0 0.421875)"/>
      </g>
     </g>
    </g>
    <g id="xtick_8">
     <g id="line2d_15">
      <g>
       <use xlink:href="#m3a3d885f07" x="233.395033" y="300.595231" style="stroke: #000000"/>
      </g>
     </g>
     <g id="line2d_16">
      <g>
       <use xlink:href="#m20568f3e7b" x="233.395033" y="20.7025" style="stroke: #000000"/>
      </g>
     </g>
     <g id="text_8">
      <!-- $\mathdefault{8}$ -->
      <g transform="translate(229.395033 315.197731) scale(0.16 -0.16)">
       <defs>
        <path id="Cmr10-38" d="M 269 972 
Q 269 1356 522 1651 
Q 775 1947 1172 2144 
L 934 2297 
Q 716 2441 578 2680 
Q 441 2919 441 3181 
Q 441 3488 602 3734 
Q 763 3981 1030 4122 
Q 1297 4263 1600 4263 
Q 1884 4263 2148 4147 
Q 2413 4031 2583 3815 
Q 2753 3600 2753 3303 
Q 2753 3088 2651 2903 
Q 2550 2719 2373 2572 
Q 2197 2425 1997 2322 
L 2363 2088 
Q 2616 1922 2770 1653 
Q 2925 1384 2925 1088 
Q 2925 741 2739 456 
Q 2553 172 2247 15 
Q 1941 -141 1600 -141 
Q 1269 -141 961 -6 
Q 653 128 461 383 
Q 269 638 269 972 
z
M 616 972 
Q 616 719 755 509 
Q 894 300 1122 181 
Q 1350 63 1600 63 
Q 1972 63 2275 280 
Q 2578 497 2578 856 
Q 2578 978 2529 1098 
Q 2481 1219 2395 1317 
Q 2309 1416 2203 1478 
L 1344 2034 
Q 1144 1928 976 1765 
Q 809 1603 712 1400 
Q 616 1197 616 972 
z
M 1056 2925 
L 1831 2425 
Q 2100 2581 2272 2803 
Q 2444 3025 2444 3303 
Q 2444 3519 2323 3698 
Q 2203 3878 2009 3978 
Q 1816 4078 1594 4078 
Q 1400 4078 1203 4003 
Q 1006 3928 878 3779 
Q 750 3631 750 3431 
Q 750 3131 1056 2925 
z
" transform="scale(0.015625)"/>
       </defs>
       <use xlink:href="#Cmr10-38" transform="translate(0 0.390625)"/>
      </g>
     </g>
    </g>
    <g id="xtick_9">
     <g id="line2d_17">
      <g>
       <use xlink:href="#m3a3d885f07" x="257.557301" y="300.595231" style="stroke: #000000"/>
      </g>
     </g>
     <g id="line2d_18">
      <g>
       <use xlink:href="#m20568f3e7b" x="257.557301" y="20.7025" style="stroke: #000000"/>
      </g>
     </g>
     <g id="text_9">
      <!-- $\mathdefault{9}$ -->
      <g transform="translate(253.557301 315.197731) scale(0.16 -0.16)">
       <defs>
        <path id="Cmr10-39" d="M 722 269 
Q 897 63 1331 63 
Q 1575 63 1786 228 
Q 1997 394 2113 634 
Q 2247 906 2284 1214 
Q 2322 1522 2322 1978 
Q 2213 1719 2008 1553 
Q 1803 1388 1538 1388 
Q 1166 1388 873 1589 
Q 581 1791 425 2120 
Q 269 2450 269 2822 
Q 269 3206 444 3539 
Q 619 3872 928 4067 
Q 1238 4263 1631 4263 
Q 2019 4263 2280 4052 
Q 2541 3841 2678 3508 
Q 2816 3175 2870 2803 
Q 2925 2431 2925 2069 
Q 2925 1575 2744 1061 
Q 2563 547 2202 203 
Q 1841 -141 1331 -141 
Q 953 -141 690 37 
Q 428 216 428 575 
Q 428 706 517 795 
Q 606 884 738 884 
Q 866 884 955 795 
Q 1044 706 1044 575 
Q 1044 450 953 359 
Q 863 269 738 269 
L 722 269 
z
M 1563 1556 
Q 1825 1556 1992 1732 
Q 2159 1909 2234 2171 
Q 2309 2434 2309 2694 
L 2309 2816 
L 2309 2841 
Q 2309 3322 2168 3700 
Q 2028 4078 1631 4078 
Q 1378 4078 1220 3967 
Q 1063 3856 988 3672 
Q 913 3488 892 3278 
Q 872 3069 872 2822 
Q 872 2459 906 2203 
Q 941 1947 1094 1751 
Q 1247 1556 1563 1556 
z
" transform="scale(0.015625)"/>
       </defs>
       <use xlink:href="#Cmr10-39" transform="translate(0 0.390625)"/>
      </g>
     </g>
    </g>
    <g id="xtick_10">
     <g id="line2d_19">
      <g>
       <use xlink:href="#m3a3d885f07" x="281.719569" y="300.595231" style="stroke: #000000"/>
      </g>
     </g>
     <g id="line2d_20">
      <g>
       <use xlink:href="#m20568f3e7b" x="281.719569" y="20.7025" style="stroke: #000000"/>
      </g>
     </g>
     <g id="text_10">
      <!-- $\mathdefault{10}$ -->
      <g transform="translate(273.719569 315.197731) scale(0.16 -0.16)">
       <defs>
        <path id="Cmr10-30" d="M 1600 -141 
Q 816 -141 533 504 
Q 250 1150 250 2041 
Q 250 2597 351 3087 
Q 453 3578 754 3920 
Q 1056 4263 1600 4263 
Q 2022 4263 2290 4056 
Q 2559 3850 2700 3523 
Q 2841 3197 2892 2823 
Q 2944 2450 2944 2041 
Q 2944 1491 2842 1011 
Q 2741 531 2444 195 
Q 2147 -141 1600 -141 
z
M 1600 25 
Q 1956 25 2131 390 
Q 2306 756 2347 1200 
Q 2388 1644 2388 2144 
Q 2388 2625 2347 3031 
Q 2306 3438 2132 3767 
Q 1959 4097 1600 4097 
Q 1238 4097 1063 3765 
Q 888 3434 847 3029 
Q 806 2625 806 2144 
Q 806 1788 823 1472 
Q 841 1156 916 820 
Q 991 484 1158 254 
Q 1325 25 1600 25 
z
" transform="scale(0.015625)"/>
       </defs>
       <use xlink:href="#Cmr10-31" transform="translate(0 0.390625)"/>
       <use xlink:href="#Cmr10-30" transform="translate(50 0.390625)"/>
      </g>
     </g>
    </g>
    <g id="xtick_11">
     <g id="line2d_21">
      <g>
       <use xlink:href="#m3a3d885f07" x="305.881837" y="300.595231" style="stroke: #000000"/>
      </g>
     </g>
     <g id="line2d_22">
      <g>
       <use xlink:href="#m20568f3e7b" x="305.881837" y="20.7025" style="stroke: #000000"/>
      </g>
     </g>
     <g id="text_11">
      <!-- $\mathdefault{11}$ -->
      <g transform="translate(297.881837 315.197731) scale(0.16 -0.16)">
       <use xlink:href="#Cmr10-31" transform="translate(0 0.390625)"/>
       <use xlink:href="#Cmr10-31" transform="translate(50 0.390625)"/>
      </g>
     </g>
    </g>
    <g id="xtick_12">
     <g id="line2d_23">
      <g>
       <use xlink:href="#m3a3d885f07" x="330.044105" y="300.595231" style="stroke: #000000"/>
      </g>
     </g>
     <g id="line2d_24">
      <g>
       <use xlink:href="#m20568f3e7b" x="330.044105" y="20.7025" style="stroke: #000000"/>
      </g>
     </g>
     <g id="text_12">
      <!-- $\mathdefault{12}$ -->
      <g transform="translate(322.044105 315.197731) scale(0.16 -0.16)">
       <use xlink:href="#Cmr10-31" transform="translate(0 0.390625)"/>
       <use xlink:href="#Cmr10-32" transform="translate(50 0.390625)"/>
      </g>
     </g>
    </g>
    <g id="xtick_13">
     <g id="line2d_25">
      <g>
       <use xlink:href="#m3a3d885f07" x="354.206374" y="300.595231" style="stroke: #000000"/>
      </g>
     </g>
     <g id="line2d_26">
      <g>
       <use xlink:href="#m20568f3e7b" x="354.206374" y="20.7025" style="stroke: #000000"/>
      </g>
     </g>
     <g id="text_13">
      <!-- $\mathdefault{13}$ -->
      <g transform="translate(346.206374 315.197731) scale(0.16 -0.16)">
       <use xlink:href="#Cmr10-31" transform="translate(0 0.390625)"/>
       <use xlink:href="#Cmr10-33" transform="translate(50 0.390625)"/>
      </g>
     </g>
    </g>
    <g id="xtick_14">
     <g id="line2d_27">
      <g>
       <use xlink:href="#m3a3d885f07" x="378.368642" y="300.595231" style="stroke: #000000"/>
      </g>
     </g>
     <g id="line2d_28">
      <g>
       <use xlink:href="#m20568f3e7b" x="378.368642" y="20.7025" style="stroke: #000000"/>
      </g>
     </g>
     <g id="text_14">
      <!-- $\mathdefault{14}$ -->
      <g transform="translate(370.368642 315.197731) scale(0.16 -0.16)">
       <use xlink:href="#Cmr10-31" transform="translate(0 0.390625)"/>
       <use xlink:href="#Cmr10-34" transform="translate(50 0.390625)"/>
      </g>
     </g>
    </g>
    <g id="xtick_15">
     <g id="line2d_29">
      <g>
       <use xlink:href="#m3a3d885f07" x="402.53091" y="300.595231" style="stroke: #000000"/>
      </g>
     </g>
     <g id="line2d_30">
      <g>
       <use xlink:href="#m20568f3e7b" x="402.53091" y="20.7025" style="stroke: #000000"/>
      </g>
     </g>
     <g id="text_15">
      <!-- $\mathdefault{15}$ -->
      <g transform="translate(394.53091 315.197731) scale(0.16 -0.16)">
       <use xlink:href="#Cmr10-31" transform="translate(0 0.390625)"/>
       <use xlink:href="#Cmr10-35" transform="translate(50 0.390625)"/>
      </g>
     </g>
    </g>
    <g id="xtick_16">
     <g id="line2d_31">
      <g>
       <use xlink:href="#m3a3d885f07" x="426.693178" y="300.595231" style="stroke: #000000"/>
      </g>
     </g>
     <g id="line2d_32">
      <g>
       <use xlink:href="#m20568f3e7b" x="426.693178" y="20.7025" style="stroke: #000000"/>
      </g>
     </g>
     <g id="text_16">
      <!-- $\mathdefault{16}$ -->
      <g transform="translate(418.693178 315.197731) scale(0.16 -0.16)">
       <use xlink:href="#Cmr10-31" transform="translate(0 0.390625)"/>
       <use xlink:href="#Cmr10-36" transform="translate(50 0.390625)"/>
      </g>
     </g>
    </g>
    <g id="xtick_17">
     <g id="line2d_33">
      <g>
       <use xlink:href="#m3a3d885f07" x="450.855447" y="300.595231" style="stroke: #000000"/>
      </g>
     </g>
     <g id="line2d_34">
      <g>
       <use xlink:href="#m20568f3e7b" x="450.855447" y="20.7025" style="stroke: #000000"/>
      </g>
     </g>
     <g id="text_17">
      <!-- $\mathdefault{17}$ -->
      <g transform="translate(442.855447 315.197731) scale(0.16 -0.16)">
       <use xlink:href="#Cmr10-31" transform="translate(0 0.421875)"/>
       <use xlink:href="#Cmr10-37" transform="translate(50 0.421875)"/>
      </g>
     </g>
    </g>
    <g id="xtick_18">
     <g id="line2d_35">
      <g>
       <use xlink:href="#m3a3d885f07" x="475.017715" y="300.595231" style="stroke: #000000"/>
      </g>
     </g>
     <g id="line2d_36">
      <g>
       <use xlink:href="#m20568f3e7b" x="475.017715" y="20.7025" style="stroke: #000000"/>
      </g>
     </g>
     <g id="text_18">
      <!-- $\mathdefault{18}$ -->
      <g transform="translate(467.017715 315.197731) scale(0.16 -0.16)">
       <use xlink:href="#Cmr10-31" transform="translate(0 0.390625)"/>
       <use xlink:href="#Cmr10-38" transform="translate(50 0.390625)"/>
      </g>
     </g>
    </g>
    <g id="xtick_19">
     <g id="line2d_37">
      <g>
       <use xlink:href="#m3a3d885f07" x="499.179983" y="300.595231" style="stroke: #000000"/>
      </g>
     </g>
     <g id="line2d_38">
      <g>
       <use xlink:href="#m20568f3e7b" x="499.179983" y="20.7025" style="stroke: #000000"/>
      </g>
     </g>
     <g id="text_19">
      <!-- $\mathdefault{19}$ -->
      <g transform="translate(491.179983 315.197731) scale(0.16 -0.16)">
       <use xlink:href="#Cmr10-31" transform="translate(0 0.390625)"/>
       <use xlink:href="#Cmr10-39" transform="translate(50 0.390625)"/>
      </g>
     </g>
    </g>
    <g id="xtick_20">
     <g id="line2d_39">
      <g>
       <use xlink:href="#m3a3d885f07" x="523.342251" y="300.595231" style="stroke: #000000"/>
      </g>
     </g>
     <g id="line2d_40">
      <g>
       <use xlink:href="#m20568f3e7b" x="523.342251" y="20.7025" style="stroke: #000000"/>
      </g>
     </g>
     <g id="text_20">
      <!-- $\mathdefault{20}$ -->
      <g transform="translate(515.342251 315.197731) scale(0.16 -0.16)">
       <use xlink:href="#Cmr10-32" transform="translate(0 0.390625)"/>
       <use xlink:href="#Cmr10-30" transform="translate(50 0.390625)"/>
      </g>
     </g>
    </g>
    <g id="xtick_21"/>
    <g id="xtick_22"/>
    <g id="xtick_23"/>
    <g id="xtick_24"/>
    <g id="xtick_25"/>
    <g id="xtick_26"/>
    <g id="xtick_27"/>
    <g id="xtick_28"/>
    <g id="xtick_29"/>
    <g id="xtick_30"/>
    <g id="xtick_31"/>
    <g id="xtick_32"/>
    <g id="xtick_33"/>
    <g id="xtick_34"/>
    <g id="xtick_35"/>
    <g id="xtick_36"/>
    <g id="xtick_37"/>
    <g id="xtick_38"/>
    <g id="xtick_39"/>
    <g id="xtick_40"/>
    <g id="xtick_41"/>
    <g id="xtick_42"/>
    <g id="xtick_43"/>
    <g id="xtick_44"/>
    <g id="xtick_45"/>
    <g id="xtick_46"/>
    <g id="xtick_47"/>
    <g id="xtick_48"/>
    <g id="xtick_49"/>
    <g id="xtick_50"/>
    <g id="xtick_51"/>
    <g id="xtick_52"/>
    <g id="xtick_53"/>
    <g id="xtick_54"/>
    <g id="xtick_55"/>
    <g id="xtick_56"/>
    <g id="xtick_57"/>
    <g id="xtick_58"/>
    <g id="xtick_59"/>
    <g id="xtick_60"/>
    <g id="xtick_61"/>
    <g id="xtick_62"/>
    <g id="xtick_63"/>
    <g id="xtick_64"/>
    <g id="xtick_65"/>
    <g id="xtick_66"/>
    <g id="xtick_67"/>
    <g id="xtick_68"/>
    <g id="xtick_69"/>
    <g id="xtick_70"/>
    <g id="xtick_71"/>
    <g id="xtick_72"/>
    <g id="xtick_73"/>
    <g id="xtick_74"/>
    <g id="xtick_75"/>
    <g id="xtick_76"/>
    <g id="xtick_77"/>
    <g id="xtick_78"/>
    <g id="xtick_79"/>
    <g id="xtick_80"/>
    <g id="xtick_81"/>
    <g id="xtick_82"/>
    <g id="xtick_83"/>
    <g id="xtick_84"/>
    <g id="xtick_85"/>
    <g id="xtick_86"/>
    <g id="xtick_87"/>
    <g id="xtick_88"/>
    <g id="xtick_89"/>
    <g id="xtick_90"/>
    <g id="xtick_91"/>
    <g id="xtick_92"/>
    <g id="xtick_93"/>
    <g id="xtick_94"/>
    <g id="xtick_95"/>
    <g id="xtick_96"/>
    <g id="xtick_97"/>
    <g id="xtick_98"/>
    <g id="xtick_99"/>
    <g id="xtick_100"/>
    <g id="xtick_101"/>
    <g id="xtick_102"/>
    <g id="xtick_103"/>
    <g id="xtick_104"/>
    <g id="text_21">
     <!-- Trial -->
     <g transform="translate(276.464453 333.402731) scale(0.16 -0.16)">
      <defs>
       <path id="Cmr10-54" d="M 1081 0 
L 1081 225 
Q 1403 225 1706 261 
Q 2009 297 2009 428 
L 2009 3944 
Q 2009 4081 1932 4114 
Q 1856 4147 1684 4147 
L 1416 4147 
Q 888 4147 666 3916 
Q 550 3800 500 3545 
Q 450 3291 416 2906 
L 231 2906 
L 353 4372 
L 4263 4372 
L 4384 2906 
L 4197 2906 
Q 4159 3319 4114 3561 
Q 4069 3803 3950 3916 
Q 3725 4147 3200 4147 
L 2931 4147 
Q 2816 4147 2752 4137 
Q 2688 4128 2647 4083 
Q 2606 4038 2606 3944 
L 2606 428 
Q 2606 297 2909 261 
Q 3213 225 3531 225 
L 3531 0 
L 1081 0 
z
" transform="scale(0.015625)"/>
       <path id="Cmr10-72" d="M 166 0 
L 166 225 
Q 384 225 525 259 
Q 666 294 666 428 
L 666 2175 
Q 666 2347 614 2423 
Q 563 2500 466 2517 
Q 369 2534 166 2534 
L 166 2759 
L 1081 2828 
L 1081 2203 
Q 1184 2481 1375 2654 
Q 1566 2828 1838 2828 
Q 2028 2828 2178 2715 
Q 2328 2603 2328 2419 
Q 2328 2303 2245 2217 
Q 2163 2131 2041 2131 
Q 1922 2131 1837 2215 
Q 1753 2300 1753 2419 
Q 1753 2591 1875 2663 
L 1838 2663 
Q 1578 2663 1414 2475 
Q 1250 2288 1181 2009 
Q 1113 1731 1113 1478 
L 1113 428 
Q 1113 225 1734 225 
L 1734 0 
L 166 0 
z
" transform="scale(0.015625)"/>
       <path id="Cmr10-69" d="M 197 0 
L 197 225 
Q 416 225 556 259 
Q 697 294 697 428 
L 697 2175 
Q 697 2422 601 2478 
Q 506 2534 225 2534 
L 225 2759 
L 1147 2828 
L 1147 428 
Q 1147 294 1269 259 
Q 1391 225 1594 225 
L 1594 0 
L 197 0 
z
M 469 3928 
Q 469 4069 575 4175 
Q 681 4281 819 4281 
Q 909 4281 993 4234 
Q 1078 4188 1125 4103 
Q 1172 4019 1172 3928 
Q 1172 3791 1065 3684 
Q 959 3578 819 3578 
Q 681 3578 575 3684 
Q 469 3791 469 3928 
z
" transform="scale(0.015625)"/>
       <path id="Cmr10-61" d="M 256 628 
Q 256 1009 556 1248 
Q 856 1488 1276 1586 
Q 1697 1684 2075 1684 
L 2075 1947 
Q 2075 2131 1994 2304 
Q 1913 2478 1759 2589 
Q 1606 2700 1422 2700 
Q 997 2700 775 2509 
Q 897 2509 976 2417 
Q 1056 2325 1056 2203 
Q 1056 2075 965 1984 
Q 875 1894 750 1894 
Q 622 1894 531 1984 
Q 441 2075 441 2203 
Q 441 2541 747 2705 
Q 1053 2869 1422 2869 
Q 1681 2869 1943 2758 
Q 2206 2647 2373 2440 
Q 2541 2234 2541 1959 
L 2541 519 
Q 2541 394 2594 289 
Q 2647 184 2759 184 
Q 2866 184 2917 290 
Q 2969 397 2969 519 
L 2969 928 
L 3156 928 
L 3156 519 
Q 3156 375 3081 245 
Q 3006 116 2879 39 
Q 2753 -38 2606 -38 
Q 2419 -38 2283 107 
Q 2147 253 2131 453 
Q 2013 213 1781 70 
Q 1550 -72 1288 -72 
Q 1044 -72 808 0 
Q 572 72 414 226 
Q 256 381 256 628 
z
M 775 628 
Q 775 403 940 250 
Q 1106 97 1331 97 
Q 1538 97 1706 200 
Q 1875 303 1975 481 
Q 2075 659 2075 856 
L 2075 1522 
Q 1784 1522 1479 1426 
Q 1175 1331 975 1128 
Q 775 925 775 628 
z
" transform="scale(0.015625)"/>
       <path id="Cmr10-6c" d="M 197 0 
L 197 225 
Q 416 225 556 259 
Q 697 294 697 428 
L 697 3788 
Q 697 3959 645 4036 
Q 594 4113 497 4130 
Q 400 4147 197 4147 
L 197 4372 
L 1147 4441 
L 1147 428 
Q 1147 294 1287 259 
Q 1428 225 1644 225 
L 1644 0 
L 197 0 
z
" transform="scale(0.015625)"/>
      </defs>
      <use xlink:href="#Cmr10-54"/>
      <use xlink:href="#Cmr10-72" x="72.216797"/>
      <use xlink:href="#Cmr10-69" x="111.328125"/>
      <use xlink:href="#Cmr10-61" x="139.013672"/>
      <use xlink:href="#Cmr10-6c" x="189.013672"/>
     </g>
    </g>
   </g>
   <g id="matplotlib.axis_2">
    <g id="ytick_1">
     <g id="line2d_41">
      <defs>
       <path id="m1339bccf13" d="M 0 0 
L 6 0 
" style="stroke: #000000"/>
      </defs>
      <g>
       <use xlink:href="#m1339bccf13" x="41.305" y="287.056366" style="stroke: #000000"/>
      </g>
     </g>
     <g id="line2d_42">
      <defs>
       <path id="mbc951ebbaf" d="M 0 0 
L -6 0 
" style="stroke: #000000"/>
      </defs>
      <g>
       <use xlink:href="#mbc951ebbaf" x="546.296406" y="287.056366" style="stroke: #000000"/>
      </g>
     </g>
     <g id="text_22">
      <!-- $\mathdefault{6}$ -->
      <g transform="translate(29.805 292.607616) scale(0.16 -0.16)">
       <use xlink:href="#Cmr10-36" transform="translate(0 0.390625)"/>
      </g>
     </g>
    </g>
    <g id="ytick_2">
     <g id="line2d_43">
      <g>
       <use xlink:href="#m1339bccf13" x="41.305" y="248.058557" style="stroke: #000000"/>
      </g>
     </g>
     <g id="line2d_44">
      <g>
       <use xlink:href="#mbc951ebbaf" x="546.296406" y="248.058557" style="stroke: #000000"/>
      </g>
     </g>
     <g id="text_23">
      <!-- $\mathdefault{8}$ -->
      <g transform="translate(29.805 253.609807) scale(0.16 -0.16)">
       <use xlink:href="#Cmr10-38" transform="translate(0 0.390625)"/>
      </g>
     </g>
    </g>
    <g id="ytick_3">
     <g id="line2d_45">
      <g>
       <use xlink:href="#m1339bccf13" x="41.305" y="209.060748" style="stroke: #000000"/>
      </g>
     </g>
     <g id="line2d_46">
      <g>
       <use xlink:href="#mbc951ebbaf" x="546.296406" y="209.060748" style="stroke: #000000"/>
      </g>
     </g>
     <g id="text_24">
      <!-- $\mathdefault{10}$ -->
      <g transform="translate(21.805 214.611998) scale(0.16 -0.16)">
       <use xlink:href="#Cmr10-31" transform="translate(0 0.390625)"/>
       <use xlink:href="#Cmr10-30" transform="translate(50 0.390625)"/>
      </g>
     </g>
    </g>
    <g id="ytick_4">
     <g id="line2d_47">
      <g>
       <use xlink:href="#m1339bccf13" x="41.305" y="170.062939" style="stroke: #000000"/>
      </g>
     </g>
     <g id="line2d_48">
      <g>
       <use xlink:href="#mbc951ebbaf" x="546.296406" y="170.062939" style="stroke: #000000"/>
      </g>
     </g>
     <g id="text_25">
      <!-- $\mathdefault{12}$ -->
      <g transform="translate(21.805 175.614189) scale(0.16 -0.16)">
       <use xlink:href="#Cmr10-31" transform="translate(0 0.390625)"/>
       <use xlink:href="#Cmr10-32" transform="translate(50 0.390625)"/>
      </g>
     </g>
    </g>
    <g id="ytick_5">
     <g id="line2d_49">
      <g>
       <use xlink:href="#m1339bccf13" x="41.305" y="131.06513" style="stroke: #000000"/>
      </g>
     </g>
     <g id="line2d_50">
      <g>
       <use xlink:href="#mbc951ebbaf" x="546.296406" y="131.06513" style="stroke: #000000"/>
      </g>
     </g>
     <g id="text_26">
      <!-- $\mathdefault{14}$ -->
      <g transform="translate(21.805 136.61638) scale(0.16 -0.16)">
       <use xlink:href="#Cmr10-31" transform="translate(0 0.390625)"/>
       <use xlink:href="#Cmr10-34" transform="translate(50 0.390625)"/>
      </g>
     </g>
    </g>
    <g id="ytick_6">
     <g id="line2d_51">
      <g>
       <use xlink:href="#m1339bccf13" x="41.305" y="92.067321" style="stroke: #000000"/>
      </g>
     </g>
     <g id="line2d_52">
      <g>
       <use xlink:href="#mbc951ebbaf" x="546.296406" y="92.067321" style="stroke: #000000"/>
      </g>
     </g>
     <g id="text_27">
      <!-- $\mathdefault{16}$ -->
      <g transform="translate(21.805 97.618571) scale(0.16 -0.16)">
       <use xlink:href="#Cmr10-31" transform="translate(0 0.390625)"/>
       <use xlink:href="#Cmr10-36" transform="translate(50 0.390625)"/>
      </g>
     </g>
    </g>
    <g id="ytick_7">
     <g id="line2d_53">
      <g>
       <use xlink:href="#m1339bccf13" x="41.305" y="53.069511" style="stroke: #000000"/>
      </g>
     </g>
     <g id="line2d_54">
      <g>
       <use xlink:href="#mbc951ebbaf" x="546.296406" y="53.069511" style="stroke: #000000"/>
      </g>
     </g>
     <g id="text_28">
      <!-- $\mathdefault{18}$ -->
      <g transform="translate(21.805 58.620761) scale(0.16 -0.16)">
       <use xlink:href="#Cmr10-31" transform="translate(0 0.390625)"/>
       <use xlink:href="#Cmr10-38" transform="translate(50 0.390625)"/>
      </g>
     </g>
    </g>
    <g id="ytick_8"/>
    <g id="ytick_9"/>
    <g id="ytick_10"/>
    <g id="ytick_11"/>
    <g id="ytick_12"/>
    <g id="ytick_13"/>
    <g id="ytick_14"/>
    <g id="ytick_15"/>
    <g id="ytick_16"/>
    <g id="ytick_17"/>
    <g id="ytick_18"/>
    <g id="ytick_19"/>
    <g id="ytick_20"/>
    <g id="ytick_21"/>
    <g id="ytick_22"/>
    <g id="ytick_23"/>
    <g id="ytick_24"/>
    <g id="ytick_25"/>
    <g id="ytick_26"/>
    <g id="ytick_27"/>
    <g id="ytick_28"/>
    <g id="ytick_29"/>
    <g id="text_29">
     <!-- Number of Letters -->
     <g transform="translate(14.7025 225.237615) rotate(-90) scale(0.16 -0.16)">
      <defs>
       <path id="Cmr10-4e" d="M 197 0 
L 197 225 
Q 856 225 856 603 
L 856 4109 
Q 647 4147 197 4147 
L 197 4372 
L 1422 4372 
Q 1453 4372 1466 4347 
L 3731 1013 
L 3731 3769 
Q 3731 4147 3072 4147 
L 3072 4372 
L 4594 4372 
L 4594 4147 
Q 3938 4147 3938 3769 
L 3938 56 
Q 3938 38 3913 19 
Q 3888 0 3872 0 
L 3794 0 
Q 3763 0 3750 25 
L 1063 3981 
L 1063 603 
Q 1063 225 1722 225 
L 1722 0 
L 197 0 
z
" transform="scale(0.015625)"/>
       <path id="Cmr10-75" d="M 691 763 
L 691 2175 
Q 691 2347 639 2423 
Q 588 2500 491 2517 
Q 394 2534 191 2534 
L 191 2759 
L 1159 2828 
L 1159 763 
Q 1159 513 1195 373 
Q 1231 234 1348 165 
Q 1466 97 1722 97 
Q 2066 97 2269 384 
Q 2472 672 2472 1038 
L 2472 2175 
Q 2472 2347 2419 2423 
Q 2366 2500 2270 2517 
Q 2175 2534 1972 2534 
L 1972 2759 
L 2938 2828 
L 2938 581 
Q 2938 413 2989 336 
Q 3041 259 3137 242 
Q 3234 225 3438 225 
L 3438 0 
L 2491 -72 
L 2491 469 
Q 2372 228 2159 78 
Q 1947 -72 1691 -72 
Q 1231 -72 961 123 
Q 691 319 691 763 
z
" transform="scale(0.015625)"/>
       <path id="Cmr10-6d" d="M 191 0 
L 191 225 
Q 409 225 550 259 
Q 691 294 691 428 
L 691 2175 
Q 691 2347 639 2423 
Q 588 2500 491 2517 
Q 394 2534 191 2534 
L 191 2759 
L 1119 2828 
L 1119 2203 
Q 1247 2478 1498 2653 
Q 1750 2828 2047 2828 
Q 2784 2828 2913 2228 
Q 3041 2497 3287 2662 
Q 3534 2828 3828 2828 
Q 4119 2828 4317 2734 
Q 4516 2641 4616 2448 
Q 4716 2256 4716 1966 
L 4716 428 
Q 4716 294 4858 259 
Q 5000 225 5216 225 
L 5216 0 
L 3750 0 
L 3750 225 
Q 3969 225 4109 259 
Q 4250 294 4250 428 
L 4250 1947 
Q 4250 2269 4159 2466 
Q 4069 2663 3788 2663 
Q 3419 2663 3178 2366 
Q 2938 2069 2938 1691 
L 2938 428 
Q 2938 294 3078 259 
Q 3219 225 3438 225 
L 3438 0 
L 1972 0 
L 1972 225 
Q 2191 225 2331 259 
Q 2472 294 2472 428 
L 2472 1947 
Q 2472 2259 2381 2461 
Q 2291 2663 2009 2663 
Q 1638 2663 1398 2366 
Q 1159 2069 1159 1691 
L 1159 428 
Q 1159 294 1300 259 
Q 1441 225 1656 225 
L 1656 0 
L 191 0 
z
" transform="scale(0.015625)"/>
       <path id="Cmr10-62" d="M 666 0 
L 666 3788 
Q 666 3959 614 4036 
Q 563 4113 466 4130 
Q 369 4147 166 4147 
L 166 4372 
L 1113 4441 
L 1113 2438 
Q 1219 2556 1361 2645 
Q 1503 2734 1665 2781 
Q 1828 2828 1997 2828 
Q 2284 2828 2529 2712 
Q 2775 2597 2956 2394 
Q 3138 2191 3239 1927 
Q 3341 1663 3341 1381 
Q 3341 994 3152 659 
Q 2963 325 2636 126 
Q 2309 -72 1919 -72 
Q 1675 -72 1447 53 
Q 1219 178 1069 384 
L 850 0 
L 666 0 
z
M 1131 628 
Q 1238 394 1438 245 
Q 1638 97 1881 97 
Q 2213 97 2417 287 
Q 2622 478 2703 768 
Q 2784 1059 2784 1381 
Q 2784 1922 2644 2203 
Q 2581 2328 2473 2434 
Q 2366 2541 2233 2602 
Q 2100 2663 1953 2663 
Q 1697 2663 1478 2527 
Q 1259 2391 1131 2163 
L 1131 628 
z
" transform="scale(0.015625)"/>
       <path id="Cmr10-65" d="M 1594 -72 
Q 1203 -72 876 133 
Q 550 338 364 680 
Q 178 1022 178 1403 
Q 178 1778 348 2115 
Q 519 2453 823 2661 
Q 1128 2869 1503 2869 
Q 1797 2869 2014 2770 
Q 2231 2672 2372 2497 
Q 2513 2322 2584 2084 
Q 2656 1847 2656 1563 
Q 2656 1478 2591 1478 
L 738 1478 
L 738 1409 
Q 738 878 952 497 
Q 1166 116 1650 116 
Q 1847 116 2014 203 
Q 2181 291 2304 447 
Q 2428 603 2472 781 
Q 2478 803 2495 820 
Q 2513 838 2534 838 
L 2591 838 
Q 2656 838 2656 756 
Q 2566 394 2266 161 
Q 1966 -72 1594 -72 
z
M 744 1638 
L 2203 1638 
Q 2203 1878 2136 2125 
Q 2069 2372 1912 2536 
Q 1756 2700 1503 2700 
Q 1141 2700 942 2361 
Q 744 2022 744 1638 
z
" transform="scale(0.015625)"/>
       <path id="Cmr10-20" transform="scale(0.015625)"/>
       <path id="Cmr10-6f" d="M 1600 -72 
Q 1216 -72 887 123 
Q 559 319 368 647 
Q 178 975 178 1363 
Q 178 1656 283 1928 
Q 388 2200 583 2414 
Q 778 2628 1037 2748 
Q 1297 2869 1600 2869 
Q 1994 2869 2317 2661 
Q 2641 2453 2828 2104 
Q 3016 1756 3016 1363 
Q 3016 978 2825 648 
Q 2634 319 2307 123 
Q 1981 -72 1600 -72 
z
M 1600 116 
Q 2113 116 2284 487 
Q 2456 859 2456 1434 
Q 2456 1756 2422 1967 
Q 2388 2178 2272 2350 
Q 2200 2456 2089 2536 
Q 1978 2616 1854 2658 
Q 1731 2700 1600 2700 
Q 1400 2700 1220 2609 
Q 1041 2519 922 2350 
Q 803 2169 770 1951 
Q 738 1734 738 1434 
Q 738 1075 800 789 
Q 863 503 1052 309 
Q 1241 116 1600 116 
z
" transform="scale(0.015625)"/>
       <path id="Cmr10-66" d="M 206 0 
L 206 225 
Q 422 225 562 259 
Q 703 294 703 428 
L 703 2534 
L 213 2534 
L 213 2759 
L 703 2759 
L 703 3525 
Q 703 3731 789 3911 
Q 875 4091 1020 4225 
Q 1166 4359 1355 4436 
Q 1544 4513 1747 4513 
Q 1963 4513 2136 4384 
Q 2309 4256 2309 4044 
Q 2309 3922 2226 3839 
Q 2144 3756 2022 3756 
Q 1900 3756 1814 3839 
Q 1728 3922 1728 4044 
Q 1728 4244 1900 4313 
Q 1797 4347 1716 4347 
Q 1528 4347 1395 4214 
Q 1263 4081 1197 3890 
Q 1131 3700 1131 3513 
L 1131 2759 
L 1869 2759 
L 1869 2534 
L 1153 2534 
L 1153 428 
Q 1153 297 1340 261 
Q 1528 225 1772 225 
L 1772 0 
L 206 0 
z
" transform="scale(0.015625)"/>
       <path id="Cmr10-4c" d="M 197 0 
L 197 225 
Q 856 225 856 428 
L 856 3944 
Q 856 4147 197 4147 
L 197 4372 
L 2272 4372 
L 2272 4147 
Q 1453 4147 1453 3944 
L 1453 428 
Q 1453 291 1531 258 
Q 1609 225 1778 225 
L 2272 225 
Q 2750 225 3009 400 
Q 3269 575 3376 876 
Q 3484 1178 3541 1678 
L 3725 1678 
L 3547 0 
L 197 0 
z
" transform="scale(0.015625)"/>
       <path id="Cmr10-74" d="M 653 769 
L 653 2534 
L 122 2534 
L 122 2700 
Q 541 2700 737 3090 
Q 934 3481 934 3938 
L 1119 3938 
L 1119 2759 
L 2022 2759 
L 2022 2534 
L 1119 2534 
L 1119 781 
Q 1119 516 1208 316 
Q 1297 116 1528 116 
Q 1747 116 1844 327 
Q 1941 538 1941 781 
L 1941 1159 
L 2125 1159 
L 2125 769 
Q 2125 569 2051 373 
Q 1978 178 1834 53 
Q 1691 -72 1484 -72 
Q 1100 -72 876 158 
Q 653 388 653 769 
z
" transform="scale(0.015625)"/>
       <path id="Cmr10-73" d="M 213 -19 
L 213 1025 
Q 213 1075 269 1075 
L 347 1075 
Q 384 1075 397 1025 
Q 575 97 1259 97 
Q 1563 97 1767 234 
Q 1972 372 1972 659 
Q 1972 866 1812 1011 
Q 1653 1156 1434 1209 
L 1006 1294 
Q 791 1341 614 1437 
Q 438 1534 325 1695 
Q 213 1856 213 2069 
Q 213 2350 361 2529 
Q 509 2709 746 2789 
Q 984 2869 1259 2869 
Q 1588 2869 1831 2694 
L 2016 2853 
Q 2016 2869 2047 2869 
L 2094 2869 
Q 2113 2869 2128 2851 
Q 2144 2834 2144 2816 
L 2144 1978 
Q 2144 1919 2094 1919 
L 2016 1919 
Q 1959 1919 1959 1978 
Q 1959 2313 1773 2516 
Q 1588 2719 1253 2719 
Q 966 2719 755 2612 
Q 544 2506 544 2247 
Q 544 2069 695 1955 
Q 847 1841 1050 1791 
L 1484 1709 
Q 1703 1659 1892 1540 
Q 2081 1422 2192 1240 
Q 2303 1059 2303 831 
Q 2303 600 2223 429 
Q 2144 259 2001 146 
Q 1859 34 1665 -19 
Q 1472 -72 1259 -72 
Q 859 -72 575 197 
L 341 -56 
Q 341 -72 306 -72 
L 269 -72 
Q 213 -72 213 -19 
z
" transform="scale(0.015625)"/>
      </defs>
      <use xlink:href="#Cmr10-4e"/>
      <use xlink:href="#Cmr10-75" x="75"/>
      <use xlink:href="#Cmr10-6d" x="130.517578"/>
      <use xlink:href="#Cmr10-62" x="213.818359"/>
      <use xlink:href="#Cmr10-65" x="269.335938"/>
      <use xlink:href="#Cmr10-72" x="313.720703"/>
      <use xlink:href="#Cmr10-20" x="352.832031"/>
      <use xlink:href="#Cmr10-6f" x="386.132812"/>
      <use xlink:href="#Cmr10-66" x="436.132812"/>
      <use xlink:href="#Cmr10-20" x="466.650391"/>
      <use xlink:href="#Cmr10-4c" x="499.951172"/>
      <use xlink:href="#Cmr10-65" x="562.451172"/>
      <use xlink:href="#Cmr10-74" x="606.835938"/>
      <use xlink:href="#Cmr10-74" x="645.654297"/>
      <use xlink:href="#Cmr10-65" x="684.472656"/>
      <use xlink:href="#Cmr10-72" x="728.857422"/>
      <use xlink:href="#Cmr10-73" x="767.96875"/>
     </g>
    </g>
   </g>
   <g id="PathCollection_1">
    <defs>
     <path id="m337201be95" d="M 0 2.236068 
C 0.593012 2.236068 1.161816 2.000462 1.581139 1.581139 
C 2.000462 1.161816 2.236068 0.593012 2.236068 0 
C 2.236068 -0.593012 2.000462 -1.161816 1.581139 -1.581139 
C 1.161816 -2.000462 0.593012 -2.236068 0 -2.236068 
C -0.593012 -2.236068 -1.161816 -2.000462 -1.581139 -1.581139 
C -2.000462 -1.161816 -2.236068 -0.593012 -2.236068 0 
C -2.236068 0.593012 -2.000462 1.161816 -1.581139 1.581139 
C -1.161816 2.000462 -0.593012 2.236068 0 2.236068 
z
" style="stroke: #0c5da5; stroke-opacity: 0.2"/>
    </defs>
    <g clip-path="url(#p6d79fb16ca)">
     <use xlink:href="#m337201be95" x="64.259155" y="150.564034" style="fill: #0c5da5; fill-opacity: 0.2; stroke: #0c5da5; stroke-opacity: 0.2"/>
     <use xlink:href="#m337201be95" x="88.421423" y="170.062939" style="fill: #0c5da5; fill-opacity: 0.2; stroke: #0c5da5; stroke-opacity: 0.2"/>
     <use xlink:href="#m337201be95" x="112.583691" y="111.566225" style="fill: #0c5da5; fill-opacity: 0.2; stroke: #0c5da5; stroke-opacity: 0.2"/>
     <use xlink:href="#m337201be95" x="136.74596" y="131.06513" style="fill: #0c5da5; fill-opacity: 0.2; stroke: #0c5da5; stroke-opacity: 0.2"/>
     <use xlink:href="#m337201be95" x="160.908228" y="111.566225" style="fill: #0c5da5; fill-opacity: 0.2; stroke: #0c5da5; stroke-opacity: 0.2"/>
     <use xlink:href="#m337201be95" x="185.070496" y="111.566225" style="fill: #0c5da5; fill-opacity: 0.2; stroke: #0c5da5; stroke-opacity: 0.2"/>
     <use xlink:href="#m337201be95" x="209.232764" y="92.067321" style="fill: #0c5da5; fill-opacity: 0.2; stroke: #0c5da5; stroke-opacity: 0.2"/>
     <use xlink:href="#m337201be95" x="233.395033" y="72.568416" style="fill: #0c5da5; fill-opacity: 0.2; stroke: #0c5da5; stroke-opacity: 0.2"/>
     <use xlink:href="#m337201be95" x="257.557301" y="53.069511" style="fill: #0c5da5; fill-opacity: 0.2; stroke: #0c5da5; stroke-opacity: 0.2"/>
     <use xlink:href="#m337201be95" x="281.719569" y="53.069511" style="fill: #0c5da5; fill-opacity: 0.2; stroke: #0c5da5; stroke-opacity: 0.2"/>
     <use xlink:href="#m337201be95" x="305.881837" y="92.067321" style="fill: #0c5da5; fill-opacity: 0.2; stroke: #0c5da5; stroke-opacity: 0.2"/>
     <use xlink:href="#m337201be95" x="330.044105" y="92.067321" style="fill: #0c5da5; fill-opacity: 0.2; stroke: #0c5da5; stroke-opacity: 0.2"/>
     <use xlink:href="#m337201be95" x="354.206374" y="189.561844" style="fill: #0c5da5; fill-opacity: 0.2; stroke: #0c5da5; stroke-opacity: 0.2"/>
     <use xlink:href="#m337201be95" x="378.368642" y="131.06513" style="fill: #0c5da5; fill-opacity: 0.2; stroke: #0c5da5; stroke-opacity: 0.2"/>
     <use xlink:href="#m337201be95" x="402.53091" y="111.566225" style="fill: #0c5da5; fill-opacity: 0.2; stroke: #0c5da5; stroke-opacity: 0.2"/>
     <use xlink:href="#m337201be95" x="426.693178" y="33.570607" style="fill: #0c5da5; fill-opacity: 0.2; stroke: #0c5da5; stroke-opacity: 0.2"/>
     <use xlink:href="#m337201be95" x="450.855447" y="92.067321" style="fill: #0c5da5; fill-opacity: 0.2; stroke: #0c5da5; stroke-opacity: 0.2"/>
     <use xlink:href="#m337201be95" x="475.017715" y="53.069511" style="fill: #0c5da5; fill-opacity: 0.2; stroke: #0c5da5; stroke-opacity: 0.2"/>
     <use xlink:href="#m337201be95" x="499.179983" y="53.069511" style="fill: #0c5da5; fill-opacity: 0.2; stroke: #0c5da5; stroke-opacity: 0.2"/>
     <use xlink:href="#m337201be95" x="523.342251" y="53.069511" style="fill: #0c5da5; fill-opacity: 0.2; stroke: #0c5da5; stroke-opacity: 0.2"/>
    </g>
   </g>
   <g id="PathCollection_2">
    <defs>
     <path id="m87dbd07c42" d="M 0 2.236068 
C 0.593012 2.236068 1.161816 2.000462 1.581139 1.581139 
C 2.000462 1.161816 2.236068 0.593012 2.236068 0 
C 2.236068 -0.593012 2.000462 -1.161816 1.581139 -1.581139 
C 1.161816 -2.000462 0.593012 -2.236068 0 -2.236068 
C -0.593012 -2.236068 -1.161816 -2.000462 -1.581139 -1.581139 
C -2.000462 -1.161816 -2.236068 -0.593012 -2.236068 0 
C -2.236068 0.593012 -2.000462 1.161816 -1.581139 1.581139 
C -1.161816 2.000462 -0.593012 2.236068 0 2.236068 
z
" style="stroke: #0c5da5"/>
    </defs>
    <g clip-path="url(#p6d79fb16ca)">
     <use xlink:href="#m87dbd07c42" x="64.259155" y="150.564034" style="fill: #0c5da5; stroke: #0c5da5"/>
     <use xlink:href="#m87dbd07c42" x="88.421423" y="189.561844" style="fill: #0c5da5; stroke: #0c5da5"/>
     <use xlink:href="#m87dbd07c42" x="112.583691" y="111.566225" style="fill: #0c5da5; stroke: #0c5da5"/>
     <use xlink:href="#m87dbd07c42" x="136.74596" y="170.062939" style="fill: #0c5da5; stroke: #0c5da5"/>
     <use xlink:href="#m87dbd07c42" x="160.908228" y="131.06513" style="fill: #0c5da5; stroke: #0c5da5"/>
     <use xlink:href="#m87dbd07c42" x="185.070496" y="131.06513" style="fill: #0c5da5; stroke: #0c5da5"/>
     <use xlink:href="#m87dbd07c42" x="209.232764" y="111.566225" style="fill: #0c5da5; stroke: #0c5da5"/>
     <use xlink:href="#m87dbd07c42" x="233.395033" y="72.568416" style="fill: #0c5da5; stroke: #0c5da5"/>
     <use xlink:href="#m87dbd07c42" x="257.557301" y="53.069511" style="fill: #0c5da5; stroke: #0c5da5"/>
     <use xlink:href="#m87dbd07c42" x="281.719569" y="53.069511" style="fill: #0c5da5; stroke: #0c5da5"/>
     <use xlink:href="#m87dbd07c42" x="305.881837" y="92.067321" style="fill: #0c5da5; stroke: #0c5da5"/>
     <use xlink:href="#m87dbd07c42" x="330.044105" y="111.566225" style="fill: #0c5da5; stroke: #0c5da5"/>
     <use xlink:href="#m87dbd07c42" x="354.206374" y="228.559653" style="fill: #0c5da5; stroke: #0c5da5"/>
     <use xlink:href="#m87dbd07c42" x="378.368642" y="170.062939" style="fill: #0c5da5; stroke: #0c5da5"/>
     <use xlink:href="#m87dbd07c42" x="402.53091" y="131.06513" style="fill: #0c5da5; stroke: #0c5da5"/>
     <use xlink:href="#m87dbd07c42" x="426.693178" y="33.570607" style="fill: #0c5da5; stroke: #0c5da5"/>
     <use xlink:href="#m87dbd07c42" x="450.855447" y="131.06513" style="fill: #0c5da5; stroke: #0c5da5"/>
     <use xlink:href="#m87dbd07c42" x="475.017715" y="53.069511" style="fill: #0c5da5; stroke: #0c5da5"/>
     <use xlink:href="#m87dbd07c42" x="499.179983" y="53.069511" style="fill: #0c5da5; stroke: #0c5da5"/>
     <use xlink:href="#m87dbd07c42" x="523.342251" y="53.069511" style="fill: #0c5da5; stroke: #0c5da5"/>
    </g>
   </g>
   <g id="PathCollection_3">
    <defs>
     <path id="m4759b02e02" d="M 0 2.236068 
C 0.593012 2.236068 1.161816 2.000462 1.581139 1.581139 
C 2.000462 1.161816 2.236068 0.593012 2.236068 0 
C 2.236068 -0.593012 2.000462 -1.161816 1.581139 -1.581139 
C 1.161816 -2.000462 0.593012 -2.236068 0 -2.236068 
C -0.593012 -2.236068 -1.161816 -2.000462 -1.581139 -1.581139 
C -2.000462 -1.161816 -2.236068 -0.593012 -2.236068 0 
C -2.236068 0.593012 -2.000462 1.161816 -1.581139 1.581139 
C -1.161816 2.000462 -0.593012 2.236068 0 2.236068 
z
" style="stroke: #00b945; stroke-opacity: 0.2"/>
    </defs>
    <g clip-path="url(#p6d79fb16ca)">
     <use xlink:href="#m4759b02e02" x="64.259155" y="228.559653" style="fill: #00b945; fill-opacity: 0.2; stroke: #00b945; stroke-opacity: 0.2"/>
     <use xlink:href="#m4759b02e02" x="88.421423" y="248.058557" style="fill: #00b945; fill-opacity: 0.2; stroke: #00b945; stroke-opacity: 0.2"/>
     <use xlink:href="#m4759b02e02" x="112.583691" y="209.060748" style="fill: #00b945; fill-opacity: 0.2; stroke: #00b945; stroke-opacity: 0.2"/>
     <use xlink:href="#m4759b02e02" x="136.74596" y="189.561844" style="fill: #00b945; fill-opacity: 0.2; stroke: #00b945; stroke-opacity: 0.2"/>
     <use xlink:href="#m4759b02e02" x="160.908228" y="170.062939" style="fill: #00b945; fill-opacity: 0.2; stroke: #00b945; stroke-opacity: 0.2"/>
     <use xlink:href="#m4759b02e02" x="185.070496" y="189.561844" style="fill: #00b945; fill-opacity: 0.2; stroke: #00b945; stroke-opacity: 0.2"/>
     <use xlink:href="#m4759b02e02" x="209.232764" y="170.062939" style="fill: #00b945; fill-opacity: 0.2; stroke: #00b945; stroke-opacity: 0.2"/>
     <use xlink:href="#m4759b02e02" x="233.395033" y="189.561844" style="fill: #00b945; fill-opacity: 0.2; stroke: #00b945; stroke-opacity: 0.2"/>
     <use xlink:href="#m4759b02e02" x="257.557301" y="170.062939" style="fill: #00b945; fill-opacity: 0.2; stroke: #00b945; stroke-opacity: 0.2"/>
     <use xlink:href="#m4759b02e02" x="281.719569" y="150.564034" style="fill: #00b945; fill-opacity: 0.2; stroke: #00b945; stroke-opacity: 0.2"/>
     <use xlink:href="#m4759b02e02" x="305.881837" y="189.561844" style="fill: #00b945; fill-opacity: 0.2; stroke: #00b945; stroke-opacity: 0.2"/>
     <use xlink:href="#m4759b02e02" x="330.044105" y="150.564034" style="fill: #00b945; fill-opacity: 0.2; stroke: #00b945; stroke-opacity: 0.2"/>
     <use xlink:href="#m4759b02e02" x="354.206374" y="248.058557" style="fill: #00b945; fill-opacity: 0.2; stroke: #00b945; stroke-opacity: 0.2"/>
     <use xlink:href="#m4759b02e02" x="378.368642" y="209.060748" style="fill: #00b945; fill-opacity: 0.2; stroke: #00b945; stroke-opacity: 0.2"/>
     <use xlink:href="#m4759b02e02" x="402.53091" y="150.564034" style="fill: #00b945; fill-opacity: 0.2; stroke: #00b945; stroke-opacity: 0.2"/>
     <use xlink:href="#m4759b02e02" x="426.693178" y="131.06513" style="fill: #00b945; fill-opacity: 0.2; stroke: #00b945; stroke-opacity: 0.2"/>
     <use xlink:href="#m4759b02e02" x="450.855447" y="150.564034" style="fill: #00b945; fill-opacity: 0.2; stroke: #00b945; stroke-opacity: 0.2"/>
     <use xlink:href="#m4759b02e02" x="475.017715" y="131.06513" style="fill: #00b945; fill-opacity: 0.2; stroke: #00b945; stroke-opacity: 0.2"/>
     <use xlink:href="#m4759b02e02" x="499.179983" y="131.06513" style="fill: #00b945; fill-opacity: 0.2; stroke: #00b945; stroke-opacity: 0.2"/>
     <use xlink:href="#m4759b02e02" x="523.342251" y="111.566225" style="fill: #00b945; fill-opacity: 0.2; stroke: #00b945; stroke-opacity: 0.2"/>
    </g>
   </g>
   <g id="PathCollection_4">
    <defs>
     <path id="mb0fdff349d" d="M 0 2.236068 
C 0.593012 2.236068 1.161816 2.000462 1.581139 1.581139 
C 2.000462 1.161816 2.236068 0.593012 2.236068 0 
C 2.236068 -0.593012 2.000462 -1.161816 1.581139 -1.581139 
C 1.161816 -2.000462 0.593012 -2.236068 0 -2.236068 
C -0.593012 -2.236068 -1.161816 -2.000462 -1.581139 -1.581139 
C -2.000462 -1.161816 -2.236068 -0.593012 -2.236068 0 
C -2.236068 0.593012 -2.000462 1.161816 -1.581139 1.581139 
C -1.161816 2.000462 -0.593012 2.236068 0 2.236068 
z
" style="stroke: #00b945"/>
    </defs>
    <g clip-path="url(#p6d79fb16ca)">
     <use xlink:href="#mb0fdff349d" x="64.259155" y="228.559653" style="fill: #00b945; stroke: #00b945"/>
     <use xlink:href="#mb0fdff349d" x="88.421423" y="287.056366" style="fill: #00b945; stroke: #00b945"/>
     <use xlink:href="#mb0fdff349d" x="112.583691" y="228.559653" style="fill: #00b945; stroke: #00b945"/>
     <use xlink:href="#mb0fdff349d" x="136.74596" y="189.561844" style="fill: #00b945; stroke: #00b945"/>
     <use xlink:href="#mb0fdff349d" x="160.908228" y="170.062939" style="fill: #00b945; stroke: #00b945"/>
     <use xlink:href="#mb0fdff349d" x="185.070496" y="228.559653" style="fill: #00b945; stroke: #00b945"/>
     <use xlink:href="#mb0fdff349d" x="209.232764" y="189.561844" style="fill: #00b945; stroke: #00b945"/>
     <use xlink:href="#mb0fdff349d" x="233.395033" y="189.561844" style="fill: #00b945; stroke: #00b945"/>
     <use xlink:href="#mb0fdff349d" x="257.557301" y="189.561844" style="fill: #00b945; stroke: #00b945"/>
     <use xlink:href="#mb0fdff349d" x="281.719569" y="189.561844" style="fill: #00b945; stroke: #00b945"/>
     <use xlink:href="#mb0fdff349d" x="305.881837" y="189.561844" style="fill: #00b945; stroke: #00b945"/>
     <use xlink:href="#mb0fdff349d" x="330.044105" y="228.559653" style="fill: #00b945; stroke: #00b945"/>
     <use xlink:href="#mb0fdff349d" x="354.206374" y="287.056366" style="fill: #00b945; stroke: #00b945"/>
     <use xlink:href="#mb0fdff349d" x="378.368642" y="248.058557" style="fill: #00b945; stroke: #00b945"/>
     <use xlink:href="#mb0fdff349d" x="402.53091" y="170.062939" style="fill: #00b945; stroke: #00b945"/>
     <use xlink:href="#mb0fdff349d" x="426.693178" y="131.06513" style="fill: #00b945; stroke: #00b945"/>
     <use xlink:href="#mb0fdff349d" x="450.855447" y="150.564034" style="fill: #00b945; stroke: #00b945"/>
     <use xlink:href="#mb0fdff349d" x="475.017715" y="170.062939" style="fill: #00b945; stroke: #00b945"/>
     <use xlink:href="#mb0fdff349d" x="499.179983" y="150.564034" style="fill: #00b945; stroke: #00b945"/>
     <use xlink:href="#mb0fdff349d" x="523.342251" y="150.564034" style="fill: #00b945; stroke: #00b945"/>
    </g>
   </g>
   <g id="line2d_55">
    <path d="M 64.259155 150.564034 
L 66.192136 156.118058 
L 68.125118 160.977454 
L 70.058099 165.142222 
L 71.507835 167.809948 
L 72.957571 170.086946 
L 74.407307 171.973216 
L 75.857044 173.468757 
L 77.30678 174.57357 
L 78.27327 175.09304 
L 79.239761 175.438854 
L 80.206252 175.611011 
L 81.172743 175.60951 
L 82.139233 175.434353 
L 83.105724 175.085538 
L 84.072215 174.563067 
L 85.521951 173.453752 
L 86.971687 171.95371 
L 88.421423 170.062939 
L 89.871159 167.78144 
L 91.320895 165.109212 
L 92.770631 162.046256 
L 94.703613 157.354516 
L 96.636594 151.968147 
L 98.569576 145.88715 
L 100.985803 137.357947 
L 102.918784 130.886774 
L 104.851765 125.284622 
L 106.301502 121.653303 
L 107.751238 118.510809 
L 109.200974 115.857138 
L 110.65071 113.692293 
L 112.100446 112.016271 
L 113.066937 111.170493 
L 114.033427 110.54197 
L 114.999918 110.130702 
L 115.966409 109.936689 
L 116.9329 109.959932 
L 117.89939 110.20043 
L 118.865881 110.658183 
L 119.832372 111.333192 
L 120.798863 112.225456 
L 122.248599 113.971205 
L 123.698335 116.205779 
L 128.047543 123.706132 
L 129.497279 125.672492 
L 130.947015 127.342908 
L 132.396751 128.71738 
L 133.846487 129.795907 
L 135.296223 130.578491 
L 136.74596 131.06513 
L 138.195696 131.255825 
L 139.645432 131.150575 
L 141.095168 130.749381 
L 142.544904 130.052243 
L 143.99464 129.059161 
L 145.444376 127.770135 
L 146.894112 126.185164 
L 148.343848 124.304249 
L 151.24332 120.292987 
L 153.176302 117.965576 
L 155.109283 115.929194 
L 157.042265 114.183841 
L 158.975246 112.729518 
L 160.908228 111.566225 
L 162.841209 110.693962 
L 164.774191 110.112728 
L 166.707172 109.822523 
L 168.640154 109.823348 
L 170.573135 110.115203 
L 172.506117 110.698088 
L 174.922343 111.579584 
L 176.855325 112.048174 
L 178.788306 112.295054 
L 180.721288 112.320224 
L 182.654269 112.123682 
L 184.587251 111.70543 
L 186.520232 111.065468 
L 188.453214 110.203795 
L 190.386195 109.120411 
L 192.319177 107.815316 
L 194.735403 105.872168 
L 197.15163 103.582596 
L 202.467329 98.31909 
L 207.783028 93.364817 
L 213.098727 88.719778 
L 218.414426 84.383972 
L 234.361523 71.762065 
L 241.126958 65.952188 
L 250.30862 57.993483 
L 253.691338 55.519057 
L 257.074055 53.353633 
L 259.973528 51.743496 
L 262.873 50.360382 
L 265.772472 49.204289 
L 268.671944 48.275219 
L 270.604926 47.821422 
L 272.054662 47.724862 
L 273.504398 47.86263 
L 274.954134 48.234726 
L 276.40387 48.84115 
L 277.853606 49.681902 
L 279.303342 50.756982 
L 280.753078 52.066391 
L 282.68606 54.176778 
L 284.619041 56.703749 
L 286.552023 59.647303 
L 288.485004 63.00744 
L 290.417986 66.78416 
L 292.350967 70.977463 
L 296.700175 80.787698 
L 298.633157 84.294311 
L 300.082893 86.528086 
L 301.532629 88.422275 
L 302.982365 89.976877 
L 304.432101 91.191892 
L 305.881837 92.067321 
L 307.331573 92.603163 
L 308.781309 92.799418 
L 309.7478 92.741595 
L 310.714291 92.532846 
L 312.164027 91.936732 
L 313.613763 91.001032 
L 315.063499 89.725745 
L 316.513235 88.110871 
L 319.895953 83.928566 
L 320.862444 83.268014 
L 321.828934 82.909708 
L 322.795425 82.853649 
L 323.761916 83.099837 
L 324.728406 83.648271 
L 325.694897 84.498952 
L 326.661388 85.65188 
L 327.627879 87.107055 
L 328.594369 88.864476 
L 330.044105 92.067321 
L 331.493842 95.95022 
L 332.943578 100.513175 
L 334.393314 105.756184 
L 335.84305 111.679249 
L 337.776031 120.634532 
L 339.709013 130.798802 
L 341.641994 142.172059 
L 344.058221 156.655028 
L 345.507957 164.154706 
L 346.957693 170.721483 
L 348.407429 176.355358 
L 349.857165 181.056331 
L 351.306902 184.824404 
L 352.273392 186.818173 
L 353.239883 188.39732 
L 354.206374 189.561844 
L 355.172864 190.311744 
L 356.139355 190.647022 
L 357.105846 190.567677 
L 358.072337 190.07371 
L 359.038827 189.165119 
L 360.005318 187.841905 
L 360.971809 186.104069 
L 361.9383 183.951609 
L 362.90479 181.384527 
L 364.354526 176.756486 
L 365.804262 171.195543 
L 368.703735 159.160658 
L 370.636716 152.03113 
L 372.569698 145.656813 
L 374.502679 140.037708 
L 376.435661 135.173813 
L 377.885397 132.0215 
L 379.335133 129.293992 
L 380.784869 126.991291 
L 382.234605 125.113396 
L 383.684341 123.660308 
L 385.134077 122.632026 
L 386.100568 122.182508 
L 387.067059 121.921792 
L 388.033549 121.84988 
L 389.00004 121.96677 
L 389.966531 122.272464 
L 391.416267 122.881096 
L 392.382758 123.047059 
L 393.349248 122.994001 
L 394.315739 122.72192 
L 395.28223 122.230817 
L 396.24872 121.520693 
L 397.215211 120.591547 
L 398.664947 118.787161 
L 400.114683 116.489976 
L 401.564419 113.699992 
L 403.014156 110.417209 
L 404.463892 106.641626 
L 406.396873 100.840939 
L 408.329855 94.164165 
L 410.262836 86.611303 
L 412.195818 78.182353 
L 414.128799 68.877316 
L 416.06178 59.366233 
L 417.511517 53.165582 
L 418.961253 47.812214 
L 420.410989 43.306131 
L 421.860725 39.647332 
L 422.827216 37.678846 
L 423.793706 36.08693 
L 424.760197 34.871585 
L 425.726688 34.032811 
L 426.693178 33.570607 
L 427.659669 33.484974 
L 428.62616 33.775911 
L 429.592651 34.44342 
L 430.559141 35.487498 
L 431.525632 36.908148 
L 432.492123 38.705368 
L 433.458614 40.879159 
L 434.90835 44.845915 
L 436.358086 49.659955 
L 437.807822 55.321279 
L 441.673785 71.546002 
L 443.123521 76.546011 
L 444.573257 80.886094 
L 446.022993 84.566253 
L 447.472729 87.586486 
L 448.922465 89.946794 
L 449.888956 91.153707 
L 450.855447 92.067321 
L 451.821937 92.687634 
L 452.788428 93.014647 
L 453.754919 93.04836 
L 454.72141 92.788773 
L 455.6879 92.235886 
L 456.654391 91.389698 
L 457.620882 90.250211 
L 458.587373 88.817424 
L 460.037109 86.118305 
L 461.486845 82.75926 
L 462.936581 78.740291 
L 465.352808 71.914884 
L 467.285789 67.063408 
L 469.218771 62.753133 
L 471.151752 58.984059 
L 473.084733 55.756185 
L 474.53447 53.690442 
L 475.984206 51.929125 
L 477.433942 50.472233 
L 478.883678 49.319766 
L 480.333414 48.471724 
L 481.78315 47.928107 
L 483.232886 47.688916 
L 484.682622 47.75415 
L 486.132358 48.123809 
L 487.582094 48.778565 
L 490.964812 50.317604 
L 494.34753 51.619867 
L 497.730247 52.685356 
L 501.112965 53.514069 
L 504.495682 54.106007 
L 507.8784 54.46117 
L 511.261117 54.579557 
L 514.643835 54.46117 
L 518.026552 54.106007 
L 521.40927 53.514069 
L 522.859006 53.187899 
L 522.859006 53.187899 
" clip-path="url(#p6d79fb16ca)" style="fill: none; stroke: #0c5da5; stroke-opacity: 0.2; stroke-linecap: square"/>
   </g>
   <g id="line2d_56">
    <path d="M 64.259155 150.564034 
L 66.192136 159.870369 
L 68.125118 168.100789 
L 70.058099 175.255294 
L 71.507835 179.915104 
L 72.957571 183.969711 
L 74.407307 187.419117 
L 75.857044 190.26332 
L 77.30678 192.502322 
L 78.27327 193.658766 
L 79.239761 194.546232 
L 80.206252 195.164719 
L 81.172743 195.514227 
L 82.139233 195.594757 
L 83.105724 195.406308 
L 84.072215 194.94888 
L 85.038706 194.222473 
L 86.005196 193.227088 
L 86.971687 191.962724 
L 88.421423 189.561844 
L 89.871159 186.555761 
L 91.320895 182.944476 
L 92.770631 178.727989 
L 94.220367 173.9063 
L 96.153349 166.535956 
L 98.08633 158.089697 
L 100.019312 148.567523 
L 101.952293 138.705537 
L 103.402029 132.259211 
L 104.851765 126.679887 
L 106.301502 121.967568 
L 107.751238 118.122252 
L 108.717728 116.040377 
L 109.684219 114.343836 
L 110.65071 113.032631 
L 111.617201 112.106761 
L 112.583691 111.566225 
L 113.550182 111.411025 
L 114.516673 111.641159 
L 115.483164 112.256629 
L 116.449654 113.257433 
L 117.416145 114.643572 
L 118.382636 116.415046 
L 119.349126 118.571856 
L 120.798863 122.529572 
L 122.248599 127.354293 
L 123.698335 133.046017 
L 127.564298 149.396944 
L 129.014034 154.435571 
L 130.46377 158.808357 
L 131.913506 162.515302 
L 133.363242 165.556407 
L 134.812978 167.931672 
L 135.779469 169.14527 
L 136.74596 170.062939 
L 137.71245 170.684679 
L 138.678941 171.010489 
L 139.645432 171.040371 
L 140.611922 170.774323 
L 141.578413 170.212346 
L 142.544904 169.354441 
L 143.511395 168.200605 
L 144.477885 166.750841 
L 145.927621 164.021328 
L 147.377358 160.625973 
L 148.827094 156.564778 
L 150.760075 150.990579 
L 152.693057 145.985619 
L 154.626038 141.5499 
L 156.55902 137.683421 
L 158.492001 134.386183 
L 159.941737 132.286819 
L 161.391473 130.507652 
L 162.841209 129.048683 
L 164.290945 127.909911 
L 165.740681 127.091338 
L 167.190418 126.592962 
L 168.640154 126.414783 
L 170.08989 126.556803 
L 171.539626 127.01902 
L 172.989362 127.801435 
L 174.922343 128.940602 
L 176.855325 129.84473 
L 178.788306 130.51382 
L 180.721288 130.947871 
L 182.654269 131.146885 
L 184.587251 131.110861 
L 186.520232 130.839798 
L 188.453214 130.333697 
L 190.386195 129.592558 
L 192.319177 128.616381 
L 194.252158 127.405166 
L 196.185139 125.958913 
L 198.601366 123.842422 
L 201.500838 120.966435 
L 204.400311 117.736398 
L 207.299783 114.152311 
L 210.199255 110.214174 
L 213.098727 105.921987 
L 215.998199 101.275751 
L 219.380917 95.407662 
L 226.146352 83.282601 
L 229.045824 78.691781 
L 231.945296 74.507822 
L 234.844769 70.730725 
L 237.744241 67.360489 
L 240.160468 64.862757 
L 242.576694 62.647566 
L 244.992921 60.714919 
L 248.375639 58.360031 
L 252.241602 55.937921 
L 256.107565 53.798753 
L 259.973528 51.942528 
L 263.356245 50.550432 
L 266.738963 49.374965 
L 270.12168 48.426199 
L 271.571416 48.232692 
L 273.021152 48.260305 
L 274.470889 48.509038 
L 275.920625 48.978892 
L 277.370361 49.669867 
L 278.820097 50.581961 
L 280.269833 51.715176 
L 282.202814 53.570094 
L 284.135796 55.818115 
L 286.068777 58.459239 
L 288.001759 61.493466 
L 289.93474 64.920796 
L 291.867722 68.741228 
L 294.283948 74.043764 
L 296.21693 78.129353 
L 298.149911 81.782276 
L 300.082893 85.002534 
L 302.015874 87.790128 
L 303.948856 90.145057 
L 305.881837 92.067321 
L 307.331573 93.225082 
L 308.781309 94.13947 
L 310.231046 94.810484 
L 311.680782 95.238123 
L 313.130518 95.422389 
L 314.580254 95.363281 
L 316.02999 95.060799 
L 317.479726 94.514943 
L 318.929462 93.930364 
L 319.895953 93.882955 
L 320.862444 94.136682 
L 321.828934 94.691545 
L 322.795425 95.547543 
L 323.761916 96.704677 
L 324.728406 98.162946 
L 325.694897 99.922351 
L 327.144633 103.126087 
L 328.594369 107.007379 
L 330.044105 111.566225 
L 331.493842 116.802627 
L 332.943578 122.716583 
L 334.876559 131.655833 
L 336.809541 141.799624 
L 338.742522 153.147958 
L 340.675504 165.700835 
L 345.024712 194.965576 
L 346.474448 202.974207 
L 347.924184 209.968725 
L 349.37392 215.949128 
L 350.823656 220.915418 
L 352.273392 224.867595 
L 353.239883 226.938982 
L 354.206374 228.559653 
L 355.172864 229.729606 
L 356.139355 230.448842 
L 357.105846 230.717361 
L 357.589091 230.682601 
L 358.555582 230.275044 
L 359.522073 229.41677 
L 360.488563 228.107778 
L 361.455054 226.34807 
L 362.421545 224.137644 
L 363.388036 221.476501 
L 364.837772 216.639691 
L 366.287508 210.788768 
L 368.703735 200.682428 
L 371.119961 191.556675 
L 373.536188 183.411509 
L 375.46917 177.601399 
L 377.402151 172.418865 
L 379.335133 167.863907 
L 381.268114 163.936524 
L 382.71785 161.402833 
L 384.167586 159.222154 
L 385.617322 157.394486 
L 387.067059 155.91983 
L 388.516795 154.798184 
L 389.966531 154.02955 
L 391.416267 153.414951 
L 392.382758 152.737055 
L 393.349248 151.818099 
L 394.315739 150.658082 
L 395.765475 148.466069 
L 397.215211 145.731671 
L 398.664947 142.454886 
L 400.114683 138.635716 
L 401.564419 134.274159 
L 403.497401 127.61504 
L 405.430382 119.991679 
L 407.363364 111.404076 
L 409.296345 101.852232 
L 411.229327 91.336146 
L 413.645554 76.835074 
L 416.545026 59.008582 
L 417.994762 51.72479 
L 419.444498 45.657597 
L 420.894234 40.807003 
L 421.860725 38.249161 
L 422.827216 36.232029 
L 423.793706 34.755608 
L 424.760197 33.819897 
L 425.243442 33.554808 
L 425.726688 33.424897 
L 426.209933 33.430163 
L 426.693178 33.570607 
L 427.176424 33.846228 
L 428.142915 34.803004 
L 429.109405 36.30049 
L 430.075896 38.338686 
L 431.042387 40.917593 
L 432.008877 44.03721 
L 433.458614 49.730467 
L 434.90835 56.640323 
L 436.358086 64.766777 
L 437.807822 74.10983 
L 441.190539 97.366338 
L 442.640275 105.655462 
L 444.090012 112.803067 
L 445.539748 118.809152 
L 446.989484 123.673718 
L 447.955975 126.282584 
L 448.922465 128.384108 
L 449.888956 129.97829 
L 450.855447 131.06513 
L 451.821937 131.644627 
L 452.305183 131.744123 
L 452.788428 131.716783 
L 453.271674 131.562608 
L 454.238164 130.87375 
L 455.204655 129.677551 
L 456.171146 127.974009 
L 457.137636 125.763125 
L 458.104127 123.044899 
L 459.070618 119.819331 
L 460.520354 114.029713 
L 461.97009 107.098575 
L 466.802544 81.865756 
L 468.735525 73.419225 
L 470.668507 66.000967 
L 472.601488 59.610983 
L 474.051224 55.493299 
L 475.50096 51.954018 
L 476.950696 48.993142 
L 478.400432 46.610669 
L 479.366923 45.34369 
L 480.333414 44.333778 
L 481.299905 43.580935 
L 482.266395 43.085161 
L 483.232886 42.846454 
L 484.199377 42.864816 
L 485.165868 43.140247 
L 486.132358 43.672745 
L 487.098849 44.462312 
L 489.998321 47.051358 
L 492.897793 49.309887 
L 495.31402 50.939517 
L 497.730247 52.339621 
L 500.146474 53.5102 
L 502.562701 54.451254 
L 504.978928 55.162782 
L 507.395154 55.644785 
L 509.811381 55.897263 
L 512.227608 55.920216 
L 514.643835 55.713643 
L 517.060062 55.277545 
L 519.476289 54.611921 
L 521.892515 53.716773 
L 522.859006 53.294446 
L 522.859006 53.294446 
" clip-path="url(#p6d79fb16ca)" style="fill: none; stroke: #0c5da5; stroke-linecap: square"/>
   </g>
   <g id="line2d_57">
    <path d="M 64.259155 172.271811 
L 88.421423 152.393558 
L 112.583691 140.765525 
L 136.74596 132.515304 
L 160.908228 126.115936 
L 185.070496 120.887271 
L 209.232764 116.466498 
L 233.395033 112.637051 
L 257.557301 109.259238 
L 281.719569 106.237682 
L 305.881837 103.504352 
L 330.044105 101.009018 
L 354.206374 98.713532 
L 378.368642 96.588245 
L 402.53091 94.609649 
L 426.693178 92.758797 
L 450.855447 91.020189 
L 475.017715 89.380985 
L 499.179983 87.830431 
L 523.342251 86.359429 
" clip-path="url(#p6d79fb16ca)" style="fill: none; stroke-dasharray: 12.8,3.2,2,3.2; stroke-dashoffset: 0; stroke: #0c5da5; stroke-width: 2"/>
   </g>
   <g id="line2d_58">
    <path d="M 64.259155 228.559653 
L 66.192136 232.796061 
L 68.125118 236.566993 
L 70.058099 239.872446 
L 71.991081 242.712422 
L 73.924062 245.08692 
L 75.373798 246.562324 
L 76.823534 247.775897 
L 78.27327 248.727639 
L 79.723007 249.417549 
L 81.172743 249.845628 
L 82.622479 250.011876 
L 84.072215 249.916293 
L 85.521951 249.558879 
L 86.971687 248.939634 
L 88.421423 248.058557 
L 89.871159 246.91565 
L 91.320895 245.510911 
L 92.770631 243.844341 
L 94.703613 241.214954 
L 96.636594 238.12009 
L 98.569576 234.559749 
L 100.502557 230.533929 
L 103.402029 224.442318 
L 105.818256 219.818542 
L 108.234483 215.606191 
L 110.65071 211.805264 
L 113.066937 208.415762 
L 115.483164 205.437684 
L 117.89939 202.871031 
L 119.832372 201.113934 
L 121.765353 199.620148 
L 123.698335 198.389675 
L 129.497279 195.092623 
L 132.396751 193.076143 
L 135.296223 190.798554 
L 138.195696 188.259856 
L 141.095168 185.460047 
L 144.477885 181.863591 
L 147.860603 177.911737 
L 150.760075 174.516078 
L 152.209811 173.149262 
L 153.659547 172.025996 
L 155.109283 171.146282 
L 156.55902 170.51012 
L 158.008756 170.117508 
L 159.458492 169.968448 
L 160.908228 170.062939 
L 162.357964 170.400981 
L 163.8077 170.982575 
L 165.257436 171.80772 
L 166.707172 172.876416 
L 168.156908 174.188663 
L 169.606644 175.744462 
L 171.539626 178.197718 
L 176.372079 184.819268 
L 177.821816 186.291931 
L 179.271552 187.4917 
L 180.721288 188.418576 
L 182.171024 189.072559 
L 183.62076 189.453648 
L 185.070496 189.561844 
L 186.520232 189.397146 
L 187.969968 188.959555 
L 189.419704 188.24907 
L 190.86944 187.265692 
L 192.319177 186.009421 
L 193.768913 184.480257 
L 195.218649 182.678199 
L 197.15163 179.850954 
L 199.084612 177.021734 
L 201.017593 174.67371 
L 202.467329 173.228476 
L 203.917065 172.053914 
L 205.366801 171.150025 
L 206.816537 170.516807 
L 208.266274 170.154262 
L 209.71601 170.062389 
L 211.165746 170.241189 
L 212.615482 170.69066 
L 214.065218 171.410804 
L 215.514954 172.401619 
L 216.96469 173.663107 
L 218.414426 175.195268 
L 219.864162 176.9981 
L 221.797144 179.795218 
L 223.730125 182.436335 
L 225.663107 184.672114 
L 227.596088 186.502554 
L 229.045824 187.609381 
L 230.49556 188.488205 
L 231.945296 189.139025 
L 233.395033 189.561844 
L 234.844769 189.756659 
L 236.294505 189.723471 
L 237.744241 189.46228 
L 239.193977 188.973087 
L 240.643713 188.25589 
L 242.093449 187.310691 
L 243.543185 186.137488 
L 244.992921 184.736283 
L 248.858884 180.435519 
L 254.174583 174.207051 
L 259.490282 167.631828 
L 264.805981 160.709851 
L 271.571416 151.761707 
L 273.021152 150.442352 
L 274.470889 149.505749 
L 275.437379 149.093989 
L 276.40387 148.85234 
L 277.370361 148.780804 
L 278.336851 148.879381 
L 279.303342 149.14807 
L 280.269833 149.586871 
L 281.719569 150.564034 
L 283.169305 151.923951 
L 284.619041 153.66662 
L 286.068777 155.792042 
L 287.518513 158.300217 
L 288.968249 161.191146 
L 290.901231 165.641111 
L 292.834212 170.771525 
L 295.733685 178.881858 
L 297.183421 182.165634 
L 298.633157 184.863389 
L 300.082893 186.975122 
L 301.049384 188.057377 
L 302.015874 188.879178 
L 302.982365 189.440526 
L 303.948856 189.741419 
L 304.915347 189.781858 
L 305.881837 189.561844 
L 306.848328 189.081375 
L 307.814819 188.340453 
L 308.781309 187.339076 
L 309.7478 186.077246 
L 311.197536 183.69615 
L 312.647272 180.729032 
L 314.097008 177.175893 
L 315.546745 173.036733 
L 316.996481 168.311551 
L 319.895953 158.412566 
L 321.345689 154.630045 
L 322.31218 152.601198 
L 323.27867 150.966618 
L 324.245161 149.726305 
L 325.211652 148.880259 
L 326.178143 148.42848 
L 327.144633 148.370968 
L 328.111124 148.707723 
L 329.077615 149.438745 
L 330.044105 150.564034 
L 331.010596 152.083591 
L 331.977087 153.997414 
L 332.943578 156.305504 
L 334.393314 160.506891 
L 335.84305 165.595378 
L 337.292786 171.570966 
L 338.742522 178.433655 
L 340.192258 186.183445 
L 342.12524 197.896433 
L 344.058221 209.681862 
L 345.991203 220.035104 
L 347.924184 228.95616 
L 349.37392 234.70708 
L 350.823656 239.652396 
L 352.273392 243.792106 
L 353.723128 247.126212 
L 354.689619 248.901391 
L 355.65611 250.318523 
L 356.622601 251.377609 
L 357.589091 252.078648 
L 358.555582 252.421641 
L 359.522073 252.406587 
L 360.488563 252.033487 
L 361.455054 251.30234 
L 362.421545 250.213146 
L 363.388036 248.765906 
L 364.354526 246.96062 
L 365.321017 244.797286 
L 366.770753 240.926569 
L 376.435661 214.302614 
L 385.617322 189.649937 
L 392.382758 172.004061 
L 395.28223 165.124613 
L 398.181702 158.848146 
L 401.081174 153.17466 
L 403.497401 148.907365 
L 405.913628 145.058806 
L 408.329855 141.628983 
L 410.746081 138.617898 
L 413.162308 136.025548 
L 415.09529 134.256069 
L 417.028271 132.821501 
L 418.478007 131.982545 
L 419.927743 131.346707 
L 421.377479 130.913987 
L 422.827216 130.684384 
L 424.276952 130.657899 
L 425.726688 130.834532 
L 427.176424 131.214282 
L 428.62616 131.797149 
L 430.075896 132.583135 
L 431.525632 133.572237 
L 433.458614 135.207002 
L 435.391595 137.202864 
L 437.324576 139.559824 
L 441.673785 145.284387 
L 443.123521 146.774852 
L 444.573257 148.019003 
L 446.022993 149.016841 
L 447.472729 149.768365 
L 448.922465 150.273575 
L 450.372201 150.532472 
L 451.821937 150.545055 
L 453.271674 150.311324 
L 454.72141 149.831279 
L 456.171146 149.104921 
L 457.620882 148.132249 
L 459.070618 146.913263 
L 460.520354 145.447963 
L 462.453335 143.111076 
L 465.352808 139.337395 
L 467.769034 136.637546 
L 469.702016 134.780922 
L 471.634997 133.193859 
L 473.567979 131.876357 
L 475.50096 130.828416 
L 477.433942 130.050035 
L 479.366923 129.541215 
L 481.299905 129.301955 
L 483.232886 129.332257 
L 485.165868 129.632118 
L 487.098849 130.201541 
L 489.515076 130.940288 
L 491.931303 131.39602 
L 493.864284 131.556835 
L 495.797266 131.536521 
L 497.730247 131.335078 
L 499.663229 130.952506 
L 502.079455 130.219577 
L 504.495682 129.203635 
L 506.911909 127.904677 
L 509.328136 126.322706 
L 511.744363 124.457719 
L 514.160589 122.309719 
L 516.576816 119.878704 
L 518.993043 117.164674 
L 521.892515 113.53426 
L 522.859006 112.233557 
L 522.859006 112.233557 
" clip-path="url(#p6d79fb16ca)" style="fill: none; stroke: #00b945; stroke-opacity: 0.2; stroke-linecap: square"/>
   </g>
   <g id="line2d_59">
    <path d="M 64.259155 228.559653 
L 66.675382 240.748952 
L 68.608363 249.486051 
L 70.541345 257.321514 
L 72.474326 264.255341 
L 74.407307 270.287532 
L 75.857044 274.219977 
L 77.30678 277.645251 
L 78.756516 280.563355 
L 80.206252 282.974289 
L 81.655988 284.878053 
L 82.622479 285.865468 
L 83.588969 286.627473 
L 84.55546 287.16407 
L 85.521951 287.475257 
L 86.488442 287.561036 
L 87.454932 287.421406 
L 88.421423 287.056366 
L 89.387914 286.465918 
L 90.354405 285.650061 
L 91.320895 284.608794 
L 92.770631 282.624253 
L 94.220367 280.132542 
L 95.670104 277.13366 
L 97.11984 273.627608 
L 98.569576 269.614386 
L 100.502557 263.474491 
L 103.402029 253.949984 
L 106.301502 245.148601 
L 109.200974 237.070341 
L 112.100446 229.715205 
L 114.516673 224.138311 
L 116.9329 219.063586 
L 119.349126 214.49103 
L 121.765353 210.420643 
L 124.18158 206.852426 
L 134.812978 192.298213 
L 142.061659 181.890649 
L 150.760075 169.313034 
L 152.209811 167.990761 
L 153.176302 167.373949 
L 154.142793 166.968901 
L 155.109283 166.775617 
L 156.075774 166.794095 
L 157.042265 167.024337 
L 158.008756 167.466343 
L 158.975246 168.120111 
L 159.941737 168.985643 
L 161.391473 170.680998 
L 162.841209 172.85282 
L 164.290945 175.501109 
L 165.740681 178.625866 
L 167.190418 182.227091 
L 169.123399 187.769895 
L 171.05638 194.159753 
L 172.989362 201.396665 
L 174.922343 208.526805 
L 176.372079 213.178395 
L 177.821816 217.2334 
L 179.271552 220.69182 
L 180.721288 223.553655 
L 182.171024 225.818906 
L 183.137515 226.997637 
L 184.104005 227.911219 
L 185.070496 228.559653 
L 186.036987 228.942937 
L 187.003477 229.061073 
L 187.969968 228.91406 
L 188.936459 228.501899 
L 189.90295 227.824588 
L 190.86944 226.882129 
L 191.835931 225.674521 
L 192.802422 224.201764 
L 194.252158 221.495475 
L 195.701894 218.192601 
L 197.15163 214.293142 
L 199.567857 207.706888 
L 201.500838 203.028283 
L 203.43382 198.874476 
L 205.366801 195.245467 
L 207.299783 192.141256 
L 208.749519 190.157497 
L 210.199255 188.468936 
L 211.648991 187.075575 
L 213.098727 185.977412 
L 214.548463 185.174448 
L 215.998199 184.666684 
L 217.447935 184.454118 
L 218.897672 184.536751 
L 220.347408 184.914583 
L 221.797144 185.568354 
L 225.179861 187.073408 
L 228.079334 188.140409 
L 230.978806 189.001523 
L 233.878278 189.65675 
L 236.77775 190.10609 
L 239.677222 190.349542 
L 242.576694 190.387108 
L 245.476167 190.218785 
L 251.275111 189.78531 
L 257.074055 189.569945 
L 262.873 189.572692 
L 268.671944 189.79355 
L 273.504398 189.987938 
L 277.370361 189.908703 
L 281.236324 189.613859 
L 285.102287 189.103407 
L 288.968249 188.377346 
L 292.834212 187.435677 
L 295.250439 186.836949 
L 297.183421 186.659233 
L 298.633157 186.722283 
L 300.082893 186.953619 
L 302.015874 187.523849 
L 303.948856 188.393257 
L 305.881837 189.561844 
L 307.814819 191.029608 
L 309.7478 192.79655 
L 311.680782 194.86267 
L 313.613763 197.227968 
L 315.546745 199.892445 
L 317.962971 203.643759 
L 320.379198 207.828433 
L 322.795425 212.412359 
L 325.694897 218.440084 
L 328.594369 225.042732 
L 331.493842 232.220304 
L 334.393314 239.9728 
L 337.292786 248.300219 
L 340.675504 258.742181 
L 344.058221 269.421935 
L 345.991203 274.553047 
L 347.440939 277.854093 
L 348.890675 280.686034 
L 350.340411 283.04887 
L 351.790147 284.942602 
L 353.239883 286.367229 
L 354.206374 287.056366 
L 355.172864 287.537013 
L 356.139355 287.809169 
L 357.105846 287.872834 
L 358.072337 287.728008 
L 359.038827 287.374691 
L 360.005318 286.812883 
L 360.971809 286.042584 
L 361.9383 285.063794 
L 363.388036 283.204689 
L 364.837772 280.876479 
L 366.287508 278.079165 
L 369.18698 271.74154 
L 372.086452 264.856134 
L 374.985924 257.422946 
L 377.885397 249.441976 
L 381.268114 239.438508 
L 384.650832 228.689449 
L 388.033549 217.194797 
L 396.24872 188.611806 
L 399.148193 179.659629 
L 402.047665 171.378015 
L 404.947137 163.766962 
L 407.846609 156.826472 
L 410.262836 151.554965 
L 412.679063 146.749126 
L 415.09529 142.413766 
L 417.028271 139.392376 
L 418.961253 136.822966 
L 420.894234 134.705536 
L 422.34397 133.414076 
L 423.793706 132.376855 
L 425.243442 131.593873 
L 426.693178 131.06513 
L 428.142915 130.790626 
L 429.592651 130.770361 
L 431.042387 131.004335 
L 432.492123 131.492548 
L 433.941859 132.235 
L 435.391595 133.231691 
L 436.841331 134.482621 
L 438.291067 135.987791 
L 457.620882 158.160257 
L 463.903072 165.007212 
L 465.836053 166.747899 
L 467.769034 168.125879 
L 469.218771 168.921337 
L 470.668507 169.512772 
L 472.118243 169.900184 
L 473.567979 170.083573 
L 475.017715 170.062939 
L 476.467451 169.838282 
L 477.917187 169.409602 
L 479.366923 168.7769 
L 480.816659 167.940174 
L 482.266395 166.899425 
L 484.199377 165.194391 
L 486.132358 163.12665 
L 491.448057 156.98042 
L 493.864284 154.641112 
L 496.280511 152.605611 
L 498.696738 150.873917 
L 501.112965 149.446028 
L 503.529191 148.321945 
L 505.462173 147.64142 
L 507.395154 147.15533 
L 509.328136 146.863676 
L 511.261117 146.766458 
L 513.194099 146.863676 
L 515.12708 147.15533 
L 517.060062 147.64142 
L 518.993043 148.321945 
L 520.926025 149.196907 
L 522.859006 150.266304 
L 522.859006 150.266304 
" clip-path="url(#p6d79fb16ca)" style="fill: none; stroke: #00b945; stroke-linecap: square"/>
   </g>
   <g id="line2d_60">
    <path d="M 64.259155 254.792015 
L 88.421423 236.305413 
L 112.583691 225.491444 
L 136.74596 217.818811 
L 160.908228 211.867454 
L 185.070496 207.004842 
L 209.232764 202.893562 
L 233.395033 199.332209 
L 257.557301 196.190873 
L 281.719569 193.380852 
L 305.881837 190.838879 
L 330.044105 188.51824 
L 354.206374 186.383459 
L 378.368642 184.40696 
L 402.53091 182.566883 
L 426.693178 180.845607 
L 450.855447 179.228716 
L 475.017715 177.704271 
L 499.179983 176.26227 
L 523.342251 174.89425 
" clip-path="url(#p6d79fb16ca)" style="fill: none; stroke-dasharray: 12.8,3.2,2,3.2; stroke-dashoffset: 0; stroke: #00b945; stroke-width: 2"/>
   </g>
   <g id="patch_3">
    <path d="M 41.305 300.595231 
L 41.305 20.7025 
" style="fill: none; stroke: #000000; stroke-linejoin: miter; stroke-linecap: square"/>
   </g>
   <g id="patch_4">
    <path d="M 546.296406 300.595231 
L 546.296406 20.7025 
" style="fill: none; stroke: #000000; stroke-linejoin: miter; stroke-linecap: square"/>
   </g>
   <g id="patch_5">
    <path d="M 41.305 300.595231 
L 546.296406 300.595231 
" style="fill: none; stroke: #000000; stroke-linejoin: miter; stroke-linecap: square"/>
   </g>
   <g id="patch_6">
    <path d="M 41.305 20.7025 
L 546.296406 20.7025 
" style="fill: none; stroke: #000000; stroke-linejoin: miter; stroke-linecap: square"/>
   </g>
   <g id="text_30">
    <!-- Sent &amp; Received Letters -->
    <g transform="translate(208.499453 14.7025) scale(0.16 -0.16)">
     <defs>
      <path id="Cmr10-53" d="M 359 -91 
L 359 1403 
Q 359 1453 416 1453 
L 494 1453 
Q 513 1453 528 1437 
Q 544 1422 544 1403 
Q 544 775 933 429 
Q 1322 84 1953 84 
Q 2175 84 2362 212 
Q 2550 341 2654 548 
Q 2759 756 2759 978 
Q 2759 1172 2681 1355 
Q 2603 1538 2456 1672 
Q 2309 1806 2125 1850 
L 1294 2053 
Q 881 2163 620 2502 
Q 359 2841 359 3263 
Q 359 3594 528 3884 
Q 697 4175 983 4344 
Q 1269 4513 1600 4513 
Q 2241 4513 2619 4078 
L 2881 4494 
Q 2900 4513 2925 4513 
L 2969 4513 
Q 2988 4513 3005 4498 
Q 3022 4484 3022 4459 
L 3022 2975 
Q 3022 2919 2969 2919 
L 2894 2919 
Q 2834 2919 2834 2975 
Q 2834 3138 2779 3331 
Q 2725 3525 2628 3703 
Q 2531 3881 2419 3994 
Q 2109 4306 1600 4306 
Q 1381 4306 1197 4195 
Q 1013 4084 903 3893 
Q 794 3703 794 3494 
Q 794 3219 964 2995 
Q 1134 2772 1409 2700 
L 2241 2497 
Q 2447 2447 2630 2317 
Q 2813 2188 2934 2016 
Q 3056 1844 3125 1633 
Q 3194 1422 3194 1197 
Q 3194 850 3034 542 
Q 2875 234 2586 46 
Q 2297 -141 1953 -141 
Q 1741 -141 1519 -94 
Q 1297 -47 1109 50 
Q 922 147 769 300 
L 500 -122 
Q 481 -141 453 -141 
L 416 -141 
Q 359 -141 359 -91 
z
" transform="scale(0.015625)"/>
      <path id="Cmr10-6e" d="M 191 0 
L 191 225 
Q 409 225 550 259 
Q 691 294 691 428 
L 691 2175 
Q 691 2347 639 2423 
Q 588 2500 491 2517 
Q 394 2534 191 2534 
L 191 2759 
L 1119 2828 
L 1119 2203 
Q 1247 2478 1498 2653 
Q 1750 2828 2047 2828 
Q 2491 2828 2714 2615 
Q 2938 2403 2938 1966 
L 2938 428 
Q 2938 294 3078 259 
Q 3219 225 3438 225 
L 3438 0 
L 1972 0 
L 1972 225 
Q 2191 225 2331 259 
Q 2472 294 2472 428 
L 2472 1947 
Q 2472 2259 2381 2461 
Q 2291 2663 2009 2663 
Q 1638 2663 1398 2366 
Q 1159 2069 1159 1691 
L 1159 428 
Q 1159 294 1300 259 
Q 1441 225 1656 225 
L 1656 0 
L 191 0 
z
" transform="scale(0.015625)"/>
      <path id="Cmr10-26" d="M 269 831 
Q 269 1191 525 1447 
L 1288 2241 
Q 1166 2559 1098 2895 
Q 1031 3231 1031 3559 
Q 1031 3813 1142 4048 
Q 1253 4284 1458 4432 
Q 1663 4581 1931 4581 
Q 2225 4581 2361 4312 
Q 2497 4044 2497 3719 
Q 2497 3434 2280 3131 
Q 2063 2828 1709 2444 
Q 1800 2222 1903 2025 
Q 2006 1828 2139 1618 
Q 2272 1409 2430 1193 
Q 2588 978 2747 775 
Q 2938 1000 3080 1220 
Q 3222 1441 3481 1875 
L 3641 2156 
Q 3675 2194 3675 2266 
Q 3675 2416 3537 2475 
Q 3400 2534 3225 2534 
L 3225 2759 
L 4653 2759 
L 4653 2534 
Q 4075 2534 3853 2156 
L 3647 1806 
Q 3434 1438 3257 1164 
Q 3081 891 2869 641 
Q 3078 400 3289 242 
Q 3500 84 3731 84 
Q 3916 84 4077 178 
Q 4238 272 4333 430 
Q 4428 588 4428 775 
L 4616 775 
Q 4616 538 4497 325 
Q 4378 113 4175 -14 
Q 3972 -141 3731 -141 
Q 3113 -141 2584 347 
Q 2050 -141 1422 -141 
Q 1141 -141 872 -22 
Q 603 97 436 320 
Q 269 544 269 831 
z
M 1478 84 
Q 2003 84 2444 475 
Q 2128 803 1834 1234 
Q 1541 1666 1356 2075 
L 1100 1813 
Q 825 1525 825 1031 
Q 825 816 894 598 
Q 963 381 1111 232 
Q 1259 84 1478 84 
z
M 1644 2619 
Q 1934 2941 2121 3209 
Q 2309 3478 2309 3725 
Q 2309 3878 2278 4031 
Q 2247 4184 2161 4300 
Q 2075 4416 1931 4416 
Q 1769 4416 1661 4305 
Q 1553 4194 1503 4033 
Q 1453 3872 1453 3719 
Q 1453 3166 1644 2619 
z
" transform="scale(0.015625)"/>
      <path id="Cmr10-52" d="M 213 0 
L 213 225 
Q 872 225 872 428 
L 872 3944 
Q 872 4147 213 4147 
L 213 4372 
L 2222 4372 
Q 2581 4372 2976 4242 
Q 3372 4113 3637 3847 
Q 3903 3581 3903 3213 
Q 3903 2944 3742 2733 
Q 3581 2522 3329 2380 
Q 3078 2238 2816 2175 
Q 3103 2075 3318 1856 
Q 3534 1638 3578 1356 
L 3669 788 
Q 3731 403 3800 214 
Q 3869 25 4103 25 
Q 4303 25 4401 211 
Q 4500 397 4500 616 
Q 4500 638 4520 655 
Q 4541 672 4563 672 
L 4622 672 
Q 4684 672 4684 588 
Q 4684 413 4615 245 
Q 4547 78 4417 -31 
Q 4288 -141 4109 -141 
Q 3647 -141 3314 89 
Q 2981 319 2981 763 
L 2981 1331 
Q 2981 1650 2759 1878 
Q 2538 2106 2216 2106 
L 1447 2106 
L 1447 428 
Q 1447 225 2106 225 
L 2106 0 
L 213 0 
z
M 1447 2272 
L 2131 2272 
Q 2663 2272 2941 2486 
Q 3219 2700 3219 3213 
Q 3219 3722 2944 3934 
Q 2669 4147 2131 4147 
L 1772 4147 
Q 1656 4147 1592 4137 
Q 1528 4128 1487 4083 
Q 1447 4038 1447 3944 
L 1447 2272 
z
" transform="scale(0.015625)"/>
      <path id="Cmr10-63" d="M 1594 -72 
Q 1206 -72 890 129 
Q 575 331 394 667 
Q 213 1003 213 1381 
Q 213 1759 392 2106 
Q 572 2453 889 2661 
Q 1206 2869 1594 2869 
Q 1969 2869 2276 2722 
Q 2584 2575 2584 2241 
Q 2584 2116 2495 2023 
Q 2406 1931 2278 1931 
Q 2150 1931 2061 2023 
Q 1972 2116 1972 2241 
Q 1972 2353 2044 2436 
Q 2116 2519 2222 2541 
Q 2000 2681 1600 2681 
Q 1294 2681 1106 2478 
Q 919 2275 844 1975 
Q 769 1675 769 1381 
Q 769 1072 861 783 
Q 953 494 1158 305 
Q 1363 116 1672 116 
Q 1975 116 2187 302 
Q 2400 488 2478 788 
Q 2478 825 2528 825 
L 2606 825 
Q 2625 825 2640 808 
Q 2656 791 2656 769 
L 2656 750 
Q 2559 372 2271 150 
Q 1984 -72 1594 -72 
z
" transform="scale(0.015625)"/>
      <path id="Cmr10-76" d="M 1563 0 
L 628 2350 
Q 569 2469 445 2501 
Q 322 2534 122 2534 
L 122 2759 
L 1466 2759 
L 1466 2534 
Q 1106 2534 1106 2381 
Q 1106 2356 1113 2344 
L 1831 538 
L 2478 2169 
Q 2497 2219 2497 2272 
Q 2497 2394 2405 2464 
Q 2313 2534 2188 2534 
L 2188 2759 
L 3250 2759 
L 3250 2534 
Q 3053 2534 2904 2443 
Q 2756 2353 2675 2175 
L 1813 0 
Q 1788 -72 1709 -72 
L 1663 -72 
Q 1584 -72 1563 0 
z
" transform="scale(0.015625)"/>
      <path id="Cmr10-64" d="M 1563 -72 
Q 1184 -72 871 133 
Q 559 338 386 672 
Q 213 1006 213 1381 
Q 213 1769 402 2101 
Q 591 2434 916 2631 
Q 1241 2828 1631 2828 
Q 1866 2828 2075 2729 
Q 2284 2631 2438 2456 
L 2438 3788 
Q 2438 3959 2386 4036 
Q 2334 4113 2239 4130 
Q 2144 4147 1941 4147 
L 1941 4372 
L 2888 4441 
L 2888 581 
Q 2888 413 2939 336 
Q 2991 259 3086 242 
Q 3181 225 3384 225 
L 3384 0 
L 2419 -72 
L 2419 331 
Q 2253 141 2025 34 
Q 1797 -72 1563 -72 
z
M 909 556 
Q 1019 347 1201 222 
Q 1384 97 1600 97 
Q 1866 97 2087 250 
Q 2309 403 2419 647 
L 2419 2181 
Q 2344 2322 2230 2433 
Q 2116 2544 1973 2603 
Q 1831 2663 1672 2663 
Q 1338 2663 1134 2473 
Q 931 2284 850 1990 
Q 769 1697 769 1375 
Q 769 1119 795 928 
Q 822 738 909 556 
z
" transform="scale(0.015625)"/>
     </defs>
     <use xlink:href="#Cmr10-53"/>
     <use xlink:href="#Cmr10-65" x="55.517578"/>
     <use xlink:href="#Cmr10-6e" x="99.902344"/>
     <use xlink:href="#Cmr10-74" x="155.419922"/>
     <use xlink:href="#Cmr10-20" x="194.238281"/>
     <use xlink:href="#Cmr10-26" x="227.539062"/>
     <use xlink:href="#Cmr10-20" x="305.224609"/>
     <use xlink:href="#Cmr10-52" x="338.525391"/>
     <use xlink:href="#Cmr10-65" x="412.109375"/>
     <use xlink:href="#Cmr10-63" x="456.494141"/>
     <use xlink:href="#Cmr10-65" x="500.878906"/>
     <use xlink:href="#Cmr10-69" x="545.263672"/>
     <use xlink:href="#Cmr10-76" x="572.949219"/>
     <use xlink:href="#Cmr10-65" x="625.634766"/>
     <use xlink:href="#Cmr10-64" x="670.019531"/>
     <use xlink:href="#Cmr10-20" x="725.537109"/>
     <use xlink:href="#Cmr10-4c" x="758.837891"/>
     <use xlink:href="#Cmr10-65" x="821.337891"/>
     <use xlink:href="#Cmr10-74" x="865.722656"/>
     <use xlink:href="#Cmr10-74" x="904.541016"/>
     <use xlink:href="#Cmr10-65" x="943.359375"/>
     <use xlink:href="#Cmr10-72" x="987.744141"/>
     <use xlink:href="#Cmr10-73" x="1026.855469"/>
    </g>
   </g>
   <g id="legend_1">
    <g id="patch_7">
     <path d="M 64.158203 410.832004 
L 527.443203 410.832004 
Q 530.643203 410.832004 530.643203 407.632004 
L 530.643203 341.784504 
Q 530.643203 338.584504 527.443203 338.584504 
L 64.158203 338.584504 
Q 60.958203 338.584504 60.958203 341.784504 
L 60.958203 407.632004 
Q 60.958203 410.832004 64.158203 410.832004 
z
" style="fill: #4c4c4c; opacity: 0.5; stroke: #4c4c4c; stroke-linejoin: miter"/>
    </g>
    <g id="patch_8">
     <path d="M 62.158203 408.832004 
L 525.443203 408.832004 
Q 528.643203 408.832004 528.643203 405.632004 
L 528.643203 339.784504 
Q 528.643203 336.584504 525.443203 336.584504 
L 62.158203 336.584504 
Q 58.958203 336.584504 58.958203 339.784504 
L 58.958203 405.632004 
Q 58.958203 408.832004 62.158203 408.832004 
z
" style="fill: #ffffff; stroke: #cccccc; stroke-linejoin: miter"/>
    </g>
    <g id="line2d_61">
     <path d="M 65.358203 348.584504 
L 81.358203 348.584504 
L 97.358203 348.584504 
" style="fill: none; stroke: #0c5da5; stroke-opacity: 0.2; stroke-linecap: square"/>
    </g>
    <g id="text_31">
     <!-- Sent Letters -->
     <g transform="translate(110.158203 354.184504) scale(0.16 -0.16)">
      <use xlink:href="#Cmr10-53"/>
      <use xlink:href="#Cmr10-65" x="55.517578"/>
      <use xlink:href="#Cmr10-6e" x="99.902344"/>
      <use xlink:href="#Cmr10-74" x="155.419922"/>
      <use xlink:href="#Cmr10-20" x="194.238281"/>
      <use xlink:href="#Cmr10-4c" x="227.539062"/>
      <use xlink:href="#Cmr10-65" x="290.039062"/>
      <use xlink:href="#Cmr10-74" x="334.423828"/>
      <use xlink:href="#Cmr10-74" x="373.242188"/>
      <use xlink:href="#Cmr10-65" x="412.060547"/>
      <use xlink:href="#Cmr10-72" x="456.445312"/>
      <use xlink:href="#Cmr10-73" x="495.556641"/>
     </g>
    </g>
    <g id="line2d_62">
     <path d="M 65.358203 370.969504 
L 81.358203 370.969504 
L 97.358203 370.969504 
" style="fill: none; stroke: #0c5da5; stroke-linecap: square"/>
    </g>
    <g id="text_32">
     <!-- Correctly Sent -->
     <g transform="translate(110.158203 376.569504) scale(0.16 -0.16)">
      <defs>
       <path id="Cmr10-43" d="M 1459 684 
Q 1678 406 2006 245 
Q 2334 84 2688 84 
Q 2984 84 3237 201 
Q 3491 319 3680 528 
Q 3869 738 3970 1003 
Q 4072 1269 4072 1563 
Q 4072 1613 4128 1613 
L 4206 1613 
Q 4256 1613 4256 1550 
Q 4256 1216 4128 905 
Q 4000 594 3765 358 
Q 3531 122 3226 -9 
Q 2922 -141 2591 -141 
Q 2131 -141 1720 45 
Q 1309 231 1004 554 
Q 700 878 529 1303 
Q 359 1728 359 2188 
Q 359 2647 529 3072 
Q 700 3497 1004 3822 
Q 1309 4147 1720 4330 
Q 2131 4513 2591 4513 
Q 2919 4513 3219 4370 
Q 3519 4228 3744 3969 
L 4116 4494 
Q 4153 4513 4159 4513 
L 4206 4513 
Q 4225 4513 4240 4497 
Q 4256 4481 4256 4459 
L 4256 2731 
Q 4256 2675 4206 2675 
L 4091 2675 
Q 4031 2675 4031 2731 
Q 4031 2916 3957 3144 
Q 3884 3372 3770 3576 
Q 3656 3781 3506 3938 
Q 3147 4288 2681 4288 
Q 2328 4288 2004 4128 
Q 1681 3969 1459 3688 
Q 1225 3388 1134 3005 
Q 1044 2622 1044 2188 
Q 1044 1753 1134 1368 
Q 1225 984 1459 684 
z
" transform="scale(0.015625)"/>
       <path id="Cmr10-79" d="M 441 -1050 
Q 563 -1147 709 -1147 
Q 1113 -1147 1369 -538 
L 1588 0 
L 628 2350 
Q 569 2469 447 2501 
Q 325 2534 122 2534 
L 122 2759 
L 1466 2759 
L 1466 2534 
Q 1113 2534 1113 2381 
Q 1113 2356 1119 2344 
L 1831 594 
L 2472 2169 
Q 2491 2219 2491 2278 
Q 2491 2356 2448 2414 
Q 2406 2472 2339 2503 
Q 2272 2534 2188 2534 
L 2188 2759 
L 3250 2759 
L 3250 2534 
Q 3053 2534 2904 2443 
Q 2756 2353 2675 2175 
L 1569 -538 
Q 1481 -744 1364 -917 
Q 1247 -1091 1078 -1202 
Q 909 -1313 709 -1313 
Q 475 -1313 298 -1158 
Q 122 -1003 122 -775 
Q 122 -656 203 -575 
Q 284 -494 403 -494 
Q 484 -494 548 -530 
Q 613 -566 648 -628 
Q 684 -691 684 -775 
Q 684 -878 615 -959 
Q 547 -1041 441 -1050 
z
" transform="scale(0.015625)"/>
      </defs>
      <use xlink:href="#Cmr10-43"/>
      <use xlink:href="#Cmr10-6f" x="72.216797"/>
      <use xlink:href="#Cmr10-72" x="122.216797"/>
      <use xlink:href="#Cmr10-72" x="161.328125"/>
      <use xlink:href="#Cmr10-65" x="200.439453"/>
      <use xlink:href="#Cmr10-63" x="244.824219"/>
      <use xlink:href="#Cmr10-74" x="289.208984"/>
      <use xlink:href="#Cmr10-6c" x="328.027344"/>
      <use xlink:href="#Cmr10-79" x="355.712891"/>
      <use xlink:href="#Cmr10-20" x="408.398438"/>
      <use xlink:href="#Cmr10-53" x="441.699219"/>
      <use xlink:href="#Cmr10-65" x="497.216797"/>
      <use xlink:href="#Cmr10-6e" x="541.601562"/>
      <use xlink:href="#Cmr10-74" x="597.119141"/>
     </g>
    </g>
    <g id="line2d_63">
     <path d="M 65.358203 393.534504 
L 81.358203 393.534504 
L 97.358203 393.534504 
" style="fill: none; stroke-dasharray: 12.8,3.2,2,3.2; stroke-dashoffset: 0; stroke: #0c5da5; stroke-width: 2"/>
    </g>
    <g id="text_33">
     <!-- Sender Learning Curve -->
     <g transform="translate(110.158203 399.134504) scale(0.16 -0.16)">
      <defs>
       <path id="Cmr10-67" d="M 178 -500 
Q 178 -272 343 -101 
Q 509 69 738 141 
Q 609 238 542 384 
Q 475 531 475 697 
Q 475 997 666 1228 
Q 372 1516 372 1888 
Q 372 2088 458 2263 
Q 544 2438 697 2566 
Q 850 2694 1037 2761 
Q 1225 2828 1422 2828 
Q 1803 2828 2106 2606 
Q 2238 2747 2417 2823 
Q 2597 2900 2791 2900 
Q 2928 2900 3015 2801 
Q 3103 2703 3103 2566 
Q 3103 2488 3043 2428 
Q 2984 2369 2906 2369 
Q 2825 2369 2765 2428 
Q 2706 2488 2706 2566 
Q 2706 2684 2784 2731 
Q 2453 2731 2216 2503 
Q 2331 2388 2401 2220 
Q 2472 2053 2472 1888 
Q 2472 1616 2322 1398 
Q 2172 1181 1926 1061 
Q 1681 941 1422 941 
Q 1072 941 781 1131 
Q 691 1006 691 850 
Q 691 681 802 554 
Q 913 428 1081 428 
L 1606 428 
Q 1988 428 2294 359 
Q 2600 291 2808 84 
Q 3016 -122 3016 -500 
Q 3016 -781 2778 -967 
Q 2541 -1153 2211 -1236 
Q 1881 -1319 1600 -1319 
Q 1316 -1319 984 -1236 
Q 653 -1153 415 -967 
Q 178 -781 178 -500 
z
M 538 -500 
Q 538 -716 713 -861 
Q 888 -1006 1134 -1076 
Q 1381 -1147 1600 -1147 
Q 1816 -1147 2062 -1076 
Q 2309 -1006 2482 -861 
Q 2656 -716 2656 -500 
Q 2656 -166 2350 -67 
Q 2044 31 1606 31 
L 1081 31 
Q 934 31 811 -39 
Q 688 -109 613 -236 
Q 538 -363 538 -500 
z
M 1422 1113 
Q 1966 1113 1966 1888 
Q 1966 2222 1850 2439 
Q 1734 2656 1422 2656 
Q 1109 2656 993 2439 
Q 878 2222 878 1888 
Q 878 1675 922 1503 
Q 966 1331 1084 1222 
Q 1203 1113 1422 1113 
z
" transform="scale(0.015625)"/>
      </defs>
      <use xlink:href="#Cmr10-53"/>
      <use xlink:href="#Cmr10-65" x="55.517578"/>
      <use xlink:href="#Cmr10-6e" x="99.902344"/>
      <use xlink:href="#Cmr10-64" x="155.419922"/>
      <use xlink:href="#Cmr10-65" x="210.9375"/>
      <use xlink:href="#Cmr10-72" x="255.322266"/>
      <use xlink:href="#Cmr10-20" x="294.433594"/>
      <use xlink:href="#Cmr10-4c" x="327.734375"/>
      <use xlink:href="#Cmr10-65" x="390.234375"/>
      <use xlink:href="#Cmr10-61" x="434.619141"/>
      <use xlink:href="#Cmr10-72" x="484.619141"/>
      <use xlink:href="#Cmr10-6e" x="523.730469"/>
      <use xlink:href="#Cmr10-69" x="579.248047"/>
      <use xlink:href="#Cmr10-6e" x="606.933594"/>
      <use xlink:href="#Cmr10-67" x="662.451172"/>
      <use xlink:href="#Cmr10-20" x="712.451172"/>
      <use xlink:href="#Cmr10-43" x="745.751953"/>
      <use xlink:href="#Cmr10-75" x="817.96875"/>
      <use xlink:href="#Cmr10-72" x="873.486328"/>
      <use xlink:href="#Cmr10-76" x="912.597656"/>
      <use xlink:href="#Cmr10-65" x="965.283203"/>
     </g>
    </g>
    <g id="line2d_64">
     <path d="M 303.705703 348.584504 
L 319.705703 348.584504 
L 335.705703 348.584504 
" style="fill: none; stroke: #00b945; stroke-opacity: 0.2; stroke-linecap: square"/>
    </g>
    <g id="text_34">
     <!-- Received Letters -->
     <g transform="translate(348.505703 354.184504) scale(0.16 -0.16)">
      <use xlink:href="#Cmr10-52"/>
      <use xlink:href="#Cmr10-65" x="73.583984"/>
      <use xlink:href="#Cmr10-63" x="117.96875"/>
      <use xlink:href="#Cmr10-65" x="162.353516"/>
      <use xlink:href="#Cmr10-69" x="206.738281"/>
      <use xlink:href="#Cmr10-76" x="234.423828"/>
      <use xlink:href="#Cmr10-65" x="287.109375"/>
      <use xlink:href="#Cmr10-64" x="331.494141"/>
      <use xlink:href="#Cmr10-20" x="387.011719"/>
      <use xlink:href="#Cmr10-4c" x="420.3125"/>
      <use xlink:href="#Cmr10-65" x="482.8125"/>
      <use xlink:href="#Cmr10-74" x="527.197266"/>
      <use xlink:href="#Cmr10-74" x="566.015625"/>
      <use xlink:href="#Cmr10-65" x="604.833984"/>
      <use xlink:href="#Cmr10-72" x="649.21875"/>
      <use xlink:href="#Cmr10-73" x="688.330078"/>
     </g>
    </g>
    <g id="line2d_65">
     <path d="M 303.705703 370.969504 
L 319.705703 370.969504 
L 335.705703 370.969504 
" style="fill: none; stroke: #00b945; stroke-linecap: square"/>
    </g>
    <g id="text_35">
     <!-- Correctly Received -->
     <g transform="translate(348.505703 376.569504) scale(0.16 -0.16)">
      <use xlink:href="#Cmr10-43"/>
      <use xlink:href="#Cmr10-6f" x="72.216797"/>
      <use xlink:href="#Cmr10-72" x="122.216797"/>
      <use xlink:href="#Cmr10-72" x="161.328125"/>
      <use xlink:href="#Cmr10-65" x="200.439453"/>
      <use xlink:href="#Cmr10-63" x="244.824219"/>
      <use xlink:href="#Cmr10-74" x="289.208984"/>
      <use xlink:href="#Cmr10-6c" x="328.027344"/>
      <use xlink:href="#Cmr10-79" x="355.712891"/>
      <use xlink:href="#Cmr10-20" x="408.398438"/>
      <use xlink:href="#Cmr10-52" x="441.699219"/>
      <use xlink:href="#Cmr10-65" x="515.283203"/>
      <use xlink:href="#Cmr10-63" x="559.667969"/>
      <use xlink:href="#Cmr10-65" x="604.052734"/>
      <use xlink:href="#Cmr10-69" x="648.4375"/>
      <use xlink:href="#Cmr10-76" x="676.123047"/>
      <use xlink:href="#Cmr10-65" x="728.808594"/>
      <use xlink:href="#Cmr10-64" x="773.193359"/>
     </g>
    </g>
    <g id="line2d_66">
     <path d="M 303.705703 393.534504 
L 319.705703 393.534504 
L 335.705703 393.534504 
" style="fill: none; stroke-dasharray: 12.8,3.2,2,3.2; stroke-dashoffset: 0; stroke: #00b945; stroke-width: 2"/>
    </g>
    <g id="text_36">
     <!-- Receiver Learning Curve -->
     <g transform="translate(348.505703 399.134504) scale(0.16 -0.16)">
      <use xlink:href="#Cmr10-52"/>
      <use xlink:href="#Cmr10-65" x="73.583984"/>
      <use xlink:href="#Cmr10-63" x="117.96875"/>
      <use xlink:href="#Cmr10-65" x="162.353516"/>
      <use xlink:href="#Cmr10-69" x="206.738281"/>
      <use xlink:href="#Cmr10-76" x="234.423828"/>
      <use xlink:href="#Cmr10-65" x="287.109375"/>
      <use xlink:href="#Cmr10-72" x="331.494141"/>
      <use xlink:href="#Cmr10-20" x="370.605469"/>
      <use xlink:href="#Cmr10-4c" x="403.90625"/>
      <use xlink:href="#Cmr10-65" x="466.40625"/>
      <use xlink:href="#Cmr10-61" x="510.791016"/>
      <use xlink:href="#Cmr10-72" x="560.791016"/>
      <use xlink:href="#Cmr10-6e" x="599.902344"/>
      <use xlink:href="#Cmr10-69" x="655.419922"/>
      <use xlink:href="#Cmr10-6e" x="683.105469"/>
      <use xlink:href="#Cmr10-67" x="738.623047"/>
      <use xlink:href="#Cmr10-20" x="788.623047"/>
      <use xlink:href="#Cmr10-43" x="821.923828"/>
      <use xlink:href="#Cmr10-75" x="894.140625"/>
      <use xlink:href="#Cmr10-72" x="949.658203"/>
      <use xlink:href="#Cmr10-76" x="988.769531"/>
      <use xlink:href="#Cmr10-65" x="1041.455078"/>
     </g>
    </g>
   </g>
  </g>
 </g>
 <defs>
  <clipPath id="p6d79fb16ca">
   <rect x="41.305" y="20.7025" width="504.991406" height="279.892731"/>
  </clipPath>
 </defs>
</svg>
